<?xml version="1.0" standalone="no"?>
<!DOCTYPE svg PUBLIC "-//W3C//DTD SVG 1.1//EN" "http://www.w3.org/Graphics/SVG/1.1/DTD/svg11.dtd" >
<svg xmlns="http://www.w3.org/2000/svg" xmlns:xlink="http://www.w3.org/1999/xlink" version="1.1">
<metadata>
Created by FontForge 20170731 at Thu Apr 14 09:36:33 2022
 By Aleksey,,,
Copyright (c) 2012 by Typomancer. All rights reserved.
</metadata>
<defs>
<font id="Arch-Bold" horiz-adv-x="1032" >
  <font-face 
    font-family="Arch"
    font-weight="700"
    font-stretch="normal"
    units-per-em="2048"
    panose-1="2 0 0 0 0 0 0 0 0 0"
    ascent="1536"
    descent="-512"
    x-height="1024"
    cap-height="1475"
    bbox="-145 -477 1980 1989"
    underline-thickness="71"
    underline-position="-292"
    unicode-range="U+000D-25CA"
  />
<missing-glyph horiz-adv-x="1269" 
d="M176 0v1350h920v-1350h-920zM399 1126v-903h473v903h-473z" />
    <glyph glyph-name=".notdef" horiz-adv-x="1269" 
d="M176 0v1350h920v-1350h-920zM399 1126v-903h473v903h-473z" />
    <glyph glyph-name=".null" horiz-adv-x="0" 
 />
    <glyph glyph-name="nonmarkingreturn" horiz-adv-x="682" 
 />
    <glyph glyph-name="NULL" horiz-adv-x="0" 
 />
    <glyph glyph-name="NULL" horiz-adv-x="0" 
 />
    <glyph glyph-name="CR" unicode="&#xd;" horiz-adv-x="614" 
 />
    <glyph glyph-name="space" unicode=" " horiz-adv-x="614" 
 />
    <glyph glyph-name="exclam" unicode="!" horiz-adv-x="428" 
d="M59 141q0 63 45.5 108.5t108.5 45.5q65 0 110.5 -45.5t45.5 -108.5q0 -66 -45 -110.5t-111 -44.5q-64 0 -109 45t-45 110zM326 428h-224v1047h224v-1047z" />
    <glyph glyph-name="quotedbl" unicode="&#x22;" horiz-adv-x="786" 
d="M326 922h-224v604h224v-604zM684 922h-223v604h223v-604z" />
    <glyph glyph-name="numbersign" unicode="#" horiz-adv-x="1437" 
d="M877 1057l84 418h225l-82 -418h311l-49 -223h-305l-41 -209h311l-51 -226h-301l-76 -399h-227l74 399h-209l-78 -399h-227l75 399h-272l51 226h264q26 118 43 209h-274l51 223h264l82 418h225l-79 -418h211zM625 834l-43 -209h211q26 118 43 209h-211z" />
    <glyph glyph-name="dollar" unicode="$" horiz-adv-x="1124" 
d="M655 1516v-218q119 -10 299 -53l-26 -201q-55 15 -168.5 31.5t-212.5 16.5q-107 0 -175.5 -32t-68.5 -97q0 -42 25.5 -73t69 -50.5t100 -36t118.5 -32t124 -34.5t118.5 -49t100 -69.5t69 -101.5t25.5 -140q0 -97 -31.5 -170.5t-87.5 -118t-125.5 -68.5t-153.5 -30v-318
h-223v320q-184 15 -326 65l13 242q209 -100 434 -100q120 0 198 44.5t78 135.5q0 53 -41.5 90.5t-107.5 60.5t-145.5 44t-159.5 49t-146 67.5t-107.5 108.5t-41.5 162q0 297 352 337v218h223z" />
    <glyph glyph-name="percent" unicode="%" horiz-adv-x="1398" 
d="M1085 1475h236l-985 -1475h-238zM68 1214q0 111 78 191t190 80q110 0 190 -80.5t80 -190.5q0 -112 -79.5 -190t-190.5 -78q-112 0 -190 78t-78 190zM229 1214q0 -43 32 -74.5t75 -31.5t75.5 31.5t32.5 74.5t-32.5 76t-75.5 33t-75 -33t-32 -76zM809 254q0 111 78 190.5
t190 79.5q110 0 190.5 -80t80.5 -190q0 -112 -80 -190t-191 -78q-113 0 -190.5 78t-77.5 190zM971 254q0 -43 31.5 -75t74.5 -32t76 32t33 75t-33 75.5t-76 32.5t-74.5 -32.5t-31.5 -75.5z" />
    <glyph glyph-name="ampersand" unicode="&#x26;" horiz-adv-x="1308" 
d="M858 1163q0 -52 -21.5 -103.5t-62.5 -100t-83 -87.5t-101 -86q77 -107 317 -376q31 67 31 116q0 103 -96 277l231 28q88 -161 88 -301q0 -145 -104 -290q129 -144 207 -240h-299l-74 86q-156 -100 -320 -100q-73 0 -142.5 16t-133 51t-111 86t-76 127t-28.5 168
q0 121 62 215.5t169 177.5q-104 184 -104 336q0 102 49.5 178t123.5 112t159 36q132 0 225.5 -85t93.5 -241zM743 254q-216 248 -317 393q-123 -116 -123 -213q0 -107 81 -171t189 -64q97 0 170 55zM430 1163q0 -100 55 -207q74 59 112 105.5t38 101.5q0 54 -29.5 83.5
t-70.5 29.5q-42 0 -73.5 -30.5t-31.5 -82.5z" />
    <glyph glyph-name="quotesingle" unicode="'" horiz-adv-x="395" 
d="M309 922h-223v604h223v-604z" />
    <glyph glyph-name="parenleft" unicode="(" horiz-adv-x="585" 
d="M539 -328h-228q-223 402 -223 942q0 518 207 902h223q-203 -413 -203 -902q0 -536 224 -942z" />
    <glyph glyph-name="parenright" unicode=")" horiz-adv-x="585" 
d="M299 -328h-227q223 404 223 942q0 489 -203 902h223q207 -384 207 -902q0 -540 -223 -942z" />
    <glyph glyph-name="asterisk" unicode="*" horiz-adv-x="837" 
d="M422 1044l-115 -231l-186 127l133 143l-195 -22v227l195 -26l-133 145l186 127l115 -211l115 211l186 -127l-133 -145l194 26v-227l-194 22l133 -143l-186 -127z" />
    <glyph glyph-name="plus" unicode="+" horiz-adv-x="1034" 
d="M627 1149v-356h348v-213h-348v-349h-224v349h-346v213h346v356h224z" />
    <glyph glyph-name="comma" unicode="," horiz-adv-x="434" 
d="M150 223l223 33v-135q0 -106 -22.5 -178t-71.5 -129l-234 36q59 64 82 120.5t23 144.5v108z" />
    <glyph glyph-name="hyphen" unicode="-" horiz-adv-x="917" 
d="M846 457h-776v213h776v-213z" />
    <glyph glyph-name="period" unicode="." horiz-adv-x="393" 
d="M53 143q0 60 42 103t102 43t102.5 -43t42.5 -103t-42.5 -101.5t-102.5 -41.5t-102 41.5t-42 101.5z" />
    <glyph glyph-name="slash" unicode="/" horiz-adv-x="903" 
d="M641 1516h221l-590 -1844h-223z" />
    <glyph glyph-name="zero" unicode="0" horiz-adv-x="1077" 
d="M82 426v479q0 103 39 188.5t104 139.5t146 83.5t168 29.5t168 -29.5t145.5 -83.5t103.5 -139.5t39 -188.5v-479q0 -103 -39 -188.5t-103.5 -139t-145.5 -83t-168 -29.5t-168 29.5t-146 83t-104 139t-39 188.5zM772 426v479q0 107 -69.5 167.5t-163.5 60.5t-164 -60.5
t-70 -167.5v-479q0 -107 70 -167t164 -60t163.5 60t69.5 167z" />
    <glyph glyph-name="one" unicode="1" horiz-adv-x="1077" 
d="M752 0h-224v1069l-209 -213l-172 156l293 276q61 58 138 58q72 0 123 -51.5t51 -139.5v-1155z" />
    <glyph glyph-name="two" unicode="2" horiz-adv-x="1077" 
d="M305 983l-158 145q84 107 189 162.5t211 55.5q176 0 284.5 -107t108.5 -278q0 -76 -31.5 -158t-76 -149.5t-122.5 -152.5t-139.5 -143t-158.5 -145h544v-213h-733q-119 13 -119 160q0 84 62 137q104 89 178 156t150 143t122 134t75.5 115.5t29.5 102.5q0 90 -49 137.5
t-125 47.5q-132 0 -242 -150z" />
    <glyph glyph-name="three" unicode="3" horiz-adv-x="1077" 
d="M408 575v213h110q85 0 132.5 55.5t47.5 125.5q0 64 -43 114t-118 50q-78 0 -150.5 -42t-122.5 -114l-119 184q182 185 383 185q104 0 192.5 -42.5t144 -126.5t55.5 -194q0 -85 -43 -164t-129 -133q208 -105 208 -319q0 -118 -61.5 -206t-159.5 -131.5t-217 -43.5
q-143 0 -250 56.5t-170 166.5l160 141q38 -70 105 -110.5t155 -40.5q91 0 154 54.5t63 147.5q0 70 -57.5 122t-161.5 52h-108z" />
    <glyph glyph-name="four" unicode="4" horiz-adv-x="1077" 
d="M90 541l348 694q54 111 195 111q78 0 133 -46.5t55 -130.5v-677h199v-213h-199v-279h-223v279h-365q-74 0 -123 40.5t-49 110.5q0 48 29 111zM598 1110l-305 -618h305v618z" />
    <glyph glyph-name="five" unicode="5" horiz-adv-x="1077" 
d="M135 63l53 213q157 -77 301 -77q108 0 177 56.5t69 164.5q0 72 -61.5 122t-177.5 50h-174q-49 0 -84 16t-53 43.5t-25.5 58t-7.5 66.5q0 17 4 49l30 254q13 96 89.5 174t187.5 78h444v-213h-413q-90 0 -103 -117l-20 -196h145q109 0 195 -32t138.5 -86.5t79.5 -122
t27 -142.5q0 -203 -129.5 -319.5t-337.5 -116.5q-173 0 -354 77z" />
    <glyph glyph-name="six" unicode="6" horiz-adv-x="1077" 
d="M625 1346l243 -48q-281 -192 -450 -479q74 39 164 39q161 0 280 -125t119 -311q0 -183 -132.5 -309.5t-318.5 -126.5q-199 0 -316.5 123.5t-117.5 312.5q0 138 48 283t126 265t170 217t185 159zM319 422q0 -104 65 -163.5t155 -59.5q87 0 153 59.5t66 163.5t-66 163.5
t-153 59.5q-90 0 -155 -59.5t-65 -163.5z" />
    <glyph glyph-name="seven" unicode="7" horiz-adv-x="1077" 
d="M965 1032l-480 -1032h-262l543 1118h-604v213h653q92 0 135 -48t43 -122q0 -62 -28 -129z" />
    <glyph glyph-name="eight" unicode="8" horiz-adv-x="1077" 
d="M541 -14q-106 0 -191 35.5t-136.5 94t-78 129.5t-26.5 148q0 130 67 234t191 135q-168 93 -168 264q0 62 23 118.5t65 102t108 72.5t146 27q159 0 251.5 -95t92.5 -225q0 -171 -168 -264q124 -31 191 -135t67 -234q0 -61 -16.5 -119t-51.5 -110.5t-85 -91.5t-122.5 -62.5
t-158.5 -23.5zM541 625q-86 0 -146.5 -61t-60.5 -146q0 -86 61.5 -152.5t145.5 -66.5q85 0 147 66.5t62 152.5t-60.5 146.5t-148.5 60.5zM541 874q59 0 98 42t39 100q0 68 -41 107.5t-96 39.5t-95 -39.5t-40 -107.5q0 -58 39.5 -100t95.5 -42z" />
    <glyph glyph-name="nine" unicode="9" horiz-adv-x="1077" 
d="M453 -14l-244 47q289 202 450 479q-74 -39 -163 -39q-161 0 -280.5 125t-119.5 311q0 183 132.5 310t318.5 127q199 0 316.5 -123.5t117.5 -313.5q0 -139 -48 -283.5t-125.5 -264.5t-169 -216.5t-185.5 -158.5zM758 909q0 105 -65 164.5t-154 59.5q-87 0 -153.5 -60
t-66.5 -164t66.5 -163.5t153.5 -59.5q89 0 154 59t65 164z" />
    <glyph glyph-name="colon" unicode=":" horiz-adv-x="432" 
d="M76 143q0 60 41.5 103t101.5 43t103 -43t43 -103t-43 -101.5t-103 -41.5t-101.5 41.5t-41.5 101.5zM76 817q0 60 41.5 103t101.5 43t103 -43t43 -103t-43 -101.5t-103 -41.5t-101.5 41.5t-41.5 101.5z" />
    <glyph glyph-name="semicolon" unicode=";" horiz-adv-x="409" 
d="M86 817q0 60 41.5 103t101.5 43t103 -43t43 -103t-43 -101.5t-103 -41.5t-101.5 41.5t-41.5 101.5zM121 115v108l223 33v-135q0 -106 -22.5 -178t-71.5 -129l-234 36q59 64 82 120.5t23 144.5z" />
    <glyph glyph-name="less" unicode="&#x3c;" horiz-adv-x="819" 
d="M287 563l465 -354v-264l-637 493q-60 48 -60 125q0 79 60 127l637 494v-264z" />
    <glyph glyph-name="equal" unicode="=" horiz-adv-x="1024" 
d="M952 791h-874v213h874v-213zM952 369h-874v213h874v-213z" />
    <glyph glyph-name="greater" unicode="&#x3e;" horiz-adv-x="819" 
d="M68 209l464 354l-464 357v264l637 -494q59 -47 59 -127q0 -78 -59 -125l-637 -493v264z" />
    <glyph glyph-name="question" unicode="?" horiz-adv-x="858" 
d="M283 1116l-224 45q35 158 145 243t247 85q68 0 130 -23t111.5 -65.5t79 -110.5t29.5 -151q0 -75 -38 -162.5t-83 -153t-83 -141.5t-38 -131v-135h-223v149q0 67 38 146.5t83 142t83 141t38 144.5t-37 101.5t-92 35.5q-144 0 -166 -160zM293 141q0 63 45 108.5t108 45.5
q66 0 111 -45.5t45 -108.5q0 -66 -45 -110.5t-111 -44.5q-64 0 -108.5 45t-44.5 110z" />
    <glyph glyph-name="at" unicode="@" horiz-adv-x="1796" 
d="M1008 432l22 117q4 28 4 29q0 58 -42.5 93.5t-102.5 35.5q-56 0 -99.5 -33.5t-56.5 -93.5l-41 -183q-4 -20 -4 -26q0 -41 31 -63.5t76 -22.5q68 0 135 42.5t78 104.5zM911 -84l58 -197q-140 -43 -258 -43q-143 0 -265.5 59t-204 156.5t-127.5 221.5t-46 256
q0 146 52 287.5t146 257t215.5 203.5t269.5 137t300 49q139 0 251.5 -35.5t189.5 -97t129 -147t75.5 -183t23.5 -207.5q0 -143 -47.5 -271t-125 -215.5t-177 -138.5t-201.5 -51q-85 0 -135.5 49.5t-50.5 128.5q0 17 4 45q-105 -96 -233 -96q-120 0 -203.5 68t-83.5 176
q0 38 8 65l53 234q28 131 132.5 209.5t230.5 78.5q125 0 205 -96l43 84h182l-139 -657q-4 -28 -4 -31q0 -19 9 -29t34 -10q33 0 79 36t89 94.5t73.5 148t30.5 182.5q0 453 -483 453q-116 0 -226 -40.5t-197.5 -111t-154.5 -161t-103 -197t-36 -213.5q0 -122 53.5 -230
t157 -178t233.5 -70q83 0 174 27z" />
    <glyph glyph-name="A" unicode="A" horiz-adv-x="1323" 
d="M336 727h651v207q0 80 -28.5 146.5t-75 108t-104 64.5t-117.5 23t-117.5 -23t-104.5 -64.5t-75.5 -108t-28.5 -146.5v-207zM987 514h-651v-514h-223v934q0 130 47 237.5t125 175.5t175.5 105t201.5 37t201.5 -37t175 -105t124.5 -175.5t47 -237.5v-934h-223v514z" />
    <glyph glyph-name="B" unicode="B" horiz-adv-x="1243" 
d="M666 680h-330v-467h358q116 0 180 68t64 159q0 96 -71 168t-201 72zM336 893h381q88 0 139 58t51 130q0 71 -47 126t-129 55h-395v-369zM694 0h-430q-75 0 -113 46.5t-38 115.5v1151q0 69 38 115.5t113 46.5h467q115 0 208.5 -55.5t142 -141t48.5 -180.5
q0 -97 -53 -179.5t-159 -134.5q122 -57 181.5 -151.5t59.5 -204.5q0 -80 -33 -156.5t-91.5 -137t-147.5 -97.5t-193 -37z" />
    <glyph glyph-name="C" unicode="C" horiz-adv-x="1073" 
d="M993 362l49 -212q-77 -78 -189 -121t-232 -43q-104 0 -198.5 31.5t-171.5 92.5t-123 162t-46 228v454q0 128 44.5 232t119.5 169t169.5 99.5t198.5 34.5q208 0 385 -127l-71 -203q-147 117 -305 117q-133 0 -225.5 -83t-92.5 -239v-454q0 -77 27 -136.5t74 -94.5
t104.5 -52.5t124.5 -17.5q99 0 193.5 41.5t164.5 121.5z" />
    <glyph glyph-name="D" unicode="D" horiz-adv-x="1255" 
d="M586 1262h-250v-1049h295q102 0 180.5 73.5t118 190.5t39.5 254q0 145 -46 265t-134 193t-203 73zM264 1475h322q141 0 256.5 -58.5t191.5 -160t117 -236.5t41 -289q0 -114 -23.5 -221t-71 -199.5t-113.5 -162t-157 -109t-196 -39.5h-367q-75 0 -113 46.5t-38 115.5v1151
q0 69 38 115.5t113 46.5z" />
    <glyph glyph-name="E" unicode="E" horiz-adv-x="1144" 
d="M1106 213v-213h-842q-75 0 -113 46.5t-38 115.5v1151q0 69 38 115.5t113 46.5h813v-213h-741v-388h606v-212h-606v-449h770z" />
    <glyph glyph-name="F" unicode="F" horiz-adv-x="1042" 
d="M870 848v-213h-534v-635h-223v1313q0 69 38 115.5t113 46.5h744v-213h-672v-414h534z" />
    <glyph glyph-name="G" unicode="G" horiz-adv-x="1269" 
d="M674 612v213h342q75 0 113 -46t38 -115v-164q0 -125 -45 -225.5t-120 -162t-168.5 -94t-196.5 -32.5t-199.5 33.5t-174 96t-124.5 162.5t-47 222v454q0 132 44.5 236.5t120.5 168.5t169.5 97t198.5 33q165 0 286 -59t230 -181l-148 -162q-71 91 -168.5 140t-199.5 49
q-132 0 -221 -81.5t-89 -240.5v-454q0 -98 48 -168t119 -101.5t155 -31.5q126 0 216.5 81.5t90.5 231.5v100h-270z" />
    <glyph glyph-name="H" unicode="H" horiz-adv-x="1323" 
d="M987 877v598h223v-1475h-223v664h-651v-664h-223v1475h223v-598h651z" />
    <glyph glyph-name="I" unicode="I" horiz-adv-x="489" 
d="M356 1475v-1475h-223v1475h223z" />
    <glyph glyph-name="J" unicode="J" horiz-adv-x="806" 
d="M27 6v215q77 -22 151 -22q130 0 216.5 75t86.5 220v981h224v-994q0 -122 -43.5 -219t-116.5 -156t-162.5 -89.5t-187.5 -30.5q-89 0 -168 20z" />
    <glyph glyph-name="K" unicode="K" horiz-adv-x="1298" 
d="M950 1475h224q0 -406 -279 -635q74 -26 128 -61.5t96.5 -88.5t64.5 -129.5t22 -175.5v-385h-223v385q0 128 -86 211.5t-211 110.5q-166 -74 -350 -91v-616h-223v1475h223v-646q82 0 168.5 29t166 86t142 133.5t100 180t37.5 217.5z" />
    <glyph glyph-name="L" unicode="L" horiz-adv-x="1021" 
d="M991 213v-213h-727q-75 0 -113 46.5t-38 115.5v1313h223v-1262h655z" />
    <glyph glyph-name="M" unicode="M" horiz-adv-x="1601" 
d="M664 88l-328 1118v-1206h-223v1315q0 82 59.5 128t140.5 46q68 0 121.5 -32t71.5 -95l295 -1045l295 1045q18 63 71 95t121 32q81 0 141 -46t60 -128v-1315h-223v1206l-328 -1118q-17 -49 -54.5 -75.5t-82.5 -26.5q-46 0 -85 27t-52 75z" />
    <glyph glyph-name="N" unicode="N" horiz-adv-x="1306" 
d="M786 106l-450 1121v-1227h-223v1317q0 81 58 126.5t138 45.5q75 0 124.5 -26.5t78.5 -98.5l459 -1128v1239h223v-1311q0 -86 -59 -132t-140 -46q-69 0 -127 31t-82 89z" />
    <glyph glyph-name="O" unicode="O" horiz-adv-x="1294" 
d="M92 528v418q0 103 31 191.5t84 152t124 109t151.5 68t164.5 22.5t164 -22.5t150.5 -68t124.5 -109t85 -152.5t31 -191v-418q0 -127 -47.5 -232t-126.5 -171.5t-177.5 -102.5t-203.5 -36q-106 0 -204.5 36t-177.5 102.5t-126 171.5t-47 232zM979 528v418q0 78 -28.5 142
t-75.5 104t-106 62t-122 22t-122 -22t-106 -62t-75.5 -104t-28.5 -142v-418q0 -103 49 -179.5t123 -113t160 -36.5t160 36.5t123 113t49 179.5z" />
    <glyph glyph-name="P" unicode="P" horiz-adv-x="1243" 
d="M336 791h366q118 0 187 74t69 169q0 90 -63.5 159t-177.5 69h-381v-471zM719 578h-383v-578h-223v1313q0 69 38 115.5t113 46.5h453q91 0 167.5 -25t130.5 -68t92.5 -100.5t56.5 -121.5t18 -132q0 -85 -30 -164.5t-86 -144t-146 -103t-201 -38.5z" />
    <glyph glyph-name="Q" unicode="Q" horiz-adv-x="1323" 
d="M647 -14q-106 0 -204.5 36t-177.5 102.5t-126 171.5t-47 232v418q0 103 31 191.5t84 152t124 109t151.5 68t164.5 22.5t164 -22.5t150.5 -68t124.5 -109t85 -152.5t31 -191v-418q0 -139 -54 -247.5t-155 -161.5q185 -12 291 -45l-67 -252l-9 -6q-276 170 -561 170z
M979 528v418q0 78 -28.5 142t-75.5 104t-106 62t-122 22t-122 -22t-106 -62t-75.5 -104t-28.5 -142v-418q0 -103 49 -179.5t123 -113t160 -36.5t160 36.5t123 113t49 179.5z" />
    <glyph glyph-name="R" unicode="R" horiz-adv-x="1263" 
d="M633 631h-297v-631h-223v1313q0 69 38 115.5t113 46.5h467q100 0 186.5 -35t143.5 -92t89 -130t32 -149q0 -103 -55.5 -191.5t-168.5 -146.5q113 -62 168.5 -161t55.5 -267v-303h-224v303q0 153 -82 240.5t-243 87.5zM336 844h381q114 0 177.5 64t63.5 149
q0 81 -59.5 143t-167.5 62h-395v-418z" />
    <glyph glyph-name="S" unicode="S" horiz-adv-x="1185" 
d="M68 119l12 233q72 -56 231 -104.5t297 -48.5q125 0 204 59.5t79 177.5q0 50 -28.5 86.5t-77 59t-111 40t-131.5 33.5t-138 35.5t-131.5 50t-111 71.5t-77 107t-28.5 150q0 86 29.5 160t88 133t156.5 93t226 34q208 0 465 -80l-43 -201q-254 68 -410 68q-129 0 -208.5 -49
t-79.5 -158q0 -52 28.5 -89.5t76.5 -59t110.5 -37.5t132 -30t138.5 -31.5t131.5 -47.5t110.5 -72t76.5 -110.5t28.5 -157.5q0 -96 -28.5 -173t-77 -127.5t-116 -84.5t-142.5 -48.5t-160 -14.5q-137 0 -275.5 36t-246.5 97z" />
    <glyph glyph-name="T" unicode="T" horiz-adv-x="1165" 
d="M1135 1262h-441v-1262h-223v1262h-442v213h1106v-213z" />
    <glyph glyph-name="U" unicode="U" horiz-adv-x="1316" 
d="M1214 1475v-969q0 -100 -31 -185.5t-84.5 -146.5t-125 -104t-151.5 -63.5t-165 -20.5t-165 20.5t-151 63.5t-124 104t-84 146.5t-31 185.5v969h224v-969q0 -144 98.5 -225.5t232.5 -81.5q86 0 160.5 33.5t124 105t49.5 168.5v969h223z" />
    <glyph glyph-name="V" unicode="V" horiz-adv-x="1376" 
d="M688 -14q-52 0 -92.5 27t-60.5 79l-519 1383h238l434 -1227l434 1227h238l-518 -1383q-20 -52 -61 -79t-93 -27z" />
    <glyph glyph-name="W" unicode="W" horiz-adv-x="1765" 
d="M883 193q-59 -104 -153 -155.5t-200 -51.5q-108 0 -201.5 51t-154.5 155t-61 242v1041h223v-1039q0 -113 64 -175t153 -62q87 0 153 62t66 175v1039h221v-1039q0 -113 66 -175t153 -62q89 0 153.5 62t64.5 175v1039h223v-1041q0 -104 -35.5 -190.5t-94.5 -142
t-133.5 -85.5t-154.5 -30q-106 0 -199.5 51.5t-152.5 155.5z" />
    <glyph glyph-name="X" unicode="X" horiz-adv-x="1331" 
d="M369 737q-121 57 -192 176.5t-71 247.5v314h224v-299q0 -131 100 -231.5t238 -100.5t238 100.5t100 231.5v299h223v-314q0 -127 -72 -248t-190 -176q118 -55 190 -176t72 -248v-313h-223v299q0 131 -100 231.5t-238 100.5t-238 -100.5t-100 -231.5v-299h-224v313
q0 128 71 247.5t192 176.5z" />
    <glyph glyph-name="Y" unicode="Y" horiz-adv-x="1251" 
d="M737 0h-223v606q-206 42 -335.5 180.5t-129.5 335.5v353h223v-318q0 -157 93 -249.5t258 -92.5t257.5 92.5t92.5 249.5v318h223v-353q0 -197 -127 -335.5t-332 -180.5v-606z" />
    <glyph glyph-name="Z" unicode="Z" horiz-adv-x="1259" 
d="M1085 1159l-745 -946h838v-213h-922q-82 0 -127 52.5t-45 125.5q0 72 43 127l760 957h-762v213h846q91 0 134.5 -41.5t43.5 -106.5q0 -84 -64 -168z" />
    <glyph glyph-name="bracketleft" unicode="[" horiz-adv-x="614" 
d="M109 -133v1454q0 80 56.5 137.5t137.5 57.5h207v-213h-178v-1418h178v-213h-207q-82 0 -138 56.5t-56 138.5z" />
    <glyph glyph-name="backslash" unicode="\" horiz-adv-x="903" 
d="M49 1516h221l592 -1844h-223z" />
    <glyph glyph-name="bracketright" unicode="]" horiz-adv-x="614" 
d="M506 1321v-1454q0 -82 -56.5 -138.5t-138.5 -56.5h-207v213h179v1418h-179v213h207q81 0 138 -57.5t57 -137.5z" />
    <glyph glyph-name="asciicircum" unicode="^" horiz-adv-x="1286" 
d="M643 1260l-354 -465h-264l493 637q47 59 125 59q80 0 127 -59l494 -637h-265z" />
    <glyph glyph-name="underscore" unicode="_" horiz-adv-x="1024" 
d="M963 -213h-893v213h893v-213z" />
    <glyph glyph-name="grave" unicode="`" horiz-adv-x="501" 
d="M446 1186l-219 -19l-192 308l268 22z" />
    <glyph glyph-name="a" unicode="a" 
d="M737 0l-22 113q-107 -127 -256 -127q-92 0 -174.5 43t-137.5 130.5t-55 200.5v308q0 106 54.5 192.5t138 132t174.5 45.5q176 0 258 -118l18 104h195v-1024h-193zM707 422v178q0 101 -65 163t-148 62q-73 0 -126 -48t-53 -140v-254q0 -92 52 -138t125 -46q85 0 150 62
t65 161z" />
    <glyph glyph-name="b" unicode="b" 
d="M317 113l-22 -113h-193v1577h213v-657q106 118 265 118q93 0 174 -42.5t133.5 -127t52.5 -192.5v-316q0 -90 -27.5 -162.5t-74 -118t-105.5 -69.5t-125 -24q-77 0 -153 32.5t-138 94.5zM326 600v-178q0 -99 65 -161t150 -62q73 0 124.5 46t51.5 138v254q0 92 -52.5 140
t-125.5 48q-83 0 -148 -62t-65 -163z" />
    <glyph glyph-name="c" unicode="c" horiz-adv-x="878" 
d="M823 897l-100 -170q-115 98 -229 98q-79 0 -129 -44t-50 -136v-268q0 -85 59 -131.5t136 -46.5q136 0 227 120l115 -174q-67 -76 -155.5 -117.5t-186.5 -41.5q-79 0 -153 25.5t-133.5 73t-95.5 123.5t-36 169v268q0 95 34.5 171.5t92.5 124t130.5 72.5t150.5 25
q194 0 323 -141z" />
    <glyph glyph-name="d" unicode="d" 
d="M737 0l-22 113q-67 -67 -130.5 -97t-140.5 -30q-67 0 -129 24t-112 69t-80.5 118t-30.5 163v316q0 82 30.5 151t81.5 114.5t115.5 71t133.5 25.5q158 0 264 -118v657h213v-1577h-193zM707 422v178q0 101 -65 163t-148 62q-73 0 -126 -48t-53 -140v-254q0 -92 52 -138
t125 -46q85 0 150 62t65 161z" />
    <glyph glyph-name="e" unicode="e" horiz-adv-x="978" 
d="M705 412h-390v-39q0 -91 58 -132.5t147 -41.5q139 0 260 114l111 -168q-66 -76 -167 -117.5t-212 -41.5q-82 0 -156 23.5t-133.5 68.5t-95 118t-35.5 164v275q0 189 112.5 296t295.5 107q78 0 151 -25t133.5 -72t97 -124.5t36.5 -173.5q0 -115 -60 -173t-153 -58z
M315 616h379q-1 91 -57 150t-137 59q-85 0 -135 -58.5t-50 -150.5z" />
    <glyph glyph-name="f" unicode="f" horiz-adv-x="692" 
d="M655 1548l-37 -200q-65 30 -104 30q-46 0 -77 -32.5t-31 -96.5v-225h227v-213h-227v-811h-224v811h-145v213h145v229q0 91 24.5 158.5t67 105.5t93 56t108.5 18q99 0 180 -43z" />
    <glyph glyph-name="g" unicode="g" 
d="M459 1038q176 0 258 -118l18 104h195v-1036q0 -109 -37.5 -199t-101 -147t-145 -88t-171.5 -31q-206 0 -352 143l72 209q67 -67 133 -103t155 -36q99 0 161.5 66t62.5 190v121q-98 -127 -250 -127q-68 0 -133 26.5t-117 73.5t-83.5 118.5t-31.5 155.5v308
q0 106 54.5 192.5t138 132t174.5 45.5zM707 422v178q0 101 -65 163t-148 62q-73 0 -126 -48t-53 -140v-254q0 -92 52 -138t125 -46q85 0 150 62t65 161z" />
    <glyph glyph-name="h" unicode="h" 
d="M940 0h-223v637q0 94 -50 141t-128 47q-83 0 -148 -62t-65 -163v-600h-224v1577h213v-676q103 137 271 137q150 0 252 -96t102 -266v-676z" />
    <glyph glyph-name="i" unicode="i" horiz-adv-x="428" 
d="M59 1382q0 66 45.5 111t108.5 45q66 0 111 -45t45 -111q0 -63 -45 -108t-111 -45q-63 0 -108.5 45t-45.5 108zM326 0h-224v1024h224v-1024z" />
    <glyph glyph-name="j" unicode="j" horiz-adv-x="468" 
d="M100 1382q0 66 45 111t109 45q66 0 111 -45t45 -111q0 -63 -45 -108t-111 -45q-63 0 -108.5 45t-45.5 108zM143 1024h224v-1106q0 -192 -106 -287.5t-275 -95.5q-72 0 -123 10l24 230q63 -17 97 -17q74 0 116.5 50t42.5 157v1059z" />
    <glyph glyph-name="k" unicode="k" horiz-adv-x="964" 
d="M326 387v-387h-224v1577h224v-991q175 0 263.5 89.5t88.5 229.5q0 28 -12 90l225 29q10 -49 10 -115q0 -215 -145 -360q64 -38 102.5 -102t38.5 -140v-307h-223v289q0 86 -94 145q-118 -47 -254 -47z" />
    <glyph glyph-name="l" unicode="l" horiz-adv-x="468" 
d="M346 0h-223v1577h223v-1577z" />
    <glyph glyph-name="m" unicode="m" horiz-adv-x="1517" 
d="M870 0h-223v655q0 83 -45 126.5t-110 43.5q-67 0 -116.5 -47.5t-49.5 -132.5v-645h-224v1024h183l30 -123q34 66 94.5 101.5t129.5 35.5q70 0 134 -37t105 -108q52 73 123.5 109t149.5 36q91 0 173.5 -45t136.5 -133t54 -198v-662h-223v655q0 81 -46.5 125.5t-111.5 44.5
q-67 0 -115.5 -44.5t-48.5 -125.5v-655z" />
    <glyph glyph-name="n" unicode="n" 
d="M940 0h-223v637q0 94 -50 141t-128 47q-83 0 -148 -62t-65 -163v-600h-224v1024h183l30 -123q103 137 271 137q150 0 252 -96t102 -266v-676z" />
    <glyph glyph-name="o" unicode="o" horiz-adv-x="1003" 
d="M305 641v-258q0 -86 58 -135t139 -49q78 0 137 49t59 135v258q0 86 -59 135t-137 49q-81 0 -139 -49t-58 -135zM82 383v258q0 96 35.5 173t95.5 125t134 73.5t155 25.5q80 0 154 -25.5t134 -73.5t96 -125.5t36 -172.5v-258q0 -95 -36 -172.5t-96 -125.5t-134 -73.5
t-154 -25.5q-81 0 -155 25.5t-134 73.5t-95.5 125t-35.5 173z" />
    <glyph glyph-name="p" unicode="p" 
d="M326 125v-576h-224v1475h191l22 -98q101 112 265 112q93 0 174 -42.5t133.5 -127t52.5 -192.5v-316q0 -175 -94.5 -274.5t-229.5 -99.5q-76 0 -152 35.5t-138 103.5zM326 600v-178q0 -99 65 -161t150 -62q73 0 124.5 46t51.5 138v254q0 92 -52.5 140t-125.5 48
q-83 0 -148 -62t-65 -163z" />
    <glyph glyph-name="q" unicode="q" 
d="M707 -451v576q-55 -69 -127.5 -104t-149.5 -35q-65 0 -125.5 25.5t-108 72t-76 118.5t-28.5 158v316q0 82 30.5 151t81.5 114.5t115.5 71t133.5 25.5q163 0 264 -112l22 98h191v-1475h-223zM707 422v178q0 101 -65 163t-148 62q-73 0 -126 -48t-53 -140v-254
q0 -92 52 -138t125 -46q85 0 150 62t65 161z" />
    <glyph glyph-name="r" unicode="r" horiz-adv-x="796" 
d="M750 993l-11 -245q-88 77 -192 77q-88 0 -154.5 -60.5t-66.5 -164.5v-600h-224v1024h183l30 -123q50 66 121 101.5t148 35.5q92 0 166 -45z" />
    <glyph glyph-name="s" unicode="s" horiz-adv-x="841" 
d="M756 981l-35 -201q-153 45 -293 45q-158 0 -158 -94q0 -24 22.5 -43t59.5 -31t84 -26.5t96.5 -29t96.5 -40t84 -58t59.5 -84t22.5 -116.5q0 -70 -21 -124.5t-57 -90t-87.5 -59t-109.5 -33.5t-127 -10q-149 0 -323 43l22 217q48 -16 137 -31.5t166 -15.5t126.5 26.5
t49.5 79.5q0 31 -29 53t-75 37t-102 30.5t-112 38.5t-102 54.5t-75 86t-29 126.5q0 83 28 144t79.5 96t116 51t145.5 16q153 0 340 -57z" />
    <glyph glyph-name="t" unicode="t" horiz-adv-x="694" 
d="M428 811v-481q0 -65 40 -98t99 -33q57 0 86 16v-219q-65 -10 -108 -10q-75 0 -133 15t-106.5 50t-74.5 100t-26 158v502h-172v213h172v244l223 63v-307h231v-213h-231z" />
    <glyph glyph-name="u" unicode="u" horiz-adv-x="1042" 
d="M102 1024h224v-637q0 -91 53 -139.5t125 -48.5q83 0 148 62t65 163v600h223v-1024h-182l-31 137q-53 -73 -127 -112t-154 -39q-139 0 -241.5 100t-102.5 262v676z" />
    <glyph glyph-name="v" unicode="v" horiz-adv-x="1073" 
d="M537 -14q-103 0 -148 104l-364 934h235l277 -797l276 797h236l-365 -934q-45 -104 -147 -104z" />
    <glyph glyph-name="w" unicode="w" horiz-adv-x="1466" 
d="M733 141q-61 -79 -138 -117t-159 -38q-136 0 -235 98t-99 256v684h226v-678q0 -69 43.5 -108t103.5 -39t104 38.5t44 106.5v680h221v-680q0 -68 43.5 -106.5t103.5 -38.5t104 39t44 108v678h225v-684q0 -158 -99 -256t-235 -98q-82 0 -159 38t-138 117z" />
    <glyph glyph-name="x" unicode="x" horiz-adv-x="976" 
d="M258 512q-82 43 -125 122t-43 169v221h223v-209q0 -93 55 -145t130 -52t129.5 52t54.5 145v209h223v-221q0 -90 -43 -169t-125 -122q82 -43 125 -122t43 -169v-221h-223v209q0 93 -54.5 145t-129.5 52t-130 -52t-55 -145v-209h-223v221q0 90 43 169t125 122z" />
    <glyph glyph-name="y" unicode="y" horiz-adv-x="1042" 
d="M717 6v121q-102 -141 -271 -141q-139 0 -241.5 100t-102.5 262v676h224v-637q0 -91 53 -139.5t125 -48.5q83 0 148 62t65 163v600h223v-1036q0 -109 -37.5 -199t-101 -147t-145 -88t-171.5 -31q-109 0 -206.5 38t-165.5 105l71 209q139 -139 310 -139q97 0 160 72.5
t63 197.5z" />
    <glyph glyph-name="z" unicode="z" horiz-adv-x="909" 
d="M770 713l-494 -500h566v-213h-623q-76 0 -123 54t-47 126q0 74 47 121l504 510h-504v213h566q83 0 125 -46.5t42 -115.5q0 -87 -59 -149z" />
    <glyph glyph-name="braceleft" unicode="{" horiz-adv-x="614" 
d="M307 594q71 -52 100 -157t29 -273q0 -54 1 -87.5t4.5 -69t10.5 -55t19 -36.5t29.5 -24t42.5 -7v-213q-66 0 -116.5 13t-85 33t-59 56.5t-38 72.5t-20.5 93t-9 104.5t-2 119.5q0 58 -1.5 95t-8.5 81t-20 73.5t-36 58.5t-57 50v144q34 21 57 50t36 58.5t20 73.5t8.5 81
t1.5 95q0 72 2 119.5t9 104.5t20.5 93t38 72.5t59 56.5t85 33t116.5 13v-213q-25 0 -42.5 -7t-29.5 -24t-19 -36.5t-10.5 -55t-4.5 -69t-1 -87.5q0 -168 -29 -273t-100 -157z" />
    <glyph glyph-name="bar" unicode="|" horiz-adv-x="512" 
d="M371 1516v-1844h-224v1844h224z" />
    <glyph glyph-name="braceright" unicode="}" horiz-adv-x="614" 
d="M307 594q-71 52 -100 157t-29 273q0 55 -1 87.5t-4.5 68.5t-10 55.5t-18.5 36.5t-29.5 24t-42.5 7v213q51 0 93 -7.5t74 -20.5t56.5 -35.5t41.5 -45.5t29 -58.5t19 -67t10.5 -78.5t4.5 -85.5t1 -93.5q0 -58 1.5 -95t8.5 -81t20 -73.5t36 -58.5t57 -50v-144
q-34 -21 -57 -50t-36 -58.5t-20 -73.5t-8.5 -81t-1.5 -95q0 -55 -1 -93.5t-4.5 -85.5t-10.5 -78.5t-19 -67t-29 -58.5t-41.5 -45.5t-56.5 -35.5t-74 -20.5t-93 -7.5v213q25 0 42.5 7t29.5 24t18.5 36.5t10 55.5t4.5 68.5t1 87.5q0 168 29 273t100 157z" />
    <glyph glyph-name="asciitilde" unicode="~" horiz-adv-x="1050" 
d="M213 520l-172 146q43 102 119 163.5t172 61.5q47 0 90 -15t76 -37t64 -44t66.5 -37t71.5 -15q50 0 84 32t70 95l158 -143q-53 -108 -122.5 -153.5t-170.5 -45.5q-49 0 -102 23.5t-92 51.5t-87.5 51.5t-87.5 23.5q-48 0 -84 -47t-53 -111z" />
    <glyph glyph-name="uni00A0" unicode="&#xa0;" horiz-adv-x="2048" 
 />
    <glyph glyph-name="exclamdown" unicode="&#xa1;" horiz-adv-x="428" 
d="M59 1053q0 65 45 110t109 45q66 0 111 -44.5t45 -110.5q0 -63 -45.5 -108.5t-110.5 -45.5q-63 0 -108.5 45.5t-45.5 108.5zM102 766h224v-1047h-224v1047z" />
    <glyph glyph-name="cent" unicode="&#xa2;" horiz-adv-x="878" 
d="M823 897l-100 -170q-115 98 -229 98q-79 0 -129 -44t-50 -136v-268q0 -85 59 -131.5t136 -46.5q136 0 227 120l115 -174q-101 -113 -244 -147v-203h-223v207q-128 35 -210.5 131.5t-82.5 243.5v268q0 152 82 248t211 131v184h223v-182q124 -35 215 -129z" />
    <glyph glyph-name="sterling" unicode="&#xa3;" horiz-adv-x="1118" 
d="M236 213v430h-191v213h191v168q0 109 37.5 199t100.5 147t144.5 88t171.5 31q206 0 352 -143l-71 -209q-67 67 -133.5 103t-155.5 36q-98 0 -160.5 -66t-62.5 -190v-164h340v-213h-340v-430h624v-213h-1038v213h191z" />
    <glyph glyph-name="yen" unicode="&#xa5;" horiz-adv-x="1251" 
d="M1063 453h-875v194h326v76q-206 42 -335.5 180.5t-129.5 335.5v236h223v-201q0 -157 93 -249.5t258 -92.5t257.5 92.5t92.5 249.5v201h223v-236q0 -197 -127 -335.5t-332 -180.5v-76h326v-194zM188 360h875v-194h-326v-166h-223v166h-326v194z" />
    <glyph glyph-name="brokenbar" unicode="&#xa6;" horiz-adv-x="518" 
d="M371 1516v-805h-224v805h224zM371 477v-805h-224v805h224z" />
    <glyph glyph-name="section" unicode="&#xa7;" horiz-adv-x="960" 
d="M817 303q0 -86 -31 -149t-87.5 -99t-126 -52.5t-156.5 -16.5q-150 0 -324 43l23 217q48 -16 137 -31.5t166 -15.5t126.5 26.5t49.5 79.5q0 31 -29 53t-75 37t-102 30.5t-112 38.5t-102 54.5t-75 86t-29 126.5q0 94 49.5 159.5t130.5 100.5q-115 80 -115 191q0 83 28 144
t79.5 96t116 51t145.5 16q143 0 330 -57l-17 -201q-153 45 -301 45q-158 0 -158 -94q0 -24 22.5 -43t59.5 -31t84 -26.5t96.5 -29t96.5 -40t84 -58t59.5 -84t22.5 -116.5q0 -94 -47.5 -161t-126.5 -99q108 -68 108 -191zM293 731q0 -54 51 -84.5t123 -30.5q77 0 134.5 37
t57.5 103q0 59 -51 92t-123 33q-77 0 -134.5 -39.5t-57.5 -110.5z" />
    <glyph glyph-name="dieresis" unicode="&#xa8;" horiz-adv-x="876" 
d="M57 1382q0 66 45.5 111t108.5 45q66 0 111 -45t45 -111q0 -63 -45 -108t-111 -45q-63 0 -108.5 45t-45.5 108zM502 1382q0 66 45 111t108 45q66 0 111 -45t45 -111q0 -63 -45 -108t-111 -45q-63 0 -108 45t-45 108z" />
    <glyph glyph-name="copyright2" unicode="&#xa9;" horiz-adv-x="1804" 
d="M1642 729q0 -151 -58.5 -288.5t-157.5 -236.5t-236.5 -157.5t-288.5 -58.5t-288.5 58.5t-236.5 157.5t-157.5 236.5t-58.5 288.5t58.5 288.5t157.5 236.5t236.5 157.5t288.5 58.5t288.5 -58.5t236.5 -157.5t157.5 -236.5t58.5 -288.5zM1161 1026l-86 -131q-89 68 -157 68
q-64 0 -104 -35.5t-40 -114.5v-147q0 -68 41.5 -102t102.5 -34q115 0 178 84l88 -133q-106 -125 -266 -125q-84 0 -157 32t-122 100.5t-49 160.5v180q0 75 27.5 135t73 97t101.5 56.5t117 19.5q150 0 252 -111zM348 729q0 -149 74 -276t201 -201t276 -74t276 74t201 201
t74 276t-74 276t-201 201t-276 74t-276 -74t-201 -201t-74 -276z" />
    <glyph glyph-name="ordfeminine" unicode="&#xaa;" horiz-adv-x="602" 
d="M104 1294l-28 152q111 43 200 43q250 0 250 -252v-360h-161l-13 41q-65 -56 -133 -56q-71 0 -120.5 51.5t-49.5 143.5q0 89 48 142.5t122 53.5q67 0 127 -43q0 57 -27.5 86t-72.5 29q-59 0 -142 -31zM346 1067q0 22 -18.5 33.5t-44.5 11.5q-25 0 -41.5 -13t-16.5 -38
q0 -45 58 -45q26 0 44.5 13t18.5 38z" />
    <glyph glyph-name="guillemotleft" unicode="&#xab;" horiz-adv-x="1103" 
d="M55 516q0 79 60 127l417 326v-264l-245 -189l245 -188v-265l-417 326q-60 48 -60 127zM547 516q0 80 59 127l418 326v-264l-246 -189l246 -188v-265l-418 326q-59 47 -59 127z" />
    <glyph glyph-name="logicalnot" unicode="&#xac;" horiz-adv-x="1021" 
d="M926 786v-507h-224v294h-630v213h854z" />
    <glyph glyph-name="uni00AD" unicode="&#xad;" horiz-adv-x="794" 
d="M57 670h680v-213h-680v213z" />
    <glyph glyph-name="registered2" unicode="&#xae;" horiz-adv-x="1804" 
d="M918 606h-127v-250h-185v680q0 41 30 71t71 30h213q132 0 219.5 -77t87.5 -179q0 -70 -31 -119.5t-115 -79.5q73 -29 104.5 -77.5t31.5 -127.5v-121h-185v119q0 131 -114 131zM791 780h131q59 0 89.5 23.5t30.5 60.5q0 38 -31.5 63t-90.5 25h-129v-172zM1642 729
q0 -151 -58.5 -288.5t-157.5 -236.5t-236.5 -157.5t-288.5 -58.5t-288.5 58.5t-236.5 157.5t-157.5 236.5t-58.5 288.5t58.5 288.5t157.5 236.5t236.5 157.5t288.5 58.5t288.5 -58.5t236.5 -157.5t157.5 -236.5t58.5 -288.5zM348 729q0 -149 74 -276t201 -201t276 -74
t276 74t201 201t74 276t-74 276t-201 201t-276 74t-276 -74t-201 -201t-74 -276z" />
    <glyph glyph-name="macron" unicode="&#xaf;" horiz-adv-x="849" 
d="M84 1421h680v-213h-680v213z" />
    <glyph glyph-name="degree" unicode="&#xb0;" horiz-adv-x="585" 
d="M51 1243q0 103 71.5 174.5t172.5 71.5q103 0 174.5 -71.5t71.5 -174.5q0 -101 -71.5 -172.5t-174.5 -71.5q-101 0 -172.5 71.5t-71.5 172.5zM199 1243q0 -38 29 -67t67 -29q41 0 68.5 28.5t27.5 67.5q0 41 -27.5 68.5t-68.5 27.5q-39 0 -67.5 -27.5t-28.5 -68.5z" />
    <glyph glyph-name="plusminus" unicode="&#xb1;" horiz-adv-x="1034" 
d="M627 1149v-330h348v-213h-348v-327h-224v327h-346v213h346v330h224zM975 0h-918v203h918v-203z" />
    <glyph glyph-name="twosuperior" unicode="&#xb2;" horiz-adv-x="602" 
d="M119 1266l-33 174q87 49 188 49q94 0 154.5 -48.5t60.5 -146.5q0 -70 -43 -135t-112 -108h176v-174h-344q-39 0 -62.5 34t-23.5 78q0 60 51 94q184 122 184 187q0 47 -53 47q-66 0 -143 -51z" />
    <glyph glyph-name="threesuperior" unicode="&#xb3;" horiz-adv-x="602" 
d="M131 1305l-45 139q85 45 193 45q91 0 153 -43.5t62 -134.5q0 -84 -74 -131q84 -52 84 -131q0 -97 -66.5 -141t-169.5 -44q-110 0 -213 54l49 155q79 -43 166 -43q30 0 46 11.5t16 29.5t-15 29.5t-43 11.5h-90v131h84q29 0 44.5 11t15.5 26q0 18 -17.5 31.5t-48.5 13.5
q-64 0 -131 -20z" />
    <glyph glyph-name="acute" unicode="&#xb4;" horiz-adv-x="481" 
d="M254 1167l-219 19l143 311l268 -22z" />
    <glyph glyph-name="mu" unicode="&#xb5;" horiz-adv-x="1042" 
d="M102 1024h224v-637q0 -91 53 -139.5t125 -48.5q83 0 148 62t65 163v600h223v-1024h-182l-31 137q-55 -71 -124 -111t-142 -40t-135 39v-476h-224v1475z" />
    <glyph glyph-name="paragraph" unicode="&#xb6;" horiz-adv-x="1656" 
d="M1092 1262h-166v-1467h-224v783h-194q-111 0 -201 38.5t-146 103t-86 144t-30 164.5q0 68 18 132t56.5 121.5t92.5 100.5t130.5 68t167.5 25h1077v-213h-272v-1467h-223v1467z" />
    <glyph glyph-name="periodcentered" unicode="&#xb7;" horiz-adv-x="395" 
d="M53 510q0 60 42 102.5t102 42.5t102.5 -42.5t42.5 -102.5t-42.5 -101.5t-102.5 -41.5t-102 41.5t-42 101.5z" />
    <glyph glyph-name="cedilla" unicode="&#xb8;" horiz-adv-x="538" 
d="M158 0h184v-70q162 -44 162 -186q0 -99 -71.5 -154t-194.5 -55q-105 0 -187 29l19 164q82 -29 168 -29q81 0 81 43q0 51 -161 51v207z" />
    <glyph glyph-name="onesuperior" unicode="&#xb9;" horiz-adv-x="602" 
d="M154 1200l-86 152l122 96q53 41 115 41q67 0 113.5 -48.5t46.5 -142.5v-419h-174v436z" />
    <glyph glyph-name="ordmasculine" unicode="&#xba;" horiz-adv-x="602" 
d="M303 868q-100 0 -179 66t-79 182v125q0 116 79 182t179 66t179 -66t79 -182v-125q0 -116 -79 -182t-179 -66zM303 1329q-34 0 -54 -25t-20 -63v-125q0 -38 20 -63t54 -25t54 25t20 63v125q0 38 -20 63t-54 25z" />
    <glyph glyph-name="guillemotright" unicode="&#xbb;" horiz-adv-x="1103" 
d="M1049 516q0 -79 -60 -127l-418 -326v265l246 188l-246 189v264l418 -326q60 -48 60 -127zM557 516q0 -80 -59 -127l-418 -326v265l246 188l-246 189v264l418 -326q59 -47 59 -127z" />
    <glyph glyph-name="onequarter" unicode="&#xbc;" horiz-adv-x="1490" 
d="M897 328l104 188q55 98 177 98q66 0 110.5 -32t44.5 -97v-188h101v-174h-101v-123h-174v123h-155q-62 0 -94.5 35.5t-32.5 87.5q0 49 20 82zM1159 467l-90 -170h90v170zM1217 1475h217l-1115 -1475h-219zM154 1200l-86 152l122 96q53 41 115 41q67 0 113.5 -48.5
t46.5 -142.5v-419h-174v436z" />
    <glyph glyph-name="onehalf" unicode="&#xbd;" horiz-adv-x="1490" 
d="M1217 1475h217l-1115 -1475h-219zM154 1200l-86 152l122 96q53 41 115 41q67 0 113.5 -48.5t46.5 -142.5v-419h-174v436zM1042 375l-32 174q87 49 188 49q94 0 154.5 -48.5t60.5 -146.5q0 -70 -43.5 -135t-112.5 -108h177v-174h-344q-39 0 -62.5 34t-23.5 78q0 61 51 95
q184 122 184 186q0 47 -53 47q-67 0 -144 -51z" />
    <glyph glyph-name="threequarters" unicode="&#xbe;" horiz-adv-x="1490" 
d="M897 328l104 188q55 98 177 98q66 0 110.5 -32t44.5 -97v-188h101v-174h-101v-123h-174v123h-155q-62 0 -94.5 35.5t-32.5 87.5q0 49 20 82zM1159 467l-90 -170h90v170zM1217 1475h217l-1115 -1475h-219zM197 1305l-45 139q85 45 192 45q91 0 153 -43.5t62 -134.5
q0 -84 -74 -131q84 -52 84 -131q0 -97 -66 -141t-169 -44q-110 0 -213 54l49 155q79 -43 166 -43q30 0 45.5 11.5t15.5 29.5t-14.5 29.5t-42.5 11.5h-90v131h84q29 0 44 11t15 26q0 19 -17 32t-48 13q-64 0 -131 -20z" />
    <glyph glyph-name="questiondown" unicode="&#xbf;" horiz-adv-x="858" 
d="M578 358l223 -45q-35 -158 -145 -242.5t-246 -84.5q-92 0 -170 38.5t-129.5 120t-51.5 191.5q0 75 38 162.5t83 153t83 141.5t38 131v135h223v-150q0 -55 -25 -116.5t-60 -116.5t-70.5 -110t-60.5 -115.5t-25 -114.5q0 -66 37 -101.5t92 -35.5q144 0 166 159zM567 1333
q0 -63 -45 -108t-108 -45q-66 0 -111 45t-45 108q0 66 45 111t111 45q63 0 108 -45t45 -111z" />
    <glyph glyph-name="Agrave" unicode="&#xc0;" horiz-adv-x="1323" 
d="M336 727h651v207q0 80 -28.5 146.5t-75 108t-104 64.5t-117.5 23t-117.5 -23t-104.5 -64.5t-75.5 -108t-28.5 -146.5v-207zM987 514h-651v-514h-223v934q0 130 47 237.5t125 175.5t175.5 105t201.5 37t201.5 -37t175 -105t124.5 -175.5t47 -237.5v-934h-223v514z
M866 1636l-219 -18l-192 307l268 23z" />
    <glyph glyph-name="Aacute" unicode="&#xc1;" horiz-adv-x="1323" 
d="M336 727h651v207q0 80 -28.5 146.5t-75 108t-104 64.5t-117.5 23t-117.5 -23t-104.5 -64.5t-75.5 -108t-28.5 -146.5v-207zM987 514h-651v-514h-223v934q0 130 47 237.5t125 175.5t175.5 105t201.5 37t201.5 -37t175 -105t124.5 -175.5t47 -237.5v-934h-223v514z
M727 1618l-219 18l143 312l269 -23z" />
    <glyph glyph-name="Acircumflex" unicode="&#xc2;" horiz-adv-x="1323" 
d="M336 727h651v207q0 80 -28.5 146.5t-75 108t-104 64.5t-117.5 23t-117.5 -23t-104.5 -64.5t-75.5 -108t-28.5 -146.5v-207zM987 514h-651v-514h-223v934q0 130 47 237.5t125 175.5t175.5 105t201.5 37t201.5 -37t175 -105t124.5 -175.5t47 -237.5v-934h-223v514z
M662 1790l-87 -131h-249l211 268q48 60 125 60q76 0 124 -60l211 -268h-249z" />
    <glyph glyph-name="Atilde" unicode="&#xc3;" horiz-adv-x="1323" 
d="M336 727h651v207q0 80 -28.5 146.5t-75 108t-104 64.5t-117.5 23t-117.5 -23t-104.5 -64.5t-75.5 -108t-28.5 -146.5v-207zM987 514h-651v-514h-223v934q0 130 47 237.5t125 175.5t175.5 105t201.5 37t201.5 -37t175 -105t124.5 -175.5t47 -237.5v-934h-223v514z
M545 1753q-30 0 -42.5 -23t-19.5 -75l-159 65q20 112 71.5 170t122.5 58q44 0 94 -27t93.5 -53.5t72.5 -26.5q30 0 42.5 23t19.5 75l159 -65q-20 -112 -71.5 -169.5t-122.5 -57.5q-39 0 -79 16.5t-66.5 36.5t-58 36.5t-56.5 16.5z" />
    <glyph glyph-name="Adieresis" unicode="&#xc4;" horiz-adv-x="1323" 
d="M336 727h651v207q0 80 -28.5 146.5t-75 108t-104 64.5t-117.5 23t-117.5 -23t-104.5 -64.5t-75.5 -108t-28.5 -146.5v-207zM987 514h-651v-514h-223v934q0 130 47 237.5t125 175.5t175.5 105t201.5 37t201.5 -37t175 -105t124.5 -175.5t47 -237.5v-934h-223v514z
M285 1833q0 66 45 111t108 45q66 0 111 -45t45 -111q0 -63 -45 -108.5t-111 -45.5q-63 0 -108 45.5t-45 108.5zM729 1833q0 65 45.5 110.5t108.5 45.5q66 0 110.5 -45t44.5 -111q0 -64 -45 -109t-110 -45q-63 0 -108.5 45.5t-45.5 108.5z" />
    <glyph glyph-name="Aring" unicode="&#xc5;" horiz-adv-x="1323" 
d="M336 727h651v207q0 80 -28.5 146.5t-75 108t-104 64.5t-117.5 23t-117.5 -23t-104.5 -64.5t-75.5 -108t-28.5 -146.5v-207zM987 514h-651v-514h-223v934q0 130 47 237.5t125 175.5t175.5 105t201.5 37t201.5 -37t175 -105t124.5 -175.5t47 -237.5v-934h-223v514z
M473 1800q0 79 54 134t132 55q79 0 134 -54.5t55 -134.5q0 -78 -55 -132t-134 -54q-78 0 -132 54t-54 132zM600 1800q0 -25 17 -42t42 -17t42.5 17t17.5 42t-17.5 42.5t-42.5 17.5t-42 -17.5t-17 -42.5z" />
    <glyph glyph-name="AE" unicode="&#xc6;" horiz-adv-x="2019" 
d="M336 727h651v223q0 76 -29 139.5t-76 103t-104 61.5t-116 22q-60 0 -117.5 -23t-104.5 -64.5t-75.5 -108t-28.5 -146.5v-207zM1980 0h-841q-75 0 -113.5 46.5t-38.5 115.5v352h-651v-514h-223v934q0 125 45.5 230.5t121.5 176t175 109.5t207 39q200 0 335 -143
q0 61 37 95t105 34h813v-213h-742v-388h607v-212h-607v-449h770v-213z" />
    <glyph glyph-name="Ccedilla" unicode="&#xc7;" horiz-adv-x="1073" 
d="M993 362l49 -212q-135 -138 -354 -160v-60q162 -44 162 -186q0 -99 -71.5 -154t-194.5 -55q-105 0 -187 29l19 164q82 -29 168 -29q82 0 82 43q0 51 -162 51v203q-87 14 -162 53t-134 100.5t-92.5 151.5t-33.5 199v454q0 128 44.5 232t119.5 169t169.5 99.5t198.5 34.5
q208 0 385 -127l-71 -203q-147 117 -305 117q-133 0 -225.5 -83t-92.5 -239v-454q0 -77 27 -136.5t74 -94.5t104.5 -52.5t124.5 -17.5q99 0 193.5 41.5t164.5 121.5z" />
    <glyph glyph-name="Egrave" unicode="&#xc8;" horiz-adv-x="1144" 
d="M1106 213v-213h-842q-75 0 -113 46.5t-38 115.5v1151q0 69 38 115.5t113 46.5h813v-213h-741v-388h606v-212h-606v-449h770zM778 1636l-219 -18l-192 307l268 23z" />
    <glyph glyph-name="Eacute" unicode="&#xc9;" horiz-adv-x="1144" 
d="M1106 213v-213h-842q-75 0 -113 46.5t-38 115.5v1151q0 69 38 115.5t113 46.5h813v-213h-741v-388h606v-212h-606v-449h770zM637 1618l-219 18l143 312l268 -23z" />
    <glyph glyph-name="Ecircumflex" unicode="&#xca;" horiz-adv-x="1144" 
d="M1106 213v-213h-842q-75 0 -113 46.5t-38 115.5v1151q0 69 38 115.5t113 46.5h813v-213h-741v-388h606v-212h-606v-449h770zM571 1790l-86 -131h-249l210 268q48 60 125 60t125 -60l211 -268h-250z" />
    <glyph glyph-name="Edieresis" unicode="&#xcb;" horiz-adv-x="1144" 
d="M1106 213v-213h-842q-75 0 -113 46.5t-38 115.5v1151q0 69 38 115.5t113 46.5h813v-213h-741v-388h606v-212h-606v-449h770zM195 1833q0 66 45 111t108 45q66 0 111 -45t45 -111q0 -63 -45 -108.5t-111 -45.5q-63 0 -108 45.5t-45 108.5zM639 1833q0 65 45.5 110.5
t108.5 45.5q66 0 110.5 -45t44.5 -111q0 -64 -45 -109t-110 -45q-63 0 -108.5 45.5t-45.5 108.5z" />
    <glyph glyph-name="Igrave" unicode="&#xcc;" horiz-adv-x="489" 
d="M356 1475v-1475h-223v1475h223zM412 1636l-219 -18l-193 307l268 23z" />
    <glyph glyph-name="Iacute" unicode="&#xcd;" horiz-adv-x="489" 
d="M356 1475v-1475h-223v1475h223zM315 1618l-219 18l144 312l268 -23z" />
    <glyph glyph-name="Icircumflex" unicode="&#xce;" horiz-adv-x="489" 
d="M356 1475v-1475h-223v1475h223zM246 1790l-86 -131h-250l211 268q48 60 125 60t125 -60l211 -268h-250z" />
    <glyph glyph-name="Idieresis" unicode="&#xcf;" horiz-adv-x="489" 
d="M356 1475v-1475h-223v1475h223zM-113 1833q0 65 45.5 110.5t108.5 45.5q66 0 111 -45t45 -111q0 -63 -45.5 -108.5t-110.5 -45.5q-63 0 -108.5 45.5t-45.5 108.5zM293 1833q0 66 45 111t108 45q66 0 111 -45t45 -111q0 -63 -45 -108.5t-111 -45.5q-63 0 -108 45.5
t-45 108.5z" />
    <glyph glyph-name="Eth" unicode="&#xd0;" horiz-adv-x="1298" 
d="M156 627h-156v213h156v473q0 69 38 115.5t113 46.5h322q141 0 256.5 -58.5t191.5 -160t117 -236.5t41 -289q0 -114 -23.5 -221t-71 -199.5t-113.5 -162t-157 -109t-196 -39.5h-367q-75 0 -113 46.5t-38 115.5v465zM629 1262h-250v-422h317v-213h-317v-414h295
q102 0 180.5 73.5t118 190.5t39.5 254q0 145 -46 265t-134 193t-203 73z" />
    <glyph glyph-name="Ntilde" unicode="&#xd1;" horiz-adv-x="1306" 
d="M786 106l-450 1121v-1227h-223v1317q0 81 58 126.5t138 45.5q75 0 124.5 -26.5t78.5 -98.5l459 -1128v1239h223v-1311q0 -86 -59 -132t-140 -46q-69 0 -127 31t-82 89zM537 1753q-30 0 -42.5 -23t-19.5 -75l-160 65q20 112 72 170t123 58q44 0 94 -27t93.5 -53.5
t72.5 -26.5q30 0 42 22.5t19 75.5l160 -65q-20 -112 -71.5 -169.5t-122.5 -57.5q-39 0 -79 16.5t-66.5 36.5t-58 36.5t-56.5 16.5z" />
    <glyph glyph-name="Ograve" unicode="&#xd2;" horiz-adv-x="1294" 
d="M92 528v418q0 103 31 191.5t84 152t124 109t151.5 68t164.5 22.5t164 -22.5t150.5 -68t124.5 -109t85 -152.5t31 -191v-418q0 -127 -47.5 -232t-126.5 -171.5t-177.5 -102.5t-203.5 -36q-106 0 -204.5 36t-177.5 102.5t-126 171.5t-47 232zM979 528v418q0 78 -28.5 142
t-75.5 104t-106 62t-122 22t-122 -22t-106 -62t-75.5 -104t-28.5 -142v-418q0 -103 49 -179.5t123 -113t160 -36.5t160 36.5t123 113t49 179.5zM852 1636l-219 -18l-193 307l269 23z" />
    <glyph glyph-name="Oacute" unicode="&#xd3;" horiz-adv-x="1294" 
d="M92 528v418q0 103 31 191.5t84 152t124 109t151.5 68t164.5 22.5t164 -22.5t150.5 -68t124.5 -109t85 -152.5t31 -191v-418q0 -127 -47.5 -232t-126.5 -171.5t-177.5 -102.5t-203.5 -36q-106 0 -204.5 36t-177.5 102.5t-126 171.5t-47 232zM979 528v418q0 78 -28.5 142
t-75.5 104t-106 62t-122 22t-122 -22t-106 -62t-75.5 -104t-28.5 -142v-418q0 -103 49 -179.5t123 -113t160 -36.5t160 36.5t123 113t49 179.5zM702 1618l-219 18l144 312l268 -23z" />
    <glyph glyph-name="Ocircumflex" unicode="&#xd4;" horiz-adv-x="1294" 
d="M92 528v418q0 103 31 191.5t84 152t124 109t151.5 68t164.5 22.5t164 -22.5t150.5 -68t124.5 -109t85 -152.5t31 -191v-418q0 -127 -47.5 -232t-126.5 -171.5t-177.5 -102.5t-203.5 -36q-106 0 -204.5 36t-177.5 102.5t-126 171.5t-47 232zM979 528v418q0 78 -28.5 142
t-75.5 104t-106 62t-122 22t-122 -22t-106 -62t-75.5 -104t-28.5 -142v-418q0 -103 49 -179.5t123 -113t160 -36.5t160 36.5t123 113t49 179.5zM647 1790l-86 -131h-250l211 268q48 60 125 60t125 -60l211 -268h-250z" />
    <glyph glyph-name="Otilde" unicode="&#xd5;" horiz-adv-x="1294" 
d="M92 528v418q0 103 31 191.5t84 152t124 109t151.5 68t164.5 22.5t164 -22.5t150.5 -68t124.5 -109t85 -152.5t31 -191v-418q0 -127 -47.5 -232t-126.5 -171.5t-177.5 -102.5t-203.5 -36q-106 0 -204.5 36t-177.5 102.5t-126 171.5t-47 232zM979 528v418q0 78 -28.5 142
t-75.5 104t-106 62t-122 22t-122 -22t-106 -62t-75.5 -104t-28.5 -142v-418q0 -103 49 -179.5t123 -113t160 -36.5t160 36.5t123 113t49 179.5zM530 1753q-30 0 -42 -22.5t-19 -75.5l-160 65q20 112 72 170t123 58q44 0 94 -27t93.5 -53.5t72.5 -26.5q30 0 42 22.5t19 75.5
l160 -65q-20 -112 -71.5 -169.5t-122.5 -57.5q-50 0 -99 26.5t-90 53t-72 26.5z" />
    <glyph glyph-name="Odieresis" unicode="&#xd6;" horiz-adv-x="1294" 
d="M92 528v418q0 103 31 191.5t84 152t124 109t151.5 68t164.5 22.5t164 -22.5t150.5 -68t124.5 -109t85 -152.5t31 -191v-418q0 -127 -47.5 -232t-126.5 -171.5t-177.5 -102.5t-203.5 -36q-106 0 -204.5 36t-177.5 102.5t-126 171.5t-47 232zM979 528v418q0 78 -28.5 142
t-75.5 104t-106 62t-122 22t-122 -22t-106 -62t-75.5 -104t-28.5 -142v-418q0 -103 49 -179.5t123 -113t160 -36.5t160 36.5t123 113t49 179.5zM270 1833q0 65 45 110.5t109 45.5q66 0 111 -45t45 -111q0 -63 -45 -108.5t-111 -45.5q-63 0 -108.5 45.5t-45.5 108.5z
M715 1833q0 66 45 111t108 45q66 0 111 -45t45 -111q0 -63 -45 -108.5t-111 -45.5q-63 0 -108 45.5t-45 108.5z" />
    <glyph glyph-name="multiply2" unicode="&#xd7;" horiz-adv-x="1122" 
d="M420 692l-344 451h274l209 -273l209 273h276l-350 -451l350 -450h-276l-209 272l-209 -272h-274z" />
    <glyph glyph-name="Oslash" unicode="&#xd8;" horiz-adv-x="1294" 
d="M985 1577h221l-137 -268q133 -146 133 -363v-418q0 -127 -47.5 -232t-126.5 -171.5t-177.5 -102.5t-203.5 -36q-130 0 -235 47l-70 -135h-223l127 245q-154 144 -154 385v418q0 103 31 191.5t84 152t124 109t151.5 68t164.5 22.5q138 0 262 -62zM647 1276q-63 0 -122 -22
t-106 -62t-75.5 -104t-28.5 -142v-418q0 -99 41 -170l453 877q-77 41 -162 41zM979 528v418q0 68 -27 137l-442 -858q59 -26 137 -26q86 0 160 36.5t123 113t49 179.5z" />
    <glyph glyph-name="Ugrave" unicode="&#xd9;" horiz-adv-x="1316" 
d="M1214 1475v-969q0 -100 -31 -185.5t-84.5 -146.5t-125 -104t-151.5 -63.5t-165 -20.5t-165 20.5t-151 63.5t-124 104t-84 146.5t-31 185.5v969h224v-969q0 -144 98.5 -225.5t232.5 -81.5q86 0 160.5 33.5t124 105t49.5 168.5v969h223zM864 1636l-219 -18l-192 307l268 23
z" />
    <glyph glyph-name="Uacute" unicode="&#xda;" horiz-adv-x="1316" 
d="M1214 1475v-969q0 -100 -31 -185.5t-84.5 -146.5t-125 -104t-151.5 -63.5t-165 -20.5t-165 20.5t-151 63.5t-124 104t-84 146.5t-31 185.5v969h224v-969q0 -144 98.5 -225.5t232.5 -81.5q86 0 160.5 33.5t124 105t49.5 168.5v969h223zM741 1618l-219 18l144 312l268 -23z
" />
    <glyph glyph-name="Ucircumflex" unicode="&#xdb;" horiz-adv-x="1316" 
d="M1214 1475v-969q0 -100 -31 -185.5t-84.5 -146.5t-125 -104t-151.5 -63.5t-165 -20.5t-165 20.5t-151 63.5t-124 104t-84 146.5t-31 185.5v969h224v-969q0 -144 98.5 -225.5t232.5 -81.5q86 0 160.5 33.5t124 105t49.5 168.5v969h223zM657 1790l-86 -131h-249l210 268
q48 60 125 60t125 -60l211 -268h-250z" />
    <glyph glyph-name="Udieresis" unicode="&#xdc;" horiz-adv-x="1316" 
d="M1214 1475v-969q0 -100 -31 -185.5t-84.5 -146.5t-125 -104t-151.5 -63.5t-165 -20.5t-165 20.5t-151 63.5t-124 104t-84 146.5t-31 185.5v969h224v-969q0 -144 98.5 -225.5t232.5 -81.5q86 0 160.5 33.5t124 105t49.5 168.5v969h223zM281 1833q0 66 45 111t108 45
q66 0 111 -45t45 -111q0 -63 -45 -108.5t-111 -45.5q-63 0 -108 45.5t-45 108.5zM725 1833q0 65 45.5 110.5t108.5 45.5q66 0 110.5 -45t44.5 -111q0 -64 -45 -109t-110 -45q-63 0 -108.5 45.5t-45.5 108.5z" />
    <glyph glyph-name="Yacute" unicode="&#xdd;" horiz-adv-x="1251" 
d="M737 0h-223v606q-206 42 -335.5 180.5t-129.5 335.5v353h223v-318q0 -157 93 -249.5t258 -92.5t257.5 92.5t92.5 249.5v318h223v-353q0 -197 -127 -335.5t-332 -180.5v-606zM690 1618l-219 18l143 312l269 -23z" />
    <glyph glyph-name="Thorn" unicode="&#xde;" horiz-adv-x="1144" 
d="M336 500h272q118 0 187 74t69 169q0 90 -63.5 159t-177.5 69h-287v-471zM336 1475v-291h287q91 0 167.5 -25t130.5 -68t92 -100.5t56 -121.5t18 -132q0 -85 -29.5 -164.5t-85.5 -144t-146 -103t-201 -38.5h-289v-287h-223v1475h223z" />
    <glyph glyph-name="germandbls" unicode="&#xdf;" horiz-adv-x="1112" 
d="M1071 303q0 -85 -31.5 -148.5t-86 -99t-121 -52.5t-144.5 -17q-117 0 -244 43l23 217q56 -26 100 -36.5t103 -10.5q75 0 126.5 26.5t51.5 79.5q0 59 -34 115t-88.5 97.5t-105.5 69.5t-102 48v213q95 19 156 82t61 147q0 81 -52 140t-148 59q-80 0 -139.5 -53t-59.5 -146
v-1077h-223v1081q0 98 35.5 177.5t95.5 129t135 75.5t156 26q126 0 224.5 -57.5t148.5 -147.5t50 -194q0 -101 -51 -193.5t-153 -159.5q317 -178 317 -434z" />
    <glyph glyph-name="agrave" unicode="&#xe0;" 
d="M737 0l-22 113q-107 -127 -256 -127q-92 0 -174.5 43t-137.5 130.5t-55 200.5v308q0 106 54.5 192.5t138 132t174.5 45.5q176 0 258 -118l18 104h195v-1024h-193zM707 422v178q0 101 -65 163t-148 62q-73 0 -126 -48t-53 -140v-254q0 -92 52 -138t125 -46q85 0 150 62
t65 161zM721 1186l-219 -19l-193 308l269 22z" />
    <glyph glyph-name="aacute" unicode="&#xe1;" 
d="M737 0l-22 113q-107 -127 -256 -127q-92 0 -174.5 43t-137.5 130.5t-55 200.5v308q0 106 54.5 192.5t138 132t174.5 45.5q176 0 258 -118l18 104h195v-1024h-193zM707 422v178q0 101 -65 163t-148 62q-73 0 -126 -48t-53 -140v-254q0 -92 52 -138t125 -46q85 0 150 62
t65 161zM571 1167l-219 19l144 311l268 -22z" />
    <glyph glyph-name="acircumflex" unicode="&#xe2;" 
d="M737 0l-22 113q-107 -127 -256 -127q-92 0 -174.5 43t-137.5 130.5t-55 200.5v308q0 106 54.5 192.5t138 132t174.5 45.5q176 0 258 -118l18 104h195v-1024h-193zM707 422v178q0 101 -65 163t-148 62q-73 0 -126 -48t-53 -140v-254q0 -92 52 -138t125 -46q85 0 150 62
t65 161zM516 1339l-86 -131h-250l211 269q47 59 125 59t125 -59l211 -269h-250z" />
    <glyph glyph-name="atilde" unicode="&#xe3;" 
d="M737 0l-22 113q-107 -127 -256 -127q-92 0 -174.5 43t-137.5 130.5t-55 200.5v308q0 106 54.5 192.5t138 132t174.5 45.5q176 0 258 -118l18 104h195v-1024h-193zM707 422v178q0 101 -65 163t-148 62q-73 0 -126 -48t-53 -140v-254q0 -92 52 -138t125 -46q85 0 150 62
t65 161zM399 1303q-30 0 -42 -23t-19 -76l-160 66q20 112 71.5 169.5t123.5 57.5q44 0 94 -26.5t93.5 -53t72.5 -26.5q30 0 42 22.5t19 75.5l160 -66q-20 -112 -71.5 -169.5t-123.5 -57.5q-50 0 -99 27t-89.5 53.5t-71.5 26.5z" />
    <glyph glyph-name="adieresis" unicode="&#xe4;" 
d="M737 0l-22 113q-107 -127 -256 -127q-92 0 -174.5 43t-137.5 130.5t-55 200.5v308q0 106 54.5 192.5t138 132t174.5 45.5q176 0 258 -118l18 104h195v-1024h-193zM707 422v178q0 101 -65 163t-148 62q-73 0 -126 -48t-53 -140v-254q0 -92 52 -138t125 -46q85 0 150 62
t65 161zM139 1382q0 66 45.5 111t108.5 45q66 0 111 -45t45 -111q0 -63 -45 -108t-111 -45q-63 0 -108.5 45t-45.5 108zM584 1382q0 66 45 111t108 45q66 0 111 -45t45 -111q0 -63 -45 -108t-111 -45q-63 0 -108 45t-45 108z" />
    <glyph glyph-name="aring" unicode="&#xe5;" 
d="M737 0l-22 113q-107 -127 -256 -127q-92 0 -174.5 43t-137.5 130.5t-55 200.5v308q0 106 54.5 192.5t138 132t174.5 45.5q176 0 258 -118l18 104h195v-1024h-193zM707 422v178q0 101 -65 163t-148 62q-73 0 -126 -48t-53 -140v-254q0 -92 52 -138t125 -46q85 0 150 62
t65 161zM328 1350q0 79 54 133.5t132 54.5q80 0 134 -54t54 -134q0 -78 -54.5 -132.5t-133.5 -54.5q-78 0 -132 54.5t-54 132.5zM455 1350q0 -25 17 -42.5t42 -17.5t42 17.5t17 42.5t-17 42t-42 17t-42 -17t-17 -42z" />
    <glyph glyph-name="ae" unicode="&#xe6;" horiz-adv-x="1527" 
d="M1253 412h-389v-39q0 -91 58 -132.5t147 -41.5q139 0 260 114l111 -168q-66 -76 -167 -117.5t-212 -41.5q-194 0 -313 149q-59 -72 -152 -110.5t-188 -38.5q-107 0 -186 48t-116.5 120t-37.5 155q0 125 86.5 216t242.5 91h244v43q0 83 -54 124.5t-138 41.5
q-141 0 -267 -102l-69 197q165 118 333 118q82 0 162.5 -35.5t139.5 -101.5q113 137 301 137q78 0 151 -25t133 -72t96.5 -124.5t36.5 -173.5q0 -115 -60 -173t-153 -58zM864 616h379q-1 91 -57 150t-137 59q-85 0 -135 -58.5t-50 -150.5zM641 365v47h-235q-57 0 -86 -29.5
t-29 -75.5q0 -50 34 -79t103 -29q53 0 98.5 16.5t78.5 55t36 94.5z" />
    <glyph glyph-name="ccedilla" unicode="&#xe7;" horiz-adv-x="878" 
d="M823 897l-100 -170q-115 98 -229 98q-79 0 -129 -44t-50 -136v-268q0 -85 59 -131.5t136 -46.5q136 0 227 120l115 -174q-115 -127 -262 -151v-64q162 -44 162 -186q0 -99 -72 -154t-195 -55q-104 0 -186 29l18 164q82 -29 168 -29q82 0 82 43q0 51 -161 51v205
q-134 26 -224 126.5t-90 252.5v268q0 95 34.5 171.5t92.5 124t130.5 72.5t150.5 25q194 0 323 -141z" />
    <glyph glyph-name="egrave" unicode="&#xe8;" horiz-adv-x="978" 
d="M705 412h-390v-39q0 -91 58 -132.5t147 -41.5q139 0 260 114l111 -168q-66 -76 -167 -117.5t-212 -41.5q-82 0 -156 23.5t-133.5 68.5t-95 118t-35.5 164v275q0 189 112.5 296t295.5 107q78 0 151 -25t133.5 -72t97 -124.5t36.5 -173.5q0 -115 -60 -173t-153 -58z
M315 616h379q-1 91 -57 150t-137 59q-85 0 -135 -58.5t-50 -150.5zM694 1186l-219 -19l-192 308l268 22z" />
    <glyph glyph-name="eacute" unicode="&#xe9;" horiz-adv-x="978" 
d="M705 412h-390v-39q0 -91 58 -132.5t147 -41.5q139 0 260 114l111 -168q-66 -76 -167 -117.5t-212 -41.5q-82 0 -156 23.5t-133.5 68.5t-95 118t-35.5 164v275q0 189 112.5 296t295.5 107q78 0 151 -25t133.5 -72t97 -124.5t36.5 -173.5q0 -115 -60 -173t-153 -58z
M315 616h379q-1 91 -57 150t-137 59q-85 0 -135 -58.5t-50 -150.5zM539 1167l-220 19l144 311l268 -22z" />
    <glyph glyph-name="ecircumflex" unicode="&#xea;" horiz-adv-x="978" 
d="M705 412h-390v-39q0 -91 58 -132.5t147 -41.5q139 0 260 114l111 -168q-66 -76 -167 -117.5t-212 -41.5q-82 0 -156 23.5t-133.5 68.5t-95 118t-35.5 164v275q0 189 112.5 296t295.5 107q78 0 151 -25t133.5 -72t97 -124.5t36.5 -173.5q0 -115 -60 -173t-153 -58z
M315 616h379q-1 91 -57 150t-137 59q-85 0 -135 -58.5t-50 -150.5zM489 1339l-86 -131h-249l211 269q47 59 124 59q78 0 125 -59l211 -269h-250z" />
    <glyph glyph-name="edieresis" unicode="&#xeb;" horiz-adv-x="978" 
d="M705 412h-390v-39q0 -91 58 -132.5t147 -41.5q139 0 260 114l111 -168q-66 -76 -167 -117.5t-212 -41.5q-82 0 -156 23.5t-133.5 68.5t-95 118t-35.5 164v275q0 189 112.5 296t295.5 107q78 0 151 -25t133.5 -72t97 -124.5t36.5 -173.5q0 -115 -60 -173t-153 -58z
M315 616h379q-1 91 -57 150t-137 59q-85 0 -135 -58.5t-50 -150.5zM113 1382q0 66 45 111t108 45q66 0 111 -45t45 -111q0 -63 -45 -108t-111 -45q-63 0 -108 45t-45 108zM557 1382q0 66 45.5 111t108.5 45q66 0 110.5 -45t44.5 -111q0 -64 -45 -108.5t-110 -44.5
q-63 0 -108.5 45t-45.5 108z" />
    <glyph glyph-name="igrave" unicode="&#xec;" horiz-adv-x="428" 
d="M326 0h-224v1024h224v-1024zM379 1186l-219 -19l-193 308l269 22z" />
    <glyph glyph-name="iacute" unicode="&#xed;" horiz-adv-x="428" 
d="M326 0h-224v1024h224v-1024zM274 1167l-219 19l144 311l268 -22z" />
    <glyph glyph-name="icircumflex" unicode="&#xee;" horiz-adv-x="428" 
d="M326 0h-224v1024h224v-1024zM215 1339l-86 -131h-250l211 269q47 59 125 59t125 -59l211 -269h-250z" />
    <glyph glyph-name="idieresis" unicode="&#xef;" horiz-adv-x="428" 
d="M326 0h-224v1024h224v-1024zM-145 1382q0 66 45 111t108 45q66 0 111 -45t45 -111q0 -63 -45 -108t-111 -45q-63 0 -108 45t-45 108zM266 1382q0 66 45 111t109 45q66 0 110.5 -45t44.5 -111q0 -64 -44.5 -108.5t-110.5 -44.5q-63 0 -108.5 45t-45.5 108z" />
    <glyph glyph-name="eth" unicode="&#xf0;" horiz-adv-x="1003" 
d="M244 1307l-88 178q135 106 311 106q47 0 88 -8l45 96h207l-78 -163q90 -59 141.5 -159t51.5 -231v-743q0 -95 -36 -172.5t-96 -125.5t-134 -73.5t-154 -25.5q-81 0 -155 25.5t-134 73.5t-95.5 125t-35.5 173v258q0 88 32.5 163.5t86.5 126t123.5 79t142.5 28.5
q130 0 231 -88v172q0 121 -63 197l-51 -111h-209l88 185q-125 -8 -219 -86zM305 641v-258q0 -86 58 -135t139 -49q78 0 137 49t59 135v258q0 86 -59 135t-137 49q-81 0 -139 -49t-58 -135z" />
    <glyph glyph-name="ntilde" unicode="&#xf1;" 
d="M940 0h-223v637q0 94 -50 141t-128 47q-83 0 -148 -62t-65 -163v-600h-224v1024h183l30 -123q103 137 271 137q150 0 252 -96t102 -266v-676zM399 1303q-30 0 -42 -23t-19 -76l-160 66q20 112 71.5 169.5t123.5 57.5q44 0 94 -26.5t93.5 -53t72.5 -26.5q30 0 42 22.5
t19 75.5l160 -66q-20 -112 -71.5 -169.5t-123.5 -57.5q-50 0 -99 27t-89.5 53.5t-71.5 26.5z" />
    <glyph glyph-name="ograve" unicode="&#xf2;" horiz-adv-x="1003" 
d="M305 641v-258q0 -86 58 -135t139 -49q78 0 137 49t59 135v258q0 86 -59 135t-137 49q-81 0 -139 -49t-58 -135zM82 383v258q0 96 35.5 173t95.5 125t134 73.5t155 25.5q80 0 154 -25.5t134 -73.5t96 -125.5t36 -172.5v-258q0 -95 -36 -172.5t-96 -125.5t-134 -73.5
t-154 -25.5q-81 0 -155 25.5t-134 73.5t-95.5 125t-35.5 173zM707 1186l-220 -19l-192 308l268 22z" />
    <glyph glyph-name="oacute" unicode="&#xf3;" horiz-adv-x="1003" 
d="M305 641v-258q0 -86 58 -135t139 -49q78 0 137 49t59 135v258q0 86 -59 135t-137 49q-81 0 -139 -49t-58 -135zM82 383v258q0 96 35.5 173t95.5 125t134 73.5t155 25.5q80 0 154 -25.5t134 -73.5t96 -125.5t36 -172.5v-258q0 -95 -36 -172.5t-96 -125.5t-134 -73.5
t-154 -25.5q-81 0 -155 25.5t-134 73.5t-95.5 125t-35.5 173zM575 1167l-219 19l144 311l268 -22z" />
    <glyph glyph-name="ocircumflex" unicode="&#xf4;" horiz-adv-x="1003" 
d="M305 641v-258q0 -86 58 -135t139 -49q78 0 137 49t59 135v258q0 86 -59 135t-137 49q-81 0 -139 -49t-58 -135zM82 383v258q0 96 35.5 173t95.5 125t134 73.5t155 25.5q80 0 154 -25.5t134 -73.5t96 -125.5t36 -172.5v-258q0 -95 -36 -172.5t-96 -125.5t-134 -73.5
t-154 -25.5q-81 0 -155 25.5t-134 73.5t-95.5 125t-35.5 173zM502 1339l-86 -131h-250l211 269q47 59 125 59t125 -59l211 -269h-250z" />
    <glyph glyph-name="otilde" unicode="&#xf5;" horiz-adv-x="1003" 
d="M305 641v-258q0 -86 58 -135t139 -49q78 0 137 49t59 135v258q0 86 -59 135t-137 49q-81 0 -139 -49t-58 -135zM82 383v258q0 96 35.5 173t95.5 125t134 73.5t155 25.5q80 0 154 -25.5t134 -73.5t96 -125.5t36 -172.5v-258q0 -95 -36 -172.5t-96 -125.5t-134 -73.5
t-154 -25.5q-81 0 -155 25.5t-134 73.5t-95.5 125t-35.5 173zM385 1303q-30 0 -42 -23t-19 -76l-160 66q20 112 71.5 169.5t122.5 57.5q44 0 94 -26.5t93.5 -53t72.5 -26.5q30 0 42.5 23t19.5 75l160 -66q-20 -112 -71.5 -169.5t-123.5 -57.5q-50 0 -99 27t-89.5 53.5
t-71.5 26.5z" />
    <glyph glyph-name="odieresis" unicode="&#xf6;" horiz-adv-x="1003" 
d="M305 641v-258q0 -86 58 -135t139 -49q78 0 137 49t59 135v258q0 86 -59 135t-137 49q-81 0 -139 -49t-58 -135zM82 383v258q0 96 35.5 173t95.5 125t134 73.5t155 25.5q80 0 154 -25.5t134 -73.5t96 -125.5t36 -172.5v-258q0 -95 -36 -172.5t-96 -125.5t-134 -73.5
t-154 -25.5q-81 0 -155 25.5t-134 73.5t-95.5 125t-35.5 173zM125 1382q0 66 45.5 111t108.5 45q66 0 110.5 -45t44.5 -111q0 -64 -45 -108.5t-110 -44.5q-63 0 -108.5 45t-45.5 108zM569 1382q0 66 45.5 111t108.5 45q66 0 111 -45t45 -111q0 -63 -45 -108t-111 -45
q-63 0 -108.5 45t-45.5 108z" />
    <glyph glyph-name="divide2" unicode="&#xf7;" horiz-adv-x="1161" 
d="M1096 580h-1010v213h1010v-213zM434 344q0 69 46.5 115.5t115.5 46.5t115.5 -46.5t46.5 -115.5t-46.5 -115.5t-115.5 -46.5t-115.5 46.5t-46.5 115.5zM434 1024q0 69 46.5 115.5t115.5 46.5t115.5 -46.5t46.5 -115.5t-46.5 -115.5t-115.5 -46.5t-115.5 46.5t-46.5 115.5z
" />
    <glyph glyph-name="oslash" unicode="&#xf8;" horiz-adv-x="1003" 
d="M657 1126h222l-88 -188q131 -108 131 -297v-258q0 -95 -36 -172.5t-96 -125.5t-134 -73.5t-154 -25.5q-71 0 -148 22l-51 -110h-223l102 217q-100 105 -100 268v258q0 96 35.5 173t95.5 125t134 73.5t155 25.5q52 0 108 -12zM502 199q78 0 137 49t59 135v258q0 32 -14 72
l-238 -508q27 -6 56 -6zM305 641v-264l211 448h-14q-81 0 -139 -49t-58 -135z" />
    <glyph glyph-name="ugrave" unicode="&#xf9;" horiz-adv-x="1042" 
d="M102 1024h224v-637q0 -91 53 -139.5t125 -48.5q83 0 148 62t65 163v600h223v-1024h-182l-31 137q-53 -73 -127 -112t-154 -39q-139 0 -241.5 100t-102.5 262v676zM727 1186l-219 -19l-193 308l269 22z" />
    <glyph glyph-name="uacute" unicode="&#xfa;" horiz-adv-x="1042" 
d="M102 1024h224v-637q0 -91 53 -139.5t125 -48.5q83 0 148 62t65 163v600h223v-1024h-182l-31 137q-53 -73 -127 -112t-154 -39q-139 0 -241.5 100t-102.5 262v676zM598 1167l-219 19l143 311l269 -22z" />
    <glyph glyph-name="ucircumflex" unicode="&#xfb;" horiz-adv-x="1042" 
d="M102 1024h224v-637q0 -91 53 -139.5t125 -48.5q83 0 148 62t65 163v600h223v-1024h-182l-31 137q-53 -73 -127 -112t-154 -39q-139 0 -241.5 100t-102.5 262v676zM520 1339l-86 -131h-250l211 269q47 59 125 59t125 -59l211 -269h-250z" />
    <glyph glyph-name="udieresis" unicode="&#xfc;" horiz-adv-x="1042" 
d="M102 1024h224v-637q0 -91 53 -139.5t125 -48.5q83 0 148 62t65 163v600h223v-1024h-182l-31 137q-53 -73 -127 -112t-154 -39q-139 0 -241.5 100t-102.5 262v676zM143 1382q0 66 45.5 111t108.5 45q66 0 111 -45t45 -111q0 -63 -45 -108t-111 -45q-63 0 -108.5 45
t-45.5 108zM588 1382q0 66 45 111t108 45q66 0 111 -45t45 -111q0 -63 -45 -108t-111 -45q-63 0 -108 45t-45 108z" />
    <glyph glyph-name="yacute" unicode="&#xfd;" horiz-adv-x="1042" 
d="M717 6v121q-102 -141 -271 -141q-139 0 -241.5 100t-102.5 262v676h224v-637q0 -91 53 -139.5t125 -48.5q83 0 148 62t65 163v600h223v-1036q0 -109 -37.5 -199t-101 -147t-145 -88t-171.5 -31q-109 0 -206.5 38t-165.5 105l71 209q139 -139 310 -139q97 0 160 72.5
t63 197.5zM610 1167l-219 19l144 311l268 -22z" />
    <glyph glyph-name="thorn" unicode="&#xfe;" 
d="M317 113v-564h-215v2028h213v-657q106 118 265 118q93 0 174 -42.5t133.5 -127t52.5 -192.5v-316q0 -90 -27.5 -162.5t-74 -118t-105.5 -69.5t-125 -24q-77 0 -153 32.5t-138 94.5zM326 600v-178q0 -99 65 -161t150 -62q73 0 124.5 46t51.5 138v254q0 92 -52.5 140
t-125.5 48q-83 0 -148 -62t-65 -163z" />
    <glyph glyph-name="ydieresis" unicode="&#xff;" horiz-adv-x="1042" 
d="M717 6v121q-102 -141 -271 -141q-139 0 -241.5 100t-102.5 262v676h224v-637q0 -91 53 -139.5t125 -48.5q83 0 148 62t65 163v600h223v-1036q0 -109 -37.5 -199t-101 -147t-145 -88t-171.5 -31q-109 0 -206.5 38t-165.5 105l71 209q139 -139 310 -139q97 0 160 72.5
t63 197.5zM143 1382q0 66 45.5 111t108.5 45q66 0 111 -45t45 -111q0 -63 -45 -108t-111 -45q-63 0 -108.5 45t-45.5 108zM588 1382q0 66 45 111t108 45q66 0 111 -45t45 -111q0 -63 -45 -108t-111 -45q-63 0 -108 45t-45 108z" />
    <glyph glyph-name="Amacron" unicode="&#x100;" horiz-adv-x="1323" 
d="M336 727h651v207q0 80 -28.5 146.5t-75 108t-104 64.5t-117.5 23t-117.5 -23t-104.5 -64.5t-75.5 -108t-28.5 -146.5v-207zM987 514h-651v-514h-223v934q0 130 47 237.5t125 175.5t175.5 105t201.5 37t201.5 -37t175 -105t124.5 -175.5t47 -237.5v-934h-223v514z
M322 1872h679v-213h-679v213z" />
    <glyph glyph-name="amacron" unicode="&#x101;" 
d="M737 0l-22 113q-107 -127 -256 -127q-92 0 -174.5 43t-137.5 130.5t-55 200.5v308q0 106 54.5 192.5t138 132t174.5 45.5q176 0 258 -118l18 104h195v-1024h-193zM707 422v178q0 101 -65 163t-148 62q-73 0 -126 -48t-53 -140v-254q0 -92 52 -138t125 -46q85 0 150 62
t65 161zM176 1421h680v-213h-680v213z" />
    <glyph glyph-name="Abreve" unicode="&#x102;" horiz-adv-x="1323" 
d="M336 727h651v207q0 80 -28.5 146.5t-75 108t-104 64.5t-117.5 23t-117.5 -23t-104.5 -64.5t-75.5 -108t-28.5 -146.5v-207zM987 514h-651v-514h-223v934q0 130 47 237.5t125 175.5t175.5 105t201.5 37t201.5 -37t175 -105t124.5 -175.5t47 -237.5v-934h-223v514z
M774 1987h211q0 -81 -27 -145t-73 -103t-102.5 -59.5t-118.5 -20.5t-119.5 20.5t-105 59.5t-75.5 103.5t-28 144.5h211q0 -63 33 -98.5t79 -35.5t80.5 36t34.5 98z" />
    <glyph glyph-name="abreve" unicode="&#x103;" 
d="M737 0l-22 113q-107 -127 -256 -127q-92 0 -174.5 43t-137.5 130.5t-55 200.5v308q0 106 54.5 192.5t138 132t174.5 45.5q176 0 258 -118l18 104h195v-1024h-193zM707 422v178q0 101 -65 163t-148 62q-73 0 -126 -48t-53 -140v-254q0 -92 52 -138t125 -46q85 0 150 62
t65 161zM629 1536h211q0 -81 -27.5 -145t-73 -103t-102.5 -59.5t-119 -20.5t-119.5 20.5t-105 59.5t-75.5 103.5t-28 144.5h211q0 -63 33.5 -98t79.5 -35t80.5 35.5t34.5 97.5z" />
    <glyph glyph-name="Aogonek" unicode="&#x104;" horiz-adv-x="1323" 
d="M336 727h651v207q0 80 -28.5 146.5t-75 108t-104 64.5t-117.5 23t-117.5 -23t-104.5 -64.5t-75.5 -108t-28.5 -146.5v-207zM1210 934v-934q-118 -142 -118 -236q0 -104 135 -163l-201 -72q-65 36 -102 99t-37 136q0 136 100 236v514h-651v-514h-223v934q0 130 47 237.5
t125 175.5t175.5 105t201.5 37t201.5 -37t175 -105t124.5 -175.5t47 -237.5z" />
    <glyph glyph-name="aogonek" unicode="&#x105;" 
d="M930 1024v-1024q-88 -128 -88 -227q0 -118 135 -172l-201 -72q-65 36 -102 99t-37 136q0 136 100 236l-22 113q-107 -127 -256 -127q-92 0 -174.5 43t-137.5 130.5t-55 200.5v308q0 106 54.5 192.5t138 132t174.5 45.5q176 0 258 -118l18 104h195zM707 422v178
q0 101 -65 163t-148 62q-73 0 -126 -48t-53 -140v-254q0 -92 52 -138t125 -46q85 0 150 62t65 161z" />
    <glyph glyph-name="Cacute" unicode="&#x106;" horiz-adv-x="1073" 
d="M993 362l49 -212q-77 -78 -189 -121t-232 -43q-104 0 -198.5 31.5t-171.5 92.5t-123 162t-46 228v454q0 128 44.5 232t119.5 169t169.5 99.5t198.5 34.5q208 0 385 -127l-71 -203q-147 117 -305 117q-133 0 -225.5 -83t-92.5 -239v-454q0 -77 27 -136.5t74 -94.5
t104.5 -52.5t124.5 -17.5q99 0 193.5 41.5t164.5 121.5zM676 1618l-219 18l143 312l268 -23z" />
    <glyph glyph-name="cacute" unicode="&#x107;" horiz-adv-x="878" 
d="M823 897l-100 -170q-115 98 -229 98q-79 0 -129 -44t-50 -136v-268q0 -85 59 -131.5t136 -46.5q136 0 227 120l115 -174q-67 -76 -155.5 -117.5t-186.5 -41.5q-79 0 -153 25.5t-133.5 73t-95.5 123.5t-36 169v268q0 95 34.5 171.5t92.5 124t130.5 72.5t150.5 25
q194 0 323 -141zM551 1167l-219 19l143 311l268 -22z" />
    <glyph glyph-name="Ccircumflex" unicode="&#x108;" horiz-adv-x="1073" 
d="M993 362l49 -212q-77 -78 -189 -121t-232 -43q-104 0 -198.5 31.5t-171.5 92.5t-123 162t-46 228v454q0 128 44.5 232t119.5 169t169.5 99.5t198.5 34.5q208 0 385 -127l-71 -203q-147 117 -305 117q-133 0 -225.5 -83t-92.5 -239v-454q0 -77 27 -136.5t74 -94.5
t104.5 -52.5t124.5 -17.5q99 0 193.5 41.5t164.5 121.5zM590 1790l-86 -131h-250l211 268q48 60 125 60t125 -60l211 -268h-250z" />
    <glyph glyph-name="ccircumflex" unicode="&#x109;" horiz-adv-x="878" 
d="M823 897l-100 -170q-115 98 -229 98q-79 0 -129 -44t-50 -136v-268q0 -85 59 -131.5t136 -46.5q136 0 227 120l115 -174q-67 -76 -155.5 -117.5t-186.5 -41.5q-79 0 -153 25.5t-133.5 73t-95.5 123.5t-36 169v268q0 95 34.5 171.5t92.5 124t130.5 72.5t150.5 25
q194 0 323 -141zM473 1339l-86 -131h-250l211 269q47 59 125 59t125 -59l211 -269h-250z" />
    <glyph glyph-name="Cdotaccent" unicode="&#x10a;" horiz-adv-x="1073" 
d="M993 362l49 -212q-77 -78 -189 -121t-232 -43q-104 0 -198.5 31.5t-171.5 92.5t-123 162t-46 228v454q0 128 44.5 232t119.5 169t169.5 99.5t198.5 34.5q208 0 385 -127l-71 -203q-147 117 -305 117q-133 0 -225.5 -83t-92.5 -239v-454q0 -77 27 -136.5t74 -94.5
t104.5 -52.5t124.5 -17.5q99 0 193.5 41.5t164.5 121.5zM436 1833q0 65 45 110.5t109 45.5q66 0 110.5 -45t44.5 -111q0 -64 -45 -109t-110 -45q-63 0 -108.5 45.5t-45.5 108.5z" />
    <glyph glyph-name="cdotaccent" unicode="&#x10b;" horiz-adv-x="878" 
d="M823 897l-100 -170q-115 98 -229 98q-79 0 -129 -44t-50 -136v-268q0 -85 59 -131.5t136 -46.5q136 0 227 120l115 -174q-67 -76 -155.5 -117.5t-186.5 -41.5q-79 0 -153 25.5t-133.5 73t-95.5 123.5t-36 169v268q0 95 34.5 171.5t92.5 124t130.5 72.5t150.5 25
q194 0 323 -141zM324 1382q0 66 45 111t108 45q66 0 111 -45t45 -111q0 -63 -45 -108t-111 -45q-63 0 -108 45t-45 108z" />
    <glyph glyph-name="Ccaron" unicode="&#x10c;" horiz-adv-x="1073" 
d="M993 362l49 -212q-77 -78 -189 -121t-232 -43q-104 0 -198.5 31.5t-171.5 92.5t-123 162t-46 228v454q0 128 44.5 232t119.5 169t169.5 99.5t198.5 34.5q208 0 385 -127l-71 -203q-147 117 -305 117q-133 0 -225.5 -83t-92.5 -239v-454q0 -77 27 -136.5t74 -94.5
t104.5 -52.5t124.5 -17.5q99 0 193.5 41.5t164.5 121.5zM506 1987l86 -132l86 132h250l-211 -269q-47 -59 -125 -59t-125 59l-211 269h250z" />
    <glyph glyph-name="ccaron" unicode="&#x10d;" horiz-adv-x="878" 
d="M823 897l-100 -170q-115 98 -229 98q-79 0 -129 -44t-50 -136v-268q0 -85 59 -131.5t136 -46.5q136 0 227 120l115 -174q-67 -76 -155.5 -117.5t-186.5 -41.5q-79 0 -153 25.5t-133.5 73t-95.5 123.5t-36 169v268q0 95 34.5 171.5t92.5 124t130.5 72.5t150.5 25
q194 0 323 -141zM399 1536l86 -131l86 131h250l-211 -268q-48 -60 -125 -60t-125 60l-210 268h249z" />
    <glyph glyph-name="Dcaron" unicode="&#x10e;" horiz-adv-x="1255" 
d="M586 1262h-250v-1049h295q102 0 180.5 73.5t118 190.5t39.5 254q0 145 -46 265t-134 193t-203 73zM264 1475h322q141 0 256.5 -58.5t191.5 -160t117 -236.5t41 -289q0 -114 -23.5 -221t-71 -199.5t-113.5 -162t-157 -109t-196 -39.5h-367q-75 0 -113 46.5t-38 115.5v1151
q0 69 38 115.5t113 46.5zM446 1987l86 -132l86 132h250l-211 -269q-47 -59 -125 -59q-77 0 -124 59l-211 269h249z" />
    <glyph glyph-name="dcaron" unicode="&#x10f;" horiz-adv-x="1384" 
d="M737 0l-22 113q-67 -67 -130.5 -97t-140.5 -30q-67 0 -129 24t-112 69t-80.5 118t-30.5 163v316q0 82 30.5 151t81.5 114.5t115.5 71t133.5 25.5q158 0 264 -118v657h213v-1577h-193zM707 422v178q0 101 -65 163t-148 62q-73 0 -126 -48t-53 -140v-254q0 -92 52 -138
t125 -46q85 0 150 62t65 161zM1114 1501l219 -14q0 -195 -19 -326.5t-75 -232.5l-229 26q63 108 83.5 239.5t20.5 307.5z" />
    <glyph glyph-name="dcroat" unicode="&#x111;" 
d="M717 1188h-258v213h258v176h213v-176h102v-213h-102v-1188h-193l-22 113q-67 -67 -130.5 -97t-140.5 -30q-67 0 -129 24t-112 69t-80.5 118t-30.5 163v316q0 82 30.5 151t81.5 114.5t115.5 71t133.5 25.5q158 0 264 -118v268zM707 422v178q0 101 -65 163t-148 62
q-73 0 -126 -48t-53 -140v-254q0 -92 52 -138t125 -46q85 0 150 62t65 161z" />
    <glyph glyph-name="Emacron" unicode="&#x112;" horiz-adv-x="1144" 
d="M1106 213v-213h-842q-75 0 -113 46.5t-38 115.5v1151q0 69 38 115.5t113 46.5h813v-213h-741v-388h606v-212h-606v-449h770zM264 1872h680v-213h-680v213z" />
    <glyph glyph-name="emacron" unicode="&#x113;" horiz-adv-x="978" 
d="M705 412h-390v-39q0 -91 58 -132.5t147 -41.5q139 0 260 114l111 -168q-66 -76 -167 -117.5t-212 -41.5q-82 0 -156 23.5t-133.5 68.5t-95 118t-35.5 164v275q0 189 112.5 296t295.5 107q78 0 151 -25t133.5 -72t97 -124.5t36.5 -173.5q0 -115 -60 -173t-153 -58z
M315 616h379q-1 91 -57 150t-137 59q-85 0 -135 -58.5t-50 -150.5zM150 1421h679v-213h-679v213z" />
    <glyph glyph-name="Ebreve" unicode="&#x114;" horiz-adv-x="1144" 
d="M1106 213v-213h-842q-75 0 -113 46.5t-38 115.5v1151q0 69 38 115.5t113 46.5h813v-213h-741v-388h606v-212h-606v-449h770zM711 1987h211q0 -81 -27.5 -145t-73 -103t-102.5 -59.5t-119 -20.5t-119.5 20.5t-105 59.5t-75.5 103.5t-28 144.5h211q0 -63 33.5 -98.5
t79.5 -35.5t80.5 36t34.5 98z" />
    <glyph glyph-name="ebreve" unicode="&#x115;" horiz-adv-x="978" 
d="M705 412h-390v-39q0 -91 58 -132.5t147 -41.5q139 0 260 114l111 -168q-66 -76 -167 -117.5t-212 -41.5q-82 0 -156 23.5t-133.5 68.5t-95 118t-35.5 164v275q0 189 112.5 296t295.5 107q78 0 151 -25t133.5 -72t97 -124.5t36.5 -173.5q0 -115 -60 -173t-153 -58z
M315 616h379q-1 91 -57 150t-137 59q-85 0 -135 -58.5t-50 -150.5zM602 1536h211q0 -81 -27 -145t-73 -103t-102.5 -59.5t-118.5 -20.5t-119.5 20.5t-105 59.5t-75.5 103.5t-28 144.5h211q0 -63 33 -98t79 -35t80.5 35.5t34.5 97.5z" />
    <glyph glyph-name="Edotaccent" unicode="&#x116;" horiz-adv-x="1144" 
d="M1106 213v-213h-842q-75 0 -113 46.5t-38 115.5v1151q0 69 38 115.5t113 46.5h813v-213h-741v-388h606v-212h-606v-449h770zM438 1833q0 65 45 110.5t109 45.5q66 0 111 -45t45 -111q0 -63 -45 -108.5t-111 -45.5q-63 0 -108.5 45.5t-45.5 108.5z" />
    <glyph glyph-name="edotaccent" unicode="&#x117;" horiz-adv-x="978" 
d="M705 412h-390v-39q0 -91 58 -132.5t147 -41.5q139 0 260 114l111 -168q-66 -76 -167 -117.5t-212 -41.5q-82 0 -156 23.5t-133.5 68.5t-95 118t-35.5 164v275q0 189 112.5 296t295.5 107q78 0 151 -25t133.5 -72t97 -124.5t36.5 -173.5q0 -115 -60 -173t-153 -58z
M315 616h379q-1 91 -57 150t-137 59q-85 0 -135 -58.5t-50 -150.5zM334 1382q0 66 45 111t108 45q66 0 111 -45t45 -111q0 -63 -45 -108t-111 -45q-63 0 -108 45t-45 108z" />
    <glyph glyph-name="Eogonek" unicode="&#x118;" horiz-adv-x="1144" 
d="M1106 213v-213q-135 -122 -135 -240q0 -104 135 -159l-201 -72q-139 80 -139 215q0 69 39 136t113 120h-654q-75 0 -113 46.5t-38 115.5v1151q0 69 38 115.5t113 46.5h813v-213h-741v-388h606v-212h-606v-449h770z" />
    <glyph glyph-name="eogonek" unicode="&#x119;" horiz-adv-x="978" 
d="M780 313l111 -168q-109 -209 -109 -352q0 -64 32 -110t104 -82l-201 -72q-70 40 -104.5 103.5t-34.5 138.5q0 145 102 256l-6 6q-89 -47 -193 -47q-75 0 -144.5 25.5t-124.5 72t-87.5 118.5t-32.5 158v275q0 189 112.5 296t295.5 107q78 0 151 -25t133.5 -72t97 -124.5
t36.5 -173.5q0 -115 -60 -173t-153 -58h-390v-39q0 -91 58 -132.5t147 -41.5q139 0 260 114zM315 616h379q-1 91 -57 150t-137 59q-85 0 -135 -58.5t-50 -150.5z" />
    <glyph glyph-name="Ecaron" unicode="&#x11a;" horiz-adv-x="1144" 
d="M1106 213v-213h-842q-75 0 -113 46.5t-38 115.5v1151q0 69 38 115.5t113 46.5h813v-213h-741v-388h606v-212h-606v-449h770zM506 1987l86 -132l86 132h250l-211 -269q-47 -59 -125 -59t-125 59l-211 269h250z" />
    <glyph glyph-name="ecaron" unicode="&#x11b;" horiz-adv-x="978" 
d="M705 412h-390v-39q0 -91 58 -132.5t147 -41.5q139 0 260 114l111 -168q-66 -76 -167 -117.5t-212 -41.5q-82 0 -156 23.5t-133.5 68.5t-95 118t-35.5 164v275q0 189 112.5 296t295.5 107q78 0 151 -25t133.5 -72t97 -124.5t36.5 -173.5q0 -115 -60 -173t-153 -58z
M315 616h379q-1 91 -57 150t-137 59q-85 0 -135 -58.5t-50 -150.5zM403 1536l86 -131l86 131h250l-211 -268q-48 -60 -125 -60q-76 0 -124 60l-211 268h249z" />
    <glyph glyph-name="Gcircumflex" unicode="&#x11c;" horiz-adv-x="1269" 
d="M674 612v213h342q75 0 113 -46t38 -115v-164q0 -125 -45 -225.5t-120 -162t-168.5 -94t-196.5 -32.5t-199.5 33.5t-174 96t-124.5 162.5t-47 222v454q0 132 44.5 236.5t120.5 168.5t169.5 97t198.5 33q165 0 286 -59t230 -181l-148 -162q-71 91 -168.5 140t-199.5 49
q-132 0 -221 -81.5t-89 -240.5v-454q0 -98 48 -168t119 -101.5t155 -31.5q126 0 216.5 81.5t90.5 231.5v100h-270zM635 1790l-86 -131h-250l211 268q48 60 125 60t125 -60l211 -268h-250z" />
    <glyph glyph-name="gcircumflex" unicode="&#x11d;" 
d="M459 1038q176 0 258 -118l18 104h195v-1036q0 -109 -37.5 -199t-101 -147t-145 -88t-171.5 -31q-206 0 -352 143l72 209q67 -67 133 -103t155 -36q99 0 161.5 66t62.5 190v121q-98 -127 -250 -127q-68 0 -133 26.5t-117 73.5t-83.5 118.5t-31.5 155.5v308
q0 106 54.5 192.5t138 132t174.5 45.5zM707 422v178q0 101 -65 163t-148 62q-73 0 -126 -48t-53 -140v-254q0 -92 52 -138t125 -46q85 0 150 62t65 161zM516 1339l-86 -131h-250l211 269q47 59 125 59t125 -59l211 -269h-250z" />
    <glyph glyph-name="Gbreve" unicode="&#x11e;" horiz-adv-x="1269" 
d="M674 612v213h342q75 0 113 -46t38 -115v-164q0 -125 -45 -225.5t-120 -162t-168.5 -94t-196.5 -32.5t-199.5 33.5t-174 96t-124.5 162.5t-47 222v454q0 132 44.5 236.5t120.5 168.5t169.5 97t198.5 33q165 0 286 -59t230 -181l-148 -162q-71 91 -168.5 140t-199.5 49
q-132 0 -221 -81.5t-89 -240.5v-454q0 -98 48 -168t119 -101.5t155 -31.5q126 0 216.5 81.5t90.5 231.5v100h-270zM748 1987h210q0 -81 -27 -145t-73 -103t-102.5 -59.5t-118.5 -20.5t-119.5 20.5t-105 59.5t-75.5 103.5t-28 144.5h211q0 -63 33.5 -98.5t79.5 -35.5t80.5 36
t34.5 98z" />
    <glyph glyph-name="gbreve" unicode="&#x11f;" 
d="M459 1038q176 0 258 -118l18 104h195v-1036q0 -109 -37.5 -199t-101 -147t-145 -88t-171.5 -31q-206 0 -352 143l72 209q67 -67 133 -103t155 -36q99 0 161.5 66t62.5 190v121q-98 -127 -250 -127q-68 0 -133 26.5t-117 73.5t-83.5 118.5t-31.5 155.5v308
q0 106 54.5 192.5t138 132t174.5 45.5zM707 422v178q0 101 -65 163t-148 62q-73 0 -126 -48t-53 -140v-254q0 -92 52 -138t125 -46q85 0 150 62t65 161zM629 1536h211q0 -81 -27.5 -145t-73 -103t-102.5 -59.5t-119 -20.5t-119.5 20.5t-105 59.5t-75.5 103.5t-28 144.5h211
q0 -63 33.5 -98t79.5 -35t80.5 35.5t34.5 97.5z" />
    <glyph glyph-name="Gdotaccent" unicode="&#x120;" horiz-adv-x="1269" 
d="M674 612v213h342q75 0 113 -46t38 -115v-164q0 -125 -45 -225.5t-120 -162t-168.5 -94t-196.5 -32.5t-199.5 33.5t-174 96t-124.5 162.5t-47 222v454q0 132 44.5 236.5t120.5 168.5t169.5 97t198.5 33q165 0 286 -59t230 -181l-148 -162q-71 91 -168.5 140t-199.5 49
q-132 0 -221 -81.5t-89 -240.5v-454q0 -98 48 -168t119 -101.5t155 -31.5q126 0 216.5 81.5t90.5 231.5v100h-270zM479 1833q0 65 45.5 110.5t108.5 45.5q66 0 110.5 -45t44.5 -111q0 -64 -45 -109t-110 -45q-63 0 -108.5 45.5t-45.5 108.5z" />
    <glyph glyph-name="gdotaccent" unicode="&#x121;" 
d="M459 1038q176 0 258 -118l18 104h195v-1036q0 -109 -37.5 -199t-101 -147t-145 -88t-171.5 -31q-206 0 -352 143l72 209q67 -67 133 -103t155 -36q99 0 161.5 66t62.5 190v121q-98 -127 -250 -127q-68 0 -133 26.5t-117 73.5t-83.5 118.5t-31.5 155.5v308
q0 106 54.5 192.5t138 132t174.5 45.5zM707 422v178q0 101 -65 163t-148 62q-73 0 -126 -48t-53 -140v-254q0 -92 52 -138t125 -46q85 0 150 62t65 161zM340 1382q0 66 45 111t109 45q66 0 110.5 -45t44.5 -111q0 -64 -44.5 -108.5t-110.5 -44.5q-63 0 -108.5 45t-45.5 108z
" />
    <glyph glyph-name="Gcommaaccent" unicode="&#x122;" horiz-adv-x="1269" 
d="M674 612v213h342q75 0 113 -46t38 -115v-164q0 -125 -45 -225.5t-120 -162t-168.5 -94t-196.5 -32.5t-199.5 33.5t-174 96t-124.5 162.5t-47 222v454q0 132 44.5 236.5t120.5 168.5t169.5 97t198.5 33q165 0 286 -59t230 -181l-148 -162q-71 91 -168.5 140t-199.5 49
q-132 0 -221 -81.5t-89 -240.5v-454q0 -98 48 -168t119 -101.5t155 -31.5q126 0 216.5 81.5t90.5 231.5v100h-270zM553 -135l223 33v-60q0 -106 -22.5 -178t-71.5 -129l-233 37q59 64 81.5 120t22.5 144v33z" />
    <glyph glyph-name="gcommaaccent" unicode="&#x123;" 
d="M459 1038q176 0 258 -118l18 104h195v-1036q0 -109 -37.5 -199t-101 -147t-145 -88t-171.5 -31q-206 0 -352 143l72 209q67 -67 133 -103t155 -36q99 0 161.5 66t62.5 190v121q-98 -127 -250 -127q-68 0 -133 26.5t-117 73.5t-83.5 118.5t-31.5 155.5v308
q0 106 54.5 192.5t138 132t174.5 45.5zM707 422v178q0 101 -65 163t-148 62q-73 0 -126 -48t-53 -140v-254q0 -92 52 -138t125 -46q85 0 150 62t65 161zM600 1223l-223 -33v59q0 106 22.5 178t71.5 129l234 -36q-59 -64 -82 -120.5t-23 -144.5v-32z" />
    <glyph glyph-name="Hcircumflex" unicode="&#x124;" horiz-adv-x="1323" 
d="M987 877v598h223v-1475h-223v664h-651v-664h-223v1475h223v-598h651zM662 1790l-87 -131h-249l211 268q48 60 125 60q76 0 124 -60l211 -268h-249z" />
    <glyph glyph-name="hcircumflex" unicode="&#x125;" 
d="M940 0h-223v637q0 94 -50 141t-128 47q-83 0 -148 -62t-65 -163v-600h-224v1577h213v-676q103 137 271 137q150 0 252 -96t102 -266v-676zM272 1792l-86 -131h-249l210 268q48 60 125 60t125 -60l211 -268h-250z" />
    <glyph glyph-name="Hbar" unicode="&#x126;" horiz-adv-x="1323" 
d="M1210 1327h93v-213h-93v-1114h-223v664h-651v-664h-223v1114h-93v213h93v148h223v-148h651v148h223v-148zM336 877h651v237h-651v-237z" />
    <glyph glyph-name="hbar" unicode="&#x127;" 
d="M315 1401h258v-213h-258v-287q103 137 271 137q150 0 252 -96t102 -266v-676h-223v637q0 94 -50 141t-128 47q-83 0 -148 -62t-65 -163v-600h-224v1188h-102v213h102v176h213v-176z" />
    <glyph glyph-name="Itilde" unicode="&#x128;" horiz-adv-x="489" 
d="M356 1475v-1475h-223v1475h223zM129 1753q-30 0 -42 -22.5t-19 -75.5l-160 65q20 112 71.5 170t122.5 58q44 0 94 -27t93.5 -53.5t72.5 -26.5q30 0 42.5 23t19.5 75l160 -65q-20 -112 -71.5 -169.5t-123.5 -57.5q-39 0 -79 16.5t-66.5 36.5t-58 36.5t-56.5 16.5z" />
    <glyph glyph-name="itilde" unicode="&#x129;" horiz-adv-x="428" 
d="M326 0h-224v1024h224v-1024zM98 1303q-30 0 -42 -23t-19 -76l-160 66q20 112 71.5 169.5t123.5 57.5q44 0 94 -26.5t93.5 -53t72.5 -26.5q30 0 42 22.5t19 75.5l160 -66q-20 -112 -71.5 -169.5t-123.5 -57.5q-50 0 -99 27t-89.5 53.5t-71.5 26.5z" />
    <glyph glyph-name="uni012A" unicode="&#x12a;" horiz-adv-x="489" 
d="M356 1475v-1475h-223v1475h223zM-20 1872h530v-213h-530v213z" />
    <glyph glyph-name="imacron" unicode="&#x12b;" horiz-adv-x="428" 
d="M326 0h-224v1024h224v-1024zM-20 1421h469v-213h-469v213z" />
    <glyph glyph-name="Iogonek" unicode="&#x12e;" horiz-adv-x="489" 
d="M356 1475v-1475q-118 -128 -118 -236q0 -50 32 -89t103 -74l-201 -72q-139 80 -139 240q0 136 100 231v1475h223z" />
    <glyph glyph-name="iogonek" unicode="&#x12f;" horiz-adv-x="428" 
d="M59 1382q0 66 45.5 111t108.5 45q66 0 111 -45t45 -111q0 -63 -45 -108t-111 -45q-63 0 -108.5 45t-45.5 108zM326 1024v-1024q-105 -132 -105 -231q0 -113 135 -168l-200 -72q-140 80 -140 238q0 121 86 233v1024h224z" />
    <glyph glyph-name="Idotaccent" unicode="&#x130;" horiz-adv-x="489" 
d="M356 1475v-1475h-223v1475h223zM90 1833q0 65 45 110.5t109 45.5q66 0 110.5 -45t44.5 -111q0 -64 -45 -109t-110 -45q-63 0 -108.5 45.5t-45.5 108.5z" />
    <glyph glyph-name="dotlessi" unicode="&#x131;" horiz-adv-x="428" 
d="M326 0h-224v1024h224v-1024z" />
    <glyph glyph-name="Jcircumflex" unicode="&#x134;" horiz-adv-x="806" 
d="M27 6v215q77 -22 151 -22q130 0 216.5 75t86.5 220v981h224v-994q0 -122 -43.5 -219t-116.5 -156t-162.5 -89.5t-187.5 -30.5q-89 0 -168 20zM567 1790l-86 -131h-250l211 268q48 60 125 60t125 -60l211 -268h-250z" />
    <glyph glyph-name="jcircumflex" unicode="&#x135;" horiz-adv-x="468" 
d="M143 1024h224v-1106q0 -192 -106 -287.5t-275 -95.5q-72 0 -123 10l24 230q63 -17 97 -17q74 0 116.5 50t42.5 157v1059zM236 1339l-86 -131h-250l211 269q47 59 125 59q77 0 124 -59l211 -269h-249z" />
    <glyph glyph-name="Kcommaaccent" unicode="&#x136;" horiz-adv-x="1298" 
d="M582 -135l223 33v-60q0 -106 -22.5 -178t-71.5 -129l-234 37q59 64 82 120t23 144v33zM950 1475h224q0 -406 -279 -635q74 -26 128 -61.5t96.5 -88.5t64.5 -129.5t22 -175.5v-385h-223v385q0 128 -86 211.5t-211 110.5q-166 -74 -350 -91v-616h-223v1475h223v-646
q82 0 168.5 29t166 86t142 133.5t100 180t37.5 217.5z" />
    <glyph glyph-name="kcommaaccent" unicode="&#x137;" horiz-adv-x="964" 
d="M326 387v-387h-224v1577h224v-991q175 0 263.5 89.5t88.5 229.5q0 28 -12 90l225 29q10 -49 10 -115q0 -215 -145 -360q64 -38 102.5 -102t38.5 -140v-307h-223v289q0 86 -94 145q-118 -47 -254 -47zM418 -135l223 33v-60q0 -106 -22.5 -178t-71.5 -129l-234 37
q59 64 82 120t23 144v33z" />
    <glyph glyph-name="Lacute" unicode="&#x139;" horiz-adv-x="1021" 
d="M991 213v-213h-727q-75 0 -113 46.5t-38 115.5v1313h223v-1262h655zM336 1618l-219 18l143 312l268 -23z" />
    <glyph glyph-name="lacute" unicode="&#x13a;" horiz-adv-x="468" 
d="M346 0h-223v1577h223v-1577zM315 1659l-219 18l144 312l268 -23z" />
    <glyph glyph-name="Lcommaaccent" unicode="&#x13b;" horiz-adv-x="1021" 
d="M991 213v-213h-727q-75 0 -113 46.5t-38 115.5v1313h223v-1262h655zM436 -135l223 33v-60q0 -106 -22.5 -178t-71.5 -129l-233 37q59 64 81.5 120t22.5 144v33z" />
    <glyph glyph-name="lcommaaccent" unicode="&#x13c;" horiz-adv-x="468" 
d="M121 -135l223 33v-60q0 -106 -22.5 -178t-71.5 -129l-234 37q59 64 82 120t23 144v33zM346 0h-223v1577h223v-1577z" />
    <glyph glyph-name="Lcaron" unicode="&#x13d;" horiz-adv-x="1021" 
d="M991 213v-213h-727q-75 0 -113 46.5t-38 115.5v1313h223v-1262h655zM535 1501l219 -14q0 -194 -19.5 -326t-75.5 -233l-229 26q63 108 84 240.5t21 306.5z" />
    <glyph glyph-name="lcaron" unicode="&#x13e;" horiz-adv-x="804" 
d="M346 0h-223v1577h223v-1577zM532 1501l220 -14q0 -194 -19.5 -326t-75.5 -233l-229 26q63 108 83.5 239.5t20.5 307.5z" />
    <glyph glyph-name="Ldot" unicode="&#x13f;" horiz-adv-x="1021" 
d="M991 213v-213h-727q-75 0 -113 46.5t-38 115.5v1313h223v-1262h655zM461 655q0 60 41.5 103t101.5 43t103 -43t43 -103t-43 -101.5t-103 -41.5t-101.5 41.5t-41.5 101.5z" />
    <glyph glyph-name="ldot" unicode="&#x140;" horiz-adv-x="817" 
d="M346 0h-223v1577h223v-1577zM461 655q0 60 41.5 103t101.5 43t103 -43t43 -103t-43 -101.5t-103 -41.5t-101.5 41.5t-41.5 101.5z" />
    <glyph glyph-name="Lslash" unicode="&#x141;" horiz-adv-x="1021" 
d="M113 496l-113 -39v213l113 39v766h223v-687l311 111v-213l-311 -111v-362h655v-213h-727q-75 0 -113 46.5t-38 115.5v334z" />
    <glyph glyph-name="lslash" unicode="&#x142;" horiz-adv-x="468" 
d="M346 0h-223v500l-166 -58v213l166 58v864h223v-784l162 57v-213l-162 -57v-580z" />
    <glyph glyph-name="Nacute" unicode="&#x143;" horiz-adv-x="1306" 
d="M786 106l-450 1121v-1227h-223v1317q0 81 58 126.5t138 45.5q75 0 124.5 -26.5t78.5 -98.5l459 -1128v1239h223v-1311q0 -86 -59 -132t-140 -46q-69 0 -127 31t-82 89zM741 1618l-219 18l144 312l268 -23z" />
    <glyph glyph-name="nacute" unicode="&#x144;" 
d="M940 0h-223v637q0 94 -50 141t-128 47q-83 0 -148 -62t-65 -163v-600h-224v1024h183l30 -123q103 137 271 137q150 0 252 -96t102 -266v-676zM612 1167l-219 19l144 311l268 -22z" />
    <glyph glyph-name="Ncommaaccent" unicode="&#x145;" horiz-adv-x="1306" 
d="M530 -135l224 33v-60q0 -106 -23 -178t-72 -129l-233 37q59 64 81.5 120t22.5 144v33zM786 106l-450 1121v-1227h-223v1317q0 81 58 126.5t138 45.5q75 0 124.5 -26.5t78.5 -98.5l459 -1128v1239h223v-1311q0 -86 -59 -132t-140 -46q-69 0 -127 31t-82 89z" />
    <glyph glyph-name="ncommaaccent" unicode="&#x146;" 
d="M940 0h-223v637q0 94 -50 141t-128 47q-83 0 -148 -62t-65 -163v-600h-224v1024h183l30 -123q103 137 271 137q150 0 252 -96t102 -266v-676zM438 -135l224 33v-60q0 -106 -23 -178t-72 -129l-233 37q59 64 81.5 120t22.5 144v33z" />
    <glyph glyph-name="Ncaron" unicode="&#x147;" horiz-adv-x="1306" 
d="M786 106l-450 1121v-1227h-223v1317q0 81 58 126.5t138 45.5q75 0 124.5 -26.5t78.5 -98.5l459 -1128v1239h223v-1311q0 -86 -59 -132t-140 -46q-69 0 -127 31t-82 89zM567 1987l86 -132l86 132h250l-211 -269q-47 -59 -125 -59t-125 59l-211 269h250z" />
    <glyph glyph-name="ncaron" unicode="&#x148;" 
d="M940 0h-223v637q0 94 -50 141t-128 47q-83 0 -148 -62t-65 -163v-600h-224v1024h183l30 -123q103 137 271 137q150 0 252 -96t102 -266v-676zM430 1536l86 -131l86 131h250l-211 -268q-48 -60 -125 -60t-125 60l-211 268h250z" />
    <glyph glyph-name="napostrophe" unicode="&#x149;" horiz-adv-x="1316" 
d="M1225 0h-224v637q0 94 -50 141t-128 47q-83 0 -148 -62t-65 -163v-600h-223v1024h182l31 -123q103 137 270 137q150 0 252.5 -96t102.5 -266v-676zM104 1501l220 -14q0 -194 -19.5 -326t-75.5 -233l-229 26q63 108 83.5 239.5t20.5 307.5z" />
    <glyph glyph-name="Omacron" unicode="&#x14c;" horiz-adv-x="1294" 
d="M92 528v418q0 103 31 191.5t84 152t124 109t151.5 68t164.5 22.5t164 -22.5t150.5 -68t124.5 -109t85 -152.5t31 -191v-418q0 -127 -47.5 -232t-126.5 -171.5t-177.5 -102.5t-203.5 -36q-106 0 -204.5 36t-177.5 102.5t-126 171.5t-47 232zM979 528v418q0 78 -28.5 142
t-75.5 104t-106 62t-122 22t-122 -22t-106 -62t-75.5 -104t-28.5 -142v-418q0 -103 49 -179.5t123 -113t160 -36.5t160 36.5t123 113t49 179.5zM307 1872h680v-213h-680v213z" />
    <glyph glyph-name="omacron" unicode="&#x14d;" horiz-adv-x="1003" 
d="M305 641v-258q0 -86 58 -135t139 -49q78 0 137 49t59 135v258q0 86 -59 135t-137 49q-81 0 -139 -49t-58 -135zM82 383v258q0 96 35.5 173t95.5 125t134 73.5t155 25.5q80 0 154 -25.5t134 -73.5t96 -125.5t36 -172.5v-258q0 -95 -36 -172.5t-96 -125.5t-134 -73.5
t-154 -25.5q-81 0 -155 25.5t-134 73.5t-95.5 125t-35.5 173zM162 1421h680v-213h-680v213z" />
    <glyph glyph-name="Obreve" unicode="&#x14e;" horiz-adv-x="1294" 
d="M92 528v418q0 103 31 191.5t84 152t124 109t151.5 68t164.5 22.5t164 -22.5t150.5 -68t124.5 -109t85 -152.5t31 -191v-418q0 -127 -47.5 -232t-126.5 -171.5t-177.5 -102.5t-203.5 -36q-106 0 -204.5 36t-177.5 102.5t-126 171.5t-47 232zM979 528v418q0 78 -28.5 142
t-75.5 104t-106 62t-122 22t-122 -22t-106 -62t-75.5 -104t-28.5 -142v-418q0 -103 49 -179.5t123 -113t160 -36.5t160 36.5t123 113t49 179.5zM760 1987h211q0 -81 -27.5 -145t-73 -103t-102.5 -59.5t-119 -20.5t-119.5 20.5t-104.5 59.5t-75 103t-28 145h210
q0 -63 33.5 -98.5t79.5 -35.5t80.5 36t34.5 98z" />
    <glyph glyph-name="obreve" unicode="&#x14f;" horiz-adv-x="1003" 
d="M305 641v-258q0 -86 58 -135t139 -49q78 0 137 49t59 135v258q0 86 -59 135t-137 49q-81 0 -139 -49t-58 -135zM82 383v258q0 96 35.5 173t95.5 125t134 73.5t155 25.5q80 0 154 -25.5t134 -73.5t96 -125.5t36 -172.5v-258q0 -95 -36 -172.5t-96 -125.5t-134 -73.5
t-154 -25.5q-81 0 -155 25.5t-134 73.5t-95.5 125t-35.5 173zM614 1536h211q0 -81 -27 -145t-73 -103t-102.5 -59.5t-118.5 -20.5t-119.5 20.5t-105 59.5t-75.5 103.5t-28 144.5h211q0 -63 33.5 -98t79.5 -35t80 35.5t34 97.5z" />
    <glyph glyph-name="Ohungarumlaut" unicode="&#x150;" horiz-adv-x="1294" 
d="M92 528v418q0 103 31 191.5t84 152t124 109t151.5 68t164.5 22.5t164 -22.5t150.5 -68t124.5 -109t85 -152.5t31 -191v-418q0 -127 -47.5 -232t-126.5 -171.5t-177.5 -102.5t-203.5 -36q-106 0 -204.5 36t-177.5 102.5t-126 171.5t-47 232zM979 528v418q0 78 -28.5 142
t-75.5 104t-106 62t-122 22t-122 -22t-106 -62t-75.5 -104t-28.5 -142v-418q0 -103 49 -179.5t123 -113t160 -36.5t160 36.5t123 113t49 179.5zM539 1618l-220 18l144 312l268 -23zM940 1618l-219 18l143 312l269 -23z" />
    <glyph glyph-name="ohungarumlaut" unicode="&#x151;" horiz-adv-x="1003" 
d="M305 641v-258q0 -86 58 -135t139 -49q78 0 137 49t59 135v258q0 86 -59 135t-137 49q-81 0 -139 -49t-58 -135zM82 383v258q0 96 35.5 173t95.5 125t134 73.5t155 25.5q80 0 154 -25.5t134 -73.5t96 -125.5t36 -172.5v-258q0 -95 -36 -172.5t-96 -125.5t-134 -73.5
t-154 -25.5q-81 0 -155 25.5t-134 73.5t-95.5 125t-35.5 173zM399 1167l-219 19l144 311l268 -22zM801 1167l-219 19l143 311l268 -22z" />
    <glyph glyph-name="OE" unicode="&#x152;" horiz-adv-x="2011" 
d="M1972 213v-213h-842q-102 0 -141 94q-147 -108 -342 -108q-106 0 -204.5 36t-177.5 102.5t-126 171.5t-47 232v418q0 103 31 191.5t84 152t124 109t151.5 68t164.5 22.5q194 0 342 -109q40 95 141 95h814v-213h-742v-388h606v-212h-606v-449h770zM979 317v840
q-68 57 -156.5 88t-177.5 31q-68 0 -125.5 -19t-104.5 -57t-73.5 -103t-26.5 -151v-418q0 -103 49 -179.5t123 -113t160 -36.5q89 0 176.5 31t155.5 87z" />
    <glyph glyph-name="oe" unicode="&#x153;" horiz-adv-x="1585" 
d="M82 383v258q0 92 37 169t97 126t134.5 75.5t151.5 26.5q182 0 303 -151q110 151 301 151q78 0 151 -25t133.5 -72t97 -124.5t36.5 -173.5q0 -115 -60 -173t-153 -58h-389v-39q0 -91 57.5 -132.5t146.5 -41.5q139 0 260 114l111 -168q-66 -76 -167 -117.5t-212 -41.5
q-90 0 -172.5 38t-140.5 105q-61 -67 -140 -105t-163 -38q-81 0 -155 25.5t-134 73.5t-95.5 125t-35.5 173zM305 641v-258q0 -86 58 -135t139 -49q77 0 134.5 46t61.5 128v268q0 86 -59 135t-137 49q-81 0 -139 -49t-58 -135zM922 616h378q-1 91 -57 150t-137 59
q-84 0 -133 -55.5t-51 -144.5v-9z" />
    <glyph glyph-name="Racute" unicode="&#x154;" horiz-adv-x="1263" 
d="M633 631h-297v-631h-223v1313q0 69 38 115.5t113 46.5h467q100 0 186.5 -35t143.5 -92t89 -130t32 -149q0 -103 -55.5 -191.5t-168.5 -146.5q113 -62 168.5 -161t55.5 -267v-303h-224v303q0 153 -82 240.5t-243 87.5zM336 844h381q114 0 177.5 64t63.5 149
q0 81 -59.5 143t-167.5 62h-395v-418zM645 1618l-219 18l143 312l269 -23z" />
    <glyph glyph-name="racute" unicode="&#x155;" horiz-adv-x="796" 
d="M750 993l-11 -245q-88 77 -192 77q-88 0 -154.5 -60.5t-66.5 -164.5v-600h-224v1024h183l30 -123q50 66 121 101.5t148 35.5q92 0 166 -45zM354 1167l-219 19l144 311l268 -22z" />
    <glyph glyph-name="Rcommaaccent" unicode="&#x156;" horiz-adv-x="1263" 
d="M633 631h-297v-631h-223v1313q0 69 38 115.5t113 46.5h467q100 0 186.5 -35t143.5 -92t89 -130t32 -149q0 -103 -55.5 -191.5t-168.5 -146.5q113 -62 168.5 -161t55.5 -267v-303h-224v303q0 153 -82 240.5t-243 87.5zM336 844h381q114 0 177.5 64t63.5 149
q0 81 -59.5 143t-167.5 62h-395v-418zM530 -135l224 33v-60q0 -106 -23 -178t-72 -129l-233 37q59 64 81.5 120t22.5 144v33z" />
    <glyph glyph-name="rcommaaccent" unicode="&#x157;" horiz-adv-x="796" 
d="M750 993l-11 -245q-88 77 -192 77q-88 0 -154.5 -60.5t-66.5 -164.5v-600h-224v1024h183l30 -123q50 66 121 101.5t148 35.5q92 0 166 -45zM102 -135l224 33v-60q0 -106 -23 -178t-72 -129l-233 37q59 64 81.5 120t22.5 144v33z" />
    <glyph glyph-name="Rcaron" unicode="&#x158;" horiz-adv-x="1263" 
d="M633 631h-297v-631h-223v1313q0 69 38 115.5t113 46.5h467q100 0 186.5 -35t143.5 -92t89 -130t32 -149q0 -103 -55.5 -191.5t-168.5 -146.5q113 -62 168.5 -161t55.5 -267v-303h-224v303q0 153 -82 240.5t-243 87.5zM336 844h381q114 0 177.5 64t63.5 149
q0 81 -59.5 143t-167.5 62h-395v-418zM514 1987l86 -132l86 132h250l-211 -269q-47 -59 -125 -59t-125 59l-211 269h250z" />
    <glyph glyph-name="rcaron" unicode="&#x159;" horiz-adv-x="796" 
d="M750 993l-11 -245q-88 77 -192 77q-88 0 -154.5 -60.5t-66.5 -164.5v-600h-224v1024h183l30 -123q50 66 121 101.5t148 35.5q92 0 166 -45zM283 1536l86 -131l86 131h250l-211 -268q-48 -60 -125 -60t-125 60l-211 268h250z" />
    <glyph glyph-name="Sacute" unicode="&#x15a;" horiz-adv-x="1185" 
d="M68 119l12 233q72 -56 231 -104.5t297 -48.5q125 0 204 59.5t79 177.5q0 50 -28.5 87t-77 60t-111 40t-131.5 33t-138 35t-131.5 49t-111 71.5t-77 107t-28.5 150.5q0 86 29.5 160t88 133t156.5 93t226 34q208 0 465 -80l-43 -201q-254 68 -410 68q-129 0 -208.5 -49
t-79.5 -158q0 -52 28.5 -89.5t76.5 -59t110.5 -37.5t132 -30t138.5 -31.5t131.5 -47.5t110.5 -72t76.5 -110.5t28.5 -157.5q0 -96 -28.5 -173t-77 -127.5t-116 -84.5t-142.5 -48.5t-160 -14.5q-137 0 -275.5 36t-246.5 97zM635 1618l-219 18l143 312l268 -23z" />
    <glyph glyph-name="sacute" unicode="&#x15b;" horiz-adv-x="841" 
d="M756 981l-35 -201q-153 45 -293 45q-158 0 -158 -94q0 -24 22.5 -43t59.5 -31t84 -26.5t96.5 -29t96.5 -40t84 -58t59.5 -84t22.5 -116.5q0 -70 -21 -124.5t-57 -90t-87.5 -59t-109.5 -33.5t-127 -10q-149 0 -323 43l22 217q48 -16 137 -31.5t166 -15.5t126.5 26.5
t49.5 79.5q0 31 -29 53t-75 37t-102 30.5t-112 38.5t-102 54.5t-75 86t-29 126.5q0 83 28 144t79.5 96t116 51t145.5 16q153 0 340 -57zM477 1167l-219 19l143 311l269 -22z" />
    <glyph glyph-name="Scircumflex" unicode="&#x15c;" horiz-adv-x="1185" 
d="M68 119l12 233q72 -56 231 -104.5t297 -48.5q125 0 204 59.5t79 177.5q0 50 -28.5 87t-77 60t-111 40t-131.5 33t-138 35t-131.5 49t-111 71.5t-77 107t-28.5 150.5q0 86 29.5 160t88 133t156.5 93t226 34q208 0 465 -80l-43 -201q-254 68 -410 68q-129 0 -208.5 -49
t-79.5 -158q0 -52 28.5 -89.5t76.5 -59t110.5 -37.5t132 -30t138.5 -31.5t131.5 -47.5t110.5 -72t76.5 -110.5t28.5 -157.5q0 -96 -28.5 -173t-77 -127.5t-116 -84.5t-142.5 -48.5t-160 -14.5q-137 0 -275.5 36t-246.5 97zM553 1790l-86 -131h-250l211 268q48 60 125 60
t125 -60l211 -268h-250z" />
    <glyph glyph-name="scircumflex" unicode="&#x15d;" horiz-adv-x="841" 
d="M756 981l-35 -201q-153 45 -293 45q-158 0 -158 -94q0 -24 22.5 -43t59.5 -31t84 -26.5t96.5 -29t96.5 -40t84 -58t59.5 -84t22.5 -116.5q0 -70 -21 -124.5t-57 -90t-87.5 -59t-109.5 -33.5t-127 -10q-149 0 -323 43l22 217q48 -16 137 -31.5t166 -15.5t126.5 26.5
t49.5 79.5q0 31 -29 53t-75 37t-102 30.5t-112 38.5t-102 54.5t-75 86t-29 126.5q0 83 28 144t79.5 96t116 51t145.5 16q153 0 340 -57zM420 1339l-86 -131h-250l211 269q47 59 125 59t125 -59l211 -269h-250z" />
    <glyph glyph-name="Scedilla" unicode="&#x15e;" horiz-adv-x="1185" 
d="M68 119l12 233q72 -56 231 -104.5t297 -48.5q125 0 204 59.5t79 177.5q0 50 -28.5 86.5t-77 59t-111 40t-131.5 33.5t-138 35.5t-131.5 50t-111 71.5t-77 107t-28.5 150q0 86 29.5 160t88 133t156.5 93t226 34q208 0 465 -80l-43 -201q-254 68 -410 68q-129 0 -208.5 -49
t-79.5 -158q0 -52 28.5 -89.5t76.5 -59t110.5 -37.5t132 -30t138.5 -31.5t131.5 -47.5t110.5 -72t76.5 -110.5t28.5 -157.5q0 -88 -24 -160.5t-65.5 -122.5t-100.5 -85t-125 -53t-142 -23v-60q162 -44 162 -186q0 -99 -71.5 -154t-194.5 -55q-104 0 -186 29l18 164
q82 -29 168 -29q82 0 82 43q0 51 -162 51v201q-218 21 -405 125z" />
    <glyph glyph-name="scedilla" unicode="&#x15f;" horiz-adv-x="841" 
d="M756 981l-35 -201q-153 45 -293 45q-158 0 -158 -94q0 -24 22.5 -43t59.5 -31t84 -26.5t96.5 -29t96.5 -40t84 -58t59.5 -84t22.5 -116.5q0 -271 -301 -311v-62q161 -44 161 -186q0 -99 -71.5 -154t-194.5 -55q-104 0 -186 29l18 164q82 -29 168 -29q82 0 82 43
q0 51 -162 51v197q-106 8 -239 39l22 217q48 -16 137 -31.5t166 -15.5t126.5 26.5t49.5 79.5q0 31 -29 53t-75 37t-102 30.5t-112 38.5t-102 54.5t-75 86t-29 126.5q0 83 28 144t79.5 96t116 51t145.5 16q153 0 340 -57z" />
    <glyph glyph-name="Scaron" unicode="&#x160;" horiz-adv-x="1185" 
d="M506 1987l86 -132l86 132h250l-211 -269q-47 -59 -125 -59t-125 59l-211 269h250zM68 119l12 233q72 -56 231 -104.5t297 -48.5q125 0 204 59.5t79 177.5q0 50 -28.5 86.5t-77 59t-111 40t-131.5 33.5t-138 35.5t-131.5 50t-111 71.5t-77 107t-28.5 150q0 86 29.5 160
t88 133t156.5 93t226 34q208 0 465 -80l-43 -201q-254 68 -410 68q-129 0 -208.5 -49t-79.5 -158q0 -52 28.5 -89.5t76.5 -59t110.5 -37.5t132 -30t138.5 -31.5t131.5 -47.5t110.5 -72t76.5 -110.5t28.5 -157.5q0 -96 -28.5 -173t-77 -127.5t-116 -84.5t-142.5 -48.5
t-160 -14.5q-137 0 -275.5 36t-246.5 97z" />
    <glyph glyph-name="scaron" unicode="&#x161;" horiz-adv-x="841" 
d="M756 981l-35 -201q-153 45 -293 45q-158 0 -158 -94q0 -24 22.5 -43t59.5 -31t84 -26.5t96.5 -29t96.5 -40t84 -58t59.5 -84t22.5 -116.5q0 -70 -21 -124.5t-57 -90t-87.5 -59t-109.5 -33.5t-127 -10q-149 0 -323 43l22 217q48 -16 137 -31.5t166 -15.5t126.5 26.5
t49.5 79.5q0 31 -29 53t-75 37t-102 30.5t-112 38.5t-102 54.5t-75 86t-29 126.5q0 83 28 144t79.5 96t116 51t145.5 16q153 0 340 -57zM334 1536l86 -131l86 131h250l-211 -268q-48 -60 -125 -60t-125 60l-211 268h250z" />
    <glyph glyph-name="Tcommaaccent" unicode="&#x162;" horiz-adv-x="1165" 
d="M471 -135l223 33v-60q0 -106 -22.5 -178t-71.5 -129l-233 37q59 64 81.5 120t22.5 144v33zM1135 1262h-441v-1262h-223v1262h-442v213h1106v-213z" />
    <glyph glyph-name="tcommaaccent" unicode="&#x163;" horiz-adv-x="694" 
d="M428 811v-481q0 -65 40 -98t99 -33q57 0 86 16v-219q-65 -10 -108 -10q-75 0 -133 15t-106.5 50t-74.5 100t-26 158v502h-172v213h172v244l223 63v-307h231v-213h-231zM256 -135l223 33v-60q0 -106 -22.5 -178t-71.5 -129l-233 37q59 64 81.5 120t22.5 144v33z" />
    <glyph glyph-name="Tcaron" unicode="&#x164;" horiz-adv-x="1165" 
d="M1135 1262h-441v-1262h-223v1262h-442v213h1106v-213zM496 1987l86 -132l86 132h250l-211 -269q-47 -59 -125 -59t-125 59l-211 269h250z" />
    <glyph glyph-name="tcaron" unicode="&#x165;" horiz-adv-x="897" 
d="M428 811v-481q0 -65 40 -98t99 -33q57 0 86 16v-219q-65 -10 -108 -10q-75 0 -133 15t-106.5 50t-74.5 100t-26 158v502h-172v213h172v244l223 63v-307h231v-213h-231zM635 1659l219 -14q0 -181 -19 -289t-75 -211l-230 26q64 111 84.5 218t20.5 270z" />
    <glyph glyph-name="Tbar" unicode="&#x166;" horiz-adv-x="1165" 
d="M694 909h289v-213h-289v-696h-223v696h-291v213h291v353h-442v213h1106v-213h-441v-353z" />
    <glyph glyph-name="tbar" unicode="&#x167;" horiz-adv-x="694" 
d="M428 674h231v-213h-231v-131q0 -65 40 -98t99 -33q57 0 86 16v-219q-65 -10 -108 -10q-75 0 -133 15t-106.5 50t-74.5 100t-26 158v152h-172v213h172v137h-172v213h172v244l223 63v-307h231v-213h-231v-137z" />
    <glyph glyph-name="Utilde" unicode="&#x168;" horiz-adv-x="1316" 
d="M1214 1475v-969q0 -100 -31 -185.5t-84.5 -146.5t-125 -104t-151.5 -63.5t-165 -20.5t-165 20.5t-151 63.5t-124 104t-84 146.5t-31 185.5v969h224v-969q0 -144 98.5 -225.5t232.5 -81.5q86 0 160.5 33.5t124 105t49.5 168.5v969h223zM541 1753q-30 0 -42.5 -23
t-19.5 -75l-160 65q20 112 72 170t123 58q44 0 94 -27t93.5 -53.5t72.5 -26.5q30 0 42.5 23t19.5 75l159 -65q-20 -112 -71.5 -169.5t-122.5 -57.5q-39 0 -79 16.5t-66.5 36.5t-58 36.5t-56.5 16.5z" />
    <glyph glyph-name="utilde" unicode="&#x169;" horiz-adv-x="1042" 
d="M102 1024h224v-637q0 -91 53 -139.5t125 -48.5q83 0 148 62t65 163v600h223v-1024h-182l-31 137q-53 -73 -127 -112t-154 -39q-139 0 -241.5 100t-102.5 262v676zM403 1303q-30 0 -42 -23t-19 -76l-160 66q20 112 71.5 169.5t123.5 57.5q44 0 94 -26.5t93.5 -53
t72.5 -26.5q30 0 42 22.5t19 75.5l160 -66q-20 -112 -71.5 -169.5t-122.5 -57.5q-50 0 -99 27t-90 53.5t-72 26.5z" />
    <glyph glyph-name="Umacron" unicode="&#x16a;" horiz-adv-x="1316" 
d="M1214 1475v-969q0 -100 -31 -185.5t-84.5 -146.5t-125 -104t-151.5 -63.5t-165 -20.5t-165 20.5t-151 63.5t-124 104t-84 146.5t-31 185.5v969h224v-969q0 -144 98.5 -225.5t232.5 -81.5q86 0 160.5 33.5t124 105t49.5 168.5v969h223zM317 1872h680v-213h-680v213z" />
    <glyph glyph-name="umacron" unicode="&#x16b;" horiz-adv-x="1042" 
d="M102 1024h224v-637q0 -91 53 -139.5t125 -48.5q83 0 148 62t65 163v600h223v-1024h-182l-31 137q-53 -73 -127 -112t-154 -39q-139 0 -241.5 100t-102.5 262v676zM180 1421h680v-213h-680v213z" />
    <glyph glyph-name="Ubreve" unicode="&#x16c;" horiz-adv-x="1316" 
d="M1214 1475v-969q0 -100 -31 -185.5t-84.5 -146.5t-125 -104t-151.5 -63.5t-165 -20.5t-165 20.5t-151 63.5t-124 104t-84 146.5t-31 185.5v969h224v-969q0 -144 98.5 -225.5t232.5 -81.5q86 0 160.5 33.5t124 105t49.5 168.5v969h223zM772 1987h211q0 -81 -27 -145
t-73 -103t-102.5 -59.5t-118.5 -20.5t-119.5 20.5t-105 59.5t-75.5 103.5t-28 144.5h211q0 -63 33 -98.5t79 -35.5t80.5 36t34.5 98z" />
    <glyph glyph-name="ubreve" unicode="&#x16d;" horiz-adv-x="1042" 
d="M102 1024h224v-637q0 -91 53 -139.5t125 -48.5q83 0 148 62t65 163v600h223v-1024h-182l-31 137q-53 -73 -127 -112t-154 -39q-139 0 -241.5 100t-102.5 262v676zM635 1536h211q0 -81 -27.5 -145t-73 -103t-102.5 -59.5t-119 -20.5t-119.5 20.5t-104.5 59.5t-75 103
t-28 145h211q0 -63 33 -98t79 -35t80.5 35.5t34.5 97.5z" />
    <glyph glyph-name="Uring" unicode="&#x16e;" horiz-adv-x="1316" 
d="M1214 1475v-969q0 -100 -31 -185.5t-84.5 -146.5t-125 -104t-151.5 -63.5t-165 -20.5t-165 20.5t-151 63.5t-124 104t-84 146.5t-31 185.5v969h224v-969q0 -144 98.5 -225.5t232.5 -81.5q86 0 160.5 33.5t124 105t49.5 168.5v969h223zM471 1800q0 79 54 134t132 55
q79 0 134 -54.5t55 -134.5q0 -78 -55 -132t-134 -54q-78 0 -132 54t-54 132zM598 1800q0 -25 17 -42t42 -17t42.5 17t17.5 42t-17.5 42.5t-42.5 17.5t-42 -17.5t-17 -42.5z" />
    <glyph glyph-name="uring" unicode="&#x16f;" horiz-adv-x="1042" 
d="M102 1024h224v-637q0 -91 53 -139.5t125 -48.5q83 0 148 62t65 163v600h223v-1024h-182l-31 137q-53 -73 -127 -112t-154 -39q-139 0 -241.5 100t-102.5 262v676zM334 1350q0 79 54 133.5t132 54.5q80 0 134.5 -54.5t54.5 -133.5q0 -78 -55 -132.5t-134 -54.5
q-78 0 -132 54.5t-54 132.5zM461 1350q0 -25 17 -42.5t42 -17.5t42.5 17.5t17.5 42.5t-17.5 42t-42.5 17t-42 -17t-17 -42z" />
    <glyph glyph-name="Uhungarumlaut" unicode="&#x170;" horiz-adv-x="1316" 
d="M1214 1475v-969q0 -100 -31 -185.5t-84.5 -146.5t-125 -104t-151.5 -63.5t-165 -20.5t-165 20.5t-151 63.5t-124 104t-84 146.5t-31 185.5v969h224v-969q0 -144 98.5 -225.5t232.5 -81.5q86 0 160.5 33.5t124 105t49.5 168.5v969h223zM532 1618l-219 18l144 312l268 -23z
M934 1618l-219 18l143 312l268 -23z" />
    <glyph glyph-name="uhungarumlaut" unicode="&#x171;" horiz-adv-x="1042" 
d="M102 1024h224v-637q0 -91 53 -139.5t125 -48.5q83 0 148 62t65 163v600h223v-1024h-182l-31 137q-53 -73 -127 -112t-154 -39q-139 0 -241.5 100t-102.5 262v676zM406 1167l-220 19l144 311l268 -22zM807 1167l-219 19l143 311l268 -22z" />
    <glyph glyph-name="Uogonek" unicode="&#x172;" horiz-adv-x="1316" 
d="M1214 1475v-1067q0 -76 -14 -145t-34 -121t-39.5 -102t-33.5 -111t-14 -126q0 -75 33 -121.5t102 -80.5l-200 -72q-140 74 -140 242t117 354l-8 6q-148 -145 -352 -145q-101 0 -196 37.5t-169 103t-119 165t-45 214.5v969h224v-969q0 -144 98.5 -225.5t232.5 -81.5
q86 0 160.5 33.5t124 105t49.5 168.5v969h223z" />
    <glyph glyph-name="uogonek" unicode="&#x173;" horiz-adv-x="1042" 
d="M940 1024v-1024q-78 -119 -78 -219q0 -124 135 -180l-200 -72q-140 80 -140 223q0 126 101 248l-31 137q-53 -73 -127 -112t-154 -39q-139 0 -241.5 100t-102.5 262v676h224v-637q0 -91 53 -139.5t125 -48.5q83 0 148 62t65 163v600h223z" />
    <glyph glyph-name="Wcircumflex" unicode="&#x174;" horiz-adv-x="1765" 
d="M883 193q-59 -104 -153 -155.5t-200 -51.5q-108 0 -201.5 51t-154.5 155t-61 242v1041h223v-1039q0 -113 64 -175t153 -62q87 0 153 62t66 175v1039h221v-1039q0 -113 66 -175t153 -62q89 0 153.5 62t64.5 175v1039h223v-1041q0 -104 -35.5 -190.5t-94.5 -142
t-133.5 -85.5t-154.5 -30q-106 0 -199.5 51.5t-152.5 155.5zM883 1790l-86 -131h-250l211 268q48 60 125 60t125 -60l211 -268h-250z" />
    <glyph glyph-name="wcircumflex" unicode="&#x175;" horiz-adv-x="1466" 
d="M733 141q-61 -79 -138 -117t-159 -38q-136 0 -235 98t-99 256v684h226v-678q0 -69 43.5 -108t103.5 -39t104 38.5t44 106.5v680h221v-680q0 -68 43.5 -106.5t103.5 -38.5t104 39t44 108v678h225v-684q0 -158 -99 -256t-235 -98q-82 0 -159 38t-138 117zM733 1339
l-86 -131h-250l211 269q47 59 125 59t125 -59l211 -269h-250z" />
    <glyph glyph-name="Ycircumflex" unicode="&#x176;" horiz-adv-x="1251" 
d="M737 0h-223v606q-206 42 -335.5 180.5t-129.5 335.5v353h223v-318q0 -157 93 -249.5t258 -92.5t257.5 92.5t92.5 249.5v318h223v-353q0 -197 -127 -335.5t-332 -180.5v-606zM625 1790l-86 -131h-250l211 268q48 60 125 60t125 -60l211 -268h-250z" />
    <glyph glyph-name="ycircumflex" unicode="&#x177;" horiz-adv-x="1042" 
d="M717 6v121q-102 -141 -271 -141q-139 0 -241.5 100t-102.5 262v676h224v-637q0 -91 53 -139.5t125 -48.5q83 0 148 62t65 163v600h223v-1036q0 -109 -37.5 -199t-101 -147t-145 -88t-171.5 -31q-109 0 -206.5 38t-165.5 105l71 209q139 -139 310 -139q97 0 160 72.5
t63 197.5zM520 1339l-86 -131h-250l211 269q47 59 125 59t125 -59l211 -269h-250z" />
    <glyph glyph-name="Ydieresis" unicode="&#x178;" horiz-adv-x="1251" 
d="M737 0h-223v606q-206 42 -335.5 180.5t-129.5 335.5v353h223v-318q0 -157 93 -249.5t258 -92.5t257.5 92.5t92.5 249.5v318h223v-353q0 -197 -127 -335.5t-332 -180.5v-606zM248 1833q0 66 45 111t108 45q66 0 111 -45t45 -111q0 -63 -45.5 -108.5t-110.5 -45.5
q-63 0 -108 45.5t-45 108.5zM692 1833q0 65 45 110.5t109 45.5q66 0 110.5 -45t44.5 -111q0 -64 -45 -109t-110 -45q-63 0 -108.5 45.5t-45.5 108.5z" />
    <glyph glyph-name="Zacute" unicode="&#x179;" horiz-adv-x="1259" 
d="M1085 1159l-745 -946h838v-213h-922q-82 0 -127 52.5t-45 125.5q0 72 43 127l760 957h-762v213h846q91 0 134.5 -41.5t43.5 -106.5q0 -84 -64 -168zM682 1618l-219 18l143 312l268 -23z" />
    <glyph glyph-name="zacute" unicode="&#x17a;" horiz-adv-x="909" 
d="M770 713l-494 -500h566v-213h-623q-76 0 -123 54t-47 126q0 74 47 121l504 510h-504v213h566q83 0 125 -46.5t42 -115.5q0 -87 -59 -149zM551 1167l-219 19l143 311l268 -22z" />
    <glyph glyph-name="Zdotaccent" unicode="&#x17b;" horiz-adv-x="1259" 
d="M1085 1159l-745 -946h838v-213h-922q-82 0 -127 52.5t-45 125.5q0 72 43 127l760 957h-762v213h846q91 0 134.5 -41.5t43.5 -106.5q0 -84 -64 -168zM475 1833q0 65 45.5 110.5t108.5 45.5q66 0 110.5 -45t44.5 -111q0 -64 -45 -109t-110 -45q-63 0 -108.5 45.5
t-45.5 108.5z" />
    <glyph glyph-name="zdotaccent" unicode="&#x17c;" horiz-adv-x="909" 
d="M770 713l-494 -500h566v-213h-623q-76 0 -123 54t-47 126q0 74 47 121l504 510h-504v213h566q83 0 125 -46.5t42 -115.5q0 -87 -59 -149zM299 1382q0 66 45.5 111t108.5 45q66 0 110.5 -45t44.5 -111q0 -64 -45 -108.5t-110 -44.5q-63 0 -108.5 45t-45.5 108z" />
    <glyph glyph-name="Zcaron" unicode="&#x17d;" horiz-adv-x="1259" 
d="M1085 1159l-745 -946h838v-213h-922q-82 0 -127 52.5t-45 125.5q0 72 43 127l760 957h-762v213h846q91 0 134.5 -41.5t43.5 -106.5q0 -84 -64 -168zM580 1987l86 -132l86 132h249l-210 -269q-47 -59 -125 -59t-125 59l-211 269h250z" />
    <glyph glyph-name="zcaron" unicode="&#x17e;" horiz-adv-x="909" 
d="M770 713l-494 -500h566v-213h-623q-76 0 -123 54t-47 126q0 74 47 121l504 510h-504v213h566q83 0 125 -46.5t42 -115.5q0 -87 -59 -149zM393 1536l86 -131l86 131h250l-211 -268q-48 -60 -125 -60t-125 60l-211 268h250z" />
    <glyph glyph-name="uni018f" unicode="&#x18f;" horiz-adv-x="1269" 
d="M92 500v164q0 68 38.5 114.5t113.5 46.5h700v129q0 159 -88.5 240.5t-220.5 81.5q-102 0 -200 -49t-169 -140l-147 162q109 122 230 181t286 59q105 0 198.5 -33t169 -97t120 -168.5t44.5 -236.5v-454q0 -98 -30.5 -182.5t-83 -144.5t-122 -103t-148 -63.5t-160.5 -20.5
q-103 0 -196.5 32.5t-169 94t-120.5 162t-45 225.5zM623 199q62 0 118 18.5t102 54.5t73.5 95t27.5 133v112h-629v-100q0 -151 90 -232t218 -81z" />
    <glyph glyph-name="florin" unicode="&#x192;" horiz-adv-x="692" 
d="M406 610v-737q0 -91 -24.5 -158.5t-67 -105.5t-93 -56t-108.5 -18q-100 0 -181 43l37 201q67 -31 105 -31q46 0 77 32.5t31 96.5v733h-145v213h145v430q0 91 24.5 158.5t67 105.5t93 56t108.5 18q99 0 180 -43l-37 -200q-65 30 -104 30q-46 0 -77 -32.5t-31 -96.5v-426
h227v-213h-227z" />
    <glyph glyph-name="uni01EA" unicode="&#x1ea;" horiz-adv-x="1294" 
d="M778 0q-78 -119 -78 -223q0 -122 136 -176l-201 -72q-65 36 -102 99t-37 136q0 128 88 226q-97 9 -185 49t-157 106.5t-109.5 165.5t-40.5 217v418q0 103 31 191.5t84 152t124 109t151.5 68t164.5 22.5t164 -22.5t150.5 -68t124.5 -109t85 -152.5t31 -191v-418
q0 -212 -120.5 -350.5t-303.5 -177.5zM979 528v418q0 78 -28.5 142t-75.5 104t-106 62t-122 22t-122 -22t-106 -62t-75.5 -104t-28.5 -142v-418q0 -103 49 -179.5t123 -113t160 -36.5t160 36.5t123 113t49 179.5z" />
    <glyph glyph-name="uni01EB" unicode="&#x1eb;" horiz-adv-x="1003" 
d="M616 0q-77 -118 -77 -223q0 -122 135 -176l-201 -72q-65 36 -102 99t-37 136q0 132 92 228q-70 10 -131 40t-109 77.5t-76 118t-28 155.5v258q0 96 35.5 173t95.5 125t134 73.5t155 25.5q80 0 154 -25.5t134 -73.5t96 -125.5t36 -172.5v-258q0 -152 -87 -252t-219 -131z
M305 641v-258q0 -86 58 -135t139 -49q78 0 137 49t59 135v258q0 86 -59 135t-137 49q-81 0 -139 -49t-58 -135z" />
    <glyph glyph-name="Scommaaccent" unicode="&#x218;" horiz-adv-x="1185" 
d="M68 119l12 233q72 -56 231 -104.5t297 -48.5q125 0 204 59.5t79 177.5q0 50 -28.5 86.5t-77 59t-111 40t-131.5 33.5t-138 35.5t-131.5 50t-111 71.5t-77 107t-28.5 150q0 86 29.5 160t88 133t156.5 93t226 34q208 0 465 -80l-43 -201q-254 68 -410 68q-129 0 -208.5 -49
t-79.5 -158q0 -52 28.5 -89.5t76.5 -59t110.5 -37.5t132 -30t138.5 -31.5t131.5 -47.5t110.5 -72t76.5 -110.5t28.5 -157.5q0 -96 -28.5 -173t-77 -127.5t-116 -84.5t-142.5 -48.5t-160 -14.5q-137 0 -275.5 36t-246.5 97zM504 -135l223 33v-60q0 -106 -22.5 -178
t-71.5 -129l-234 37q59 64 82 120t23 144v33z" />
    <glyph glyph-name="scommaaccent" unicode="&#x219;" horiz-adv-x="841" 
d="M362 -135l224 33v-60q0 -106 -22.5 -178t-71.5 -129l-234 37q59 64 81.5 120t22.5 144v33zM756 981l-35 -201q-153 45 -293 45q-158 0 -158 -94q0 -24 22.5 -43t59.5 -31t84 -26.5t96.5 -29t96.5 -40t84 -58t59.5 -84t22.5 -116.5q0 -70 -21 -124.5t-57 -90t-87.5 -59
t-109.5 -33.5t-127 -10q-149 0 -323 43l22 217q48 -16 137 -31.5t166 -15.5t126.5 26.5t49.5 79.5q0 31 -29 53t-75 37t-102 30.5t-112 38.5t-102 54.5t-75 86t-29 126.5q0 83 28 144t79.5 96t116 51t145.5 16q153 0 340 -57z" />
    <glyph glyph-name="uni0259" unicode="&#x259;" horiz-adv-x="978" 
d="M305 612h389v39q0 91 -58 132.5t-147 41.5q-139 0 -260 -114l-110 168q66 76 167 117.5t212 41.5q82 0 156 -23.5t133.5 -68.5t95 -118t35.5 -164v-275q0 -189 -112.5 -296t-295.5 -107q-78 0 -151 25t-133.5 72t-97 124.5t-36.5 173.5q0 115 60 173t153 58zM694 408
h-379q1 -91 57.5 -150t137.5 -59q85 0 134.5 58.5t49.5 150.5z" />
    <glyph glyph-name="circumflex" unicode="&#x2c6;" horiz-adv-x="671" 
d="M336 1339l-86 -131h-250l211 269q47 59 125 59t125 -59l211 -269h-250z" />
    <glyph glyph-name="caron" unicode="&#x2c7;" horiz-adv-x="671" 
d="M250 1536l86 -131l86 131h250l-211 -268q-48 -60 -125 -60t-125 60l-211 268h250z" />
    <glyph glyph-name="breve" unicode="&#x2d8;" horiz-adv-x="679" 
d="M453 1536h211q0 -81 -27.5 -145t-73 -103t-102.5 -59.5t-119 -20.5t-119.5 20.5t-105 59.5t-75.5 103.5t-28 144.5h211q0 -63 33.5 -98t79.5 -35t80.5 35.5t34.5 97.5z" />
    <glyph glyph-name="dotaccent" unicode="&#x2d9;" horiz-adv-x="389" 
d="M39 1382q0 66 45.5 111t108.5 45q66 0 110.5 -45t44.5 -111q0 -64 -45 -108.5t-110 -44.5q-63 0 -108.5 45t-45.5 108z" />
    <glyph glyph-name="ring" unicode="&#x2da;" horiz-adv-x="452" 
d="M39 1350q0 79 54 133.5t132 54.5q80 0 134.5 -54.5t54.5 -133.5q0 -78 -55 -132.5t-134 -54.5q-78 0 -132 54.5t-54 132.5zM166 1350q0 -25 17 -42.5t42 -17.5t42.5 17.5t17.5 42.5t-17.5 42t-42.5 17t-42 -17t-17 -42z" />
    <glyph glyph-name="ogonek" unicode="&#x2db;" horiz-adv-x="409" 
d="M143 0l183 -63q-78 -89 -78 -170q0 -57 32.5 -94.5t102.5 -71.5l-201 -72q-65 36 -102 99t-37 136q0 136 100 236z" />
    <glyph glyph-name="tilde" unicode="&#x2dc;" horiz-adv-x="714" 
d="M246 1303q-30 0 -42.5 -23.5t-19.5 -75.5l-159 66q20 112 71.5 169.5t122.5 57.5q44 0 94 -26.5t93.5 -53t72.5 -26.5q30 0 42.5 23t19.5 75l159 -66q-20 -112 -71.5 -169.5t-122.5 -57.5q-50 0 -99 27t-89.5 53.5t-71.5 26.5z" />
    <glyph glyph-name="hungarumlaut" unicode="&#x2dd;" horiz-adv-x="880" 
d="M260 1167l-219 19l143 311l269 -22zM662 1167l-220 19l144 311l268 -22z" />
    <glyph glyph-name="pi" unicode="&#x3c0;" horiz-adv-x="1193" 
d="M1114 211l10 -211q-55 -14 -123 -14q-256 0 -256 307v518h-292v-811h-224v811h-170v213h1082v-213h-172v-514q0 -98 82 -98q33 0 63 12z" />
    <glyph glyph-name="bahtthai" unicode="&#xe3f;" horiz-adv-x="1126" 
d="M625 -328h-224v328h-137q-75 0 -113 46.5t-38 115.5v966q0 69 38 115.5t113 46.5h137v226h224v-226h18q158 0 261.5 -99t103.5 -249q0 -83 -49.5 -156t-143.5 -114q108 -37 162.5 -117.5t54.5 -179.5q0 -93 -44.5 -177.5t-132 -141t-198.5 -56.5h-32v-328zM633 565h-297
v-352h297q85 0 132.5 55t47.5 125q0 68 -47.5 120t-132.5 52zM336 778h307q68 0 104.5 44.5t36.5 103.5q0 61 -37.5 106t-105.5 45h-305v-299z" />
    <glyph glyph-name="endash" unicode="&#x2013;" horiz-adv-x="819" 
d="M750 457h-684v213h684v-213z" />
    <glyph glyph-name="emdash" unicode="&#x2014;" horiz-adv-x="1024" 
d="M975 457h-918v213h918v-213z" />
    <glyph glyph-name="quoteleft" unicode="&#x2018;" horiz-adv-x="448" 
d="M287 928l-219 14q0 195 19 326.5t75 232.5l229 -26q-64 -109 -84 -238.5t-20 -308.5z" />
    <glyph glyph-name="quoteright" unicode="&#x2019;" horiz-adv-x="448" 
d="M172 1501l219 -14q0 -195 -19 -326.5t-75 -232.5l-229 26q63 108 83.5 239.5t20.5 307.5z" />
    <glyph glyph-name="quotesinglbase" unicode="&#x201a;" horiz-adv-x="458" 
d="M172 111l219 -15q0 -195 -19 -326.5t-75 -232.5l-229 27q63 108 83.5 239.5t20.5 307.5z" />
    <glyph glyph-name="quotedblleft" unicode="&#x201c;" horiz-adv-x="786" 
d="M287 928l-219 14q0 195 19 326.5t75 232.5l229 -26q-64 -109 -84 -238.5t-20 -308.5zM637 928l-219 14q0 195 19 326.5t75 232.5l229 -26q-64 -109 -84 -238.5t-20 -308.5z" />
    <glyph glyph-name="quotedblright" unicode="&#x201d;" horiz-adv-x="786" 
d="M510 1501l219 -14q0 -195 -19 -326.5t-75 -232.5l-229 26q63 108 83.5 239.5t20.5 307.5zM160 1501l219 -14q0 -195 -19 -326.5t-75 -232.5l-230 26q63 108 84 240.5t21 306.5z" />
    <glyph glyph-name="quotedblbase" unicode="&#x201e;" horiz-adv-x="790" 
d="M510 111l219 -15q0 -195 -19 -326.5t-75 -232.5l-229 27q63 108 83.5 239.5t20.5 307.5zM160 111l219 -15q0 -195 -19 -326.5t-75 -232.5l-230 27q63 108 84 240.5t21 306.5z" />
    <glyph glyph-name="dagger" unicode="&#x2020;" horiz-adv-x="862" 
d="M319 657h-274v213h274v605h224v-605h278v-213h-278v-985h-224v985z" />
    <glyph glyph-name="daggerdbl" unicode="&#x2021;" horiz-adv-x="874" 
d="M543 459h278v-213h-278v-574h-224v574h-274v213h274v198h-274v213h274v605h224v-605h278v-213h-278v-198z" />
    <glyph glyph-name="bullet" unicode="&#x2022;" horiz-adv-x="530" 
d="M43 541q0 92 65.5 157.5t157.5 65.5t157.5 -65.5t65.5 -157.5t-65.5 -158t-157.5 -66t-157.5 66t-65.5 158z" />
    <glyph glyph-name="ellipsis" unicode="&#x2026;" horiz-adv-x="1228" 
d="M59 143q0 60 42 103t102 43t102.5 -43t42.5 -103t-42.5 -101.5t-102.5 -41.5t-102 41.5t-42 101.5zM469 143q0 60 41.5 103t101.5 43t103 -43t43 -103t-43 -101.5t-103 -41.5t-101.5 41.5t-41.5 101.5zM879 143q0 60 41.5 103t101.5 43t102.5 -43t42.5 -103t-42.5 -101.5
t-102.5 -41.5t-101.5 41.5t-41.5 101.5z" />
    <glyph glyph-name="perthousand" unicode="&#x2030;" horiz-adv-x="2023" 
d="M1085 1475h236l-985 -1475h-238zM68 1214q0 111 78 191t190 80q110 0 190 -80.5t80 -190.5q0 -112 -79.5 -190t-190.5 -78q-112 0 -190 78t-78 190zM229 1214q0 -43 32 -74.5t75 -31.5t75.5 31.5t32.5 74.5t-32.5 76t-75.5 33t-75 -33t-32 -76zM809 254q0 111 78 190.5
t190 79.5q110 0 190.5 -80t80.5 -190q0 -112 -80 -190t-191 -78q-113 0 -190.5 78t-77.5 190zM971 254q0 -43 31.5 -75t74.5 -32t76 32t33 75t-33 75.5t-76 32.5t-74.5 -32.5t-31.5 -75.5zM1423 254q0 111 78.5 190.5t190.5 79.5q110 0 190 -80t80 -190q0 -112 -79.5 -190
t-190.5 -78q-113 0 -191 78t-78 190zM1585 254q0 -43 32 -75t75 -32t75.5 32t32.5 75t-32.5 75.5t-75.5 32.5t-75 -32.5t-32 -75.5z" />
    <glyph glyph-name="guilsinglleft" unicode="&#x2039;" horiz-adv-x="618" 
d="M55 516q0 79 60 127l417 326v-264l-245 -189l245 -188v-265l-417 326q-60 48 -60 127z" />
    <glyph glyph-name="guilsinglright" unicode="&#x203a;" horiz-adv-x="618" 
d="M563 516q0 -80 -59 -127l-418 -326v265l246 188l-246 189v264l418 -326q59 -47 59 -127z" />
    <glyph glyph-name="Euro" unicode="&#x20ac;" horiz-adv-x="1167" 
d="M920 801h-875v194h119q7 96 39 177t82.5 139t116 98.5t140 60t154.5 19.5q208 0 385 -127l-71 -203q-147 117 -305 117q-82 0 -149 -29t-113 -94t-54 -158h531v-194zM45 674h875v-195h-533q7 -139 101 -209.5t229 -70.5q99 0 193.5 41.5t164.5 121.5l49 -212
q-77 -78 -189.5 -121t-232.5 -43q-103 0 -196 30.5t-169 89.5t-122.5 155t-50.5 218h-119v195z" />
    <glyph glyph-name="trademark2" unicode="&#x2122;" horiz-adv-x="1452" 
d="M553 1331h-182v-424h-144v424h-182v144h508v-144zM1008 897q-38 0 -69.5 19t-41.5 55l-102 346v-410h-144v447q0 64 39 98.5t94 34.5q43 0 80 -21.5t47 -58.5l97 -350l96 350q10 37 47 58.5t80 21.5q55 0 94 -34.5t39 -98.5v-447h-143v408l-103 -344q-10 -36 -41 -55
t-69 -19z" />
    <glyph glyph-name="Omega" unicode="&#x2126;" horiz-adv-x="1288" 
d="M645 1276q-63 0 -122 -22t-106 -62t-75.5 -104t-28.5 -142v-131q0 -145 80.5 -233.5t204.5 -106.5v-475h-485v213h262v123q-130 65 -207.5 187t-77.5 292v131q0 103 31 191.5t84 152t124 109t151.5 68t164.5 22.5t164.5 -22.5t151.5 -68t124 -109t84 -152t31 -191.5v-131
q0 -170 -77.5 -292t-207.5 -187v-123h263v-213h-486v475q124 18 204.5 106.5t80.5 233.5v131q0 78 -28.5 142t-75.5 104t-106 62t-122 22z" />
    <glyph glyph-name="Delta" unicode="&#x2206;" horiz-adv-x="1335" 
d="M1157 0h-979q-55 0 -86 33.5t-31 93.5q0 48 21 104l432 1151q20 52 61 79.5t93 27.5q51 0 92 -27.5t61 -79.5l432 -1151q21 -55 21 -104q0 -60 -31 -93.5t-86 -33.5zM1026 213l-358 1014l-359 -1014h717z" />
    <glyph glyph-name="product" unicode="&#x220f;" horiz-adv-x="1472" 
d="M1212 0h-223v1260h-506v-1260h-223v1260h-207v213h1368v-213h-209v-1260z" />
    <glyph glyph-name="summation" unicode="&#x2211;" horiz-adv-x="1112" 
d="M834 737q0 -22 -7.5 -41.5t-14.5 -29.5t-24 -31l-329 -422h545v-213h-764q-52 0 -81.5 33t-29.5 82q0 53 41 106l391 516l-391 516q-41 53 -41 107q0 49 29.5 82t81.5 33h764v-213h-545l329 -422q17 -21 24 -31t14.5 -30t7.5 -42z" />
    <glyph glyph-name="minus" unicode="&#x2212;" horiz-adv-x="1034" 
d="M57 793h918v-213h-918v213z" />
    <glyph glyph-name="radical" unicode="&#x221a;" horiz-adv-x="1159" 
d="M612 -14q-102 0 -147 104l-186 479h-220v189h363l190 -531l318 1350h194l-364 -1487q-13 -52 -54.5 -78t-93.5 -26z" />
    <glyph glyph-name="infinity" unicode="&#x221e;" horiz-adv-x="1247" 
d="M391 657q47 0 79 32t32 79t-32 80t-79 33t-79.5 -33t-32.5 -80t32.5 -79t79.5 -32zM627 940q36 67 99 104t136 37q129 0 220.5 -92t91.5 -221t-91.5 -220t-220.5 -91q-73 0 -136 37t-99 104q-36 -67 -99.5 -104t-136.5 -37q-129 0 -220 91t-91 220t91 221t220 92
q73 0 136.5 -37t99.5 -104zM862 657q47 0 80 32t33 79t-33 80t-80 33t-78.5 -32.5t-31.5 -80.5q0 -47 31.5 -79t78.5 -32z" />
    <glyph glyph-name="integral" unicode="&#x222b;" horiz-adv-x="692" 
d="M406 1249v-1376q0 -91 -24.5 -158.5t-67 -105.5t-93 -56t-108.5 -18q-100 0 -181 43l37 201q67 -31 105 -31q46 0 77 32.5t31 96.5v1376q0 91 24.5 158.5t67 105.5t93 56t108.5 18q99 0 180 -43l-37 -200q-65 30 -104 30q-46 0 -77 -32.5t-31 -96.5z" />
    <glyph glyph-name="approxequal" unicode="&#x2248;" horiz-adv-x="1050" 
d="M203 752l-172 118q43 102 119 164t172 62q57 0 112 -19t92 -41.5t81.5 -41.5t82.5 -19q50 0 84 32t70 95l157 -144q-52 -106 -124.5 -152t-167.5 -46q-49 0 -102 19t-92 42.5t-87.5 42.5t-87.5 19q-94 0 -137 -131zM203 330l-172 119q43 102 119 163.5t172 61.5
q57 0 112 -19t92 -41.5t81.5 -41.5t82.5 -19q50 0 84 32t70 95l157 -143q-97 -199 -292 -199q-49 0 -102 19t-92 42.5t-87.5 42.5t-87.5 19q-94 0 -137 -131z" />
    <glyph glyph-name="notequal" unicode="&#x2260;" horiz-adv-x="1024" 
d="M272 369h-194v213h262l68 209h-330v213h397l60 182h221l-60 -182h256v-213h-323l-66 -209h389v-213h-456l-66 -207h-223z" />
    <glyph glyph-name="lessequal" unicode="&#x2264;" horiz-adv-x="1071" 
d="M72 692q0 51 18.5 84.5t65.5 52.5l835 334v-264l-688 -207l688 -207v-264l-835 334q-47 19 -65.5 52.5t-18.5 84.5zM991 0h-917v203h917v-203z" />
    <glyph glyph-name="greaterequal" unicode="&#x2265;" horiz-adv-x="1073" 
d="M1001 692q0 -51 -18 -84.5t-65 -52.5l-836 -334v264l688 207l-688 207v264l836 -334q47 -19 65 -52.5t18 -84.5zM999 0h-917v203h917v-203z" />
    <glyph glyph-name="lozenge" unicode="&#x25ca;" horiz-adv-x="989" 
d="M141 938l201 444q24 54 60 80.5t94 26.5q57 0 92.5 -26.5t60.5 -80.5l201 -444q53 -111 53 -201q0 -85 -53 -200l-201 -445q-24 -54 -59.5 -80t-93.5 -26t-94 26.5t-60 79.5l-201 445q-53 111 -53 200q0 86 53 201zM496 1253l-222 -516l222 -516l221 516z" />
    <glyph glyph-name="Typomancer" horiz-adv-x="1243" 
d="M203 778l389 96l-303 64q-41 12 -76 9t-70 -25l-26 -19zM1079 713l-155 -62q48 -19 76 -58.5t28 -90.5q0 -66 -46 -112t-112 -46q-41 0 -75 18.5t-47 43.5v-349q161 42 264.5 173t103.5 298q0 103 -37 185zM487 211v608l-290 -74q-50 -100 -50 -217q0 -116 51 -217
t140 -168zM713 -113v125q-41 -6 -82 -6q-106 0 -203 41.5t-166.5 111.5t-111 166.5t-41.5 202.5q0 137 63 236l-96 145l164 113q33 28 102 18l143 -12v62q0 85 78 120l185 82v-35l-101 -47v-159l-80 -33l146 -14v159l35 17v-181l440 -45v-12l-184 -82q-67 -30 -116 -35.5
t-116 11.5l-24 6v-172l-35 -31v209l-66 14v-536q0 -78 -80 -117l-196 -88q121 -78 260 -78q46 0 82 8v420l35 31q0 -51 35.5 -87t86.5 -36t87 36t36 87q0 53 -35.5 88t-87.5 35v34l228 97q27 -41 41 -104.5t14 -123.5q0 -184 -115.5 -327.5t-289.5 -180.5v-100l-33 -35z
M252 528q0 -196 162 -311l-37 -18q-76 58 -120 144.5t-44 184.5q0 108 49 201l60 21q-70 -98 -70 -222zM303 965l475 -95q46 -13 98 -9.5t113 30.5l101 45l-754 78q-43 6 -80 -15l-41 -28q24 6 88 -6zM518 827v-604l43 21q53 24 53 82v526zM614 1071v123l-43 -18
q-53 -24 -53 -82v-60zM870 434q-29 0 -48 19.5t-19 48.5t19 48t48 19t47.5 -19t18.5 -48t-18.5 -48.5t-47.5 -19.5z" />
    </font>
</defs>
</svg>
