<?xml version="1.0" standalone="no"?>
<!DOCTYPE svg PUBLIC "-//W3C//DTD SVG 1.1//EN" "http://www.w3.org/Graphics/SVG/1.1/DTD/svg11.dtd" >
<svg xmlns="http://www.w3.org/2000/svg" xmlns:xlink="http://www.w3.org/1999/xlink" version="1.1">
<metadata>
Created by FontForge 20170731 at Thu Apr 14 09:36:33 2022
 By Aleksey,,,
Copyright (c) 2012 by Typomancer. All rights reserved.
</metadata>
<defs>
<font id="Arch" horiz-adv-x="999" >
  <font-face 
    font-family="Arch"
    font-weight="400"
    font-stretch="normal"
    units-per-em="2048"
    panose-1="2 0 0 0 0 0 0 0 0 0"
    ascent="1536"
    descent="-512"
    x-height="1024"
    cap-height="1475"
    bbox="-117 -471 1987 1989"
    underline-thickness="71"
    underline-position="-292"
    unicode-range="U+000D-25CA"
  />
<missing-glyph horiz-adv-x="1269" 
d="M176 0v1350h920v-1350h-920zM319 1221v-1092h633v1092h-633z" />
    <glyph glyph-name=".notdef" horiz-adv-x="1269" 
d="M176 0v1350h920v-1350h-920zM319 1221v-1092h633v1092h-633z" />
    <glyph glyph-name=".null" horiz-adv-x="0" 
 />
    <glyph glyph-name="nonmarkingreturn" horiz-adv-x="682" 
 />
    <glyph glyph-name="NULL" horiz-adv-x="0" 
 />
    <glyph glyph-name="NULL" horiz-adv-x="0" 
 />
    <glyph glyph-name="CR" unicode="&#xd;" horiz-adv-x="614" 
 />
    <glyph glyph-name="space" unicode=" " horiz-adv-x="614" 
 />
    <glyph glyph-name="exclam" unicode="!" horiz-adv-x="409" 
d="M88 102q0 47 35 82t82 35t82 -35t35 -82t-35 -81.5t-82 -34.5t-82 34.5t-35 81.5zM276 410h-143v1065h143v-1065z" />
    <glyph glyph-name="quotedbl" unicode="&#x22;" horiz-adv-x="614" 
d="M231 922h-129v604h129v-604zM508 922h-129v604h129v-604z" />
    <glyph glyph-name="numbersign" unicode="#" horiz-adv-x="1490" 
d="M940 1024l88 451h141l-86 -451h342l-32 -143h-336l-58 -297h340l-32 -144h-334l-84 -440h-146l84 440h-338l-83 -440h-146l84 440h-299l33 144h295l57 297h-299l33 143h293l88 451h141l-86 -451h340zM573 881l-57 -297h340l57 297h-340z" />
    <glyph glyph-name="dollar" unicode="$" horiz-adv-x="1099" 
d="M612 1516v-216q159 -11 344 -65l-26 -119q-218 60 -402 60q-146 0 -221.5 -63t-75.5 -155q0 -63 43 -105.5t111.5 -65t151 -40.5t165.5 -42.5t151.5 -61t111.5 -105t43 -165.5q0 -158 -107.5 -265.5t-288.5 -119.5v-316h-143v320q-201 21 -369 110l6 146
q78 -53 211.5 -93t253.5 -40q132 0 212.5 78.5t80.5 179.5q0 69 -43 115.5t-111 70.5t-151 42t-166 41t-151 57t-111 99.5t-43 159.5q0 148 96 240.5t285 104.5v213h143z" />
    <glyph glyph-name="percent" unicode="%" horiz-adv-x="1376" 
d="M1083 1475h168l-985 -1475h-170zM68 1217q0 114 78 193t190 79q114 0 193 -79t79 -193q0 -113 -79 -191t-193 -78q-112 0 -190 78t-78 191zM201 1217q0 -57 39 -96.5t96 -39.5q60 0 99.5 39.5t39.5 96.5q0 60 -39.5 99.5t-99.5 39.5q-57 0 -96 -39.5t-39 -99.5zM739 254
q0 114 78 193t191 79q114 0 193 -79t79 -193q0 -112 -79 -190t-193 -78q-113 0 -191 78t-78 190zM872 254q0 -57 39.5 -96t96.5 -39q60 0 99.5 39t39.5 96q0 60 -39.5 99.5t-99.5 39.5q-57 0 -96.5 -39.5t-39.5 -99.5z" />
    <glyph glyph-name="ampersand" unicode="&#x26;" horiz-adv-x="1193" 
d="M905 791l146 18q73 -137 73 -277q0 -178 -116 -323l186 -209h-193l-98 109q-160 -123 -371 -123q-92 0 -171 26t-142.5 77.5t-100 138t-36.5 198.5q0 60 21 115.5t62 106t82.5 89.5t100.5 86q-133 225 -133 359q0 97 46.5 168.5t116 105t150.5 33.5q80 0 146.5 -32.5
t110.5 -104t44 -170.5q0 -48 -17 -94.5t-41.5 -83t-67 -77.5t-77 -69t-87.5 -67q103 -152 372 -469q68 95 68 206q0 124 -74 263zM807 217q-274 323 -383 490q-98 -76 -148.5 -141t-50.5 -140q0 -99 45.5 -171.5t115.5 -106t155 -33.5q152 0 266 102zM358 1182
q0 -103 103 -273q105 76 163 142t58 131q0 87 -46 132.5t-112 45.5q-67 0 -116.5 -47.5t-49.5 -130.5z" />
    <glyph glyph-name="quotesingle" unicode="'" horiz-adv-x="354" 
d="M109 922v604h143v-604h-143z" />
    <glyph glyph-name="parenleft" unicode="(" horiz-adv-x="509" 
d="M461 -328h-150q-223 402 -223 942q0 518 207 902h145q-202 -411 -202 -902q0 -538 223 -942z" />
    <glyph glyph-name="parenright" unicode=")" horiz-adv-x="512" 
d="M72 1516h149q223 -402 223 -936q0 -526 -206 -908h-146q203 413 203 908q0 275 -55 502.5t-168 433.5z" />
    <glyph glyph-name="asterisk" unicode="*" horiz-adv-x="792" 
d="M539 883l-142 227l-141 -227l-117 82l144 184l-234 -12v143l236 -12l-146 184l117 82l141 -227l142 227l116 -82l-145 -184l235 12v-143l-233 12l143 -184z" />
    <glyph glyph-name="plus" unicode="+" horiz-adv-x="989" 
d="M567 1094v-342h336v-129h-336v-344h-143v344h-336v129h336v342h143z" />
    <glyph glyph-name="comma" unicode="," horiz-adv-x="411" 
d="M162 223l143 15v-136q0 -106 -22.5 -178t-71.5 -129l-154 27q56 70 80.5 137t24.5 156v108z" />
    <glyph glyph-name="hyphen" unicode="-" horiz-adv-x="905" 
d="M819 504h-731v129h731v-129z" />
    <glyph glyph-name="period" unicode="." horiz-adv-x="409" 
d="M88 119q0 49 35 84t84 35t84 -35t35 -84t-35 -84t-84 -35t-84 35t-35 84z" />
    <glyph glyph-name="slash" unicode="/" horiz-adv-x="819" 
d="M641 1516h141l-589 -1844h-144z" />
    <glyph glyph-name="zero" unicode="0" horiz-adv-x="1085" 
d="M967 961v-590q0 -108 -59.5 -197.5t-156.5 -138.5t-208 -49t-208 49t-156.5 138.5t-59.5 197.5v590q0 108 59.5 197.5t156.5 138.5t208 49t208 -49t156.5 -138.5t59.5 -197.5zM823 371v590q0 107 -84 181.5t-196 74.5t-196.5 -74.5t-84.5 -181.5v-590q0 -108 84 -182
t197 -74t196.5 74t83.5 182z" />
    <glyph glyph-name="one" unicode="1" horiz-adv-x="1085" 
d="M299 932l-102 92l284 272q47 47 115 47q59 0 99 -40.5t40 -114.5v-1188h-143v1210z" />
    <glyph glyph-name="two" unicode="2" horiz-adv-x="1085" 
d="M258 1063l-98 100q70 90 167.5 136.5t200.5 46.5q102 0 187.5 -42.5t140.5 -132t55 -210.5q0 -47 -13.5 -96.5t-45 -103.5t-62.5 -100t-88 -107t-97 -103t-114.5 -109.5t-116 -104t-124.5 -108.5h711v-129h-740q-52 6 -81 42.5t-29 86.5q0 62 53 109q149 127 246.5 217.5
t187 187t132 175t42.5 143.5q0 124 -67.5 190t-167.5 66q-78 0 -152.5 -39.5t-126.5 -114.5z" />
    <glyph glyph-name="three" unicode="3" horiz-adv-x="1085" 
d="M424 635v129h96q119 0 184.5 65.5t65.5 153.5q0 111 -66.5 172.5t-166.5 61.5q-75 0 -148 -35t-131 -105l-82 111q158 158 363 158q157 0 264.5 -98t107.5 -259q0 -90 -42.5 -170t-137.5 -127q221 -81 221 -317q0 -93 -34.5 -168.5t-93 -122.5t-132.5 -72.5t-155 -25.5
q-123 0 -234 54t-180 159l94 100q65 -91 151.5 -137.5t176.5 -46.5q112 0 189 74.5t77 203.5q0 100 -76.5 171t-216.5 71h-94z" />
    <glyph glyph-name="four" unicode="4" horiz-adv-x="1085" 
d="M96 518l430 754q45 74 133 74q59 0 102.5 -38t43.5 -104v-764h217v-133h-217v-307h-143v307h-453q-55 0 -92 44t-37 100q0 41 16 67zM662 1227l-449 -787h449v787z" />
    <glyph glyph-name="five" unicode="5" horiz-adv-x="1085" 
d="M109 70l38 127l9 4q150 -86 327 -86q134 0 222 72.5t88 213.5q0 111 -74.5 180.5t-222.5 69.5h-193q-63 0 -99 41t-36 113q0 13 4 45l37 246q8 57 39 109.5t87.5 89t125.5 36.5h422v-129h-406q-68 0 -103 -50.5t-44 -127.5l-35 -244h221q211 0 315.5 -105.5t104.5 -279.5
q0 -88 -25 -158t-67.5 -116.5t-102 -77t-125 -44t-139.5 -13.5q-197 0 -368 84z" />
    <glyph glyph-name="six" unicode="6" horiz-adv-x="1087" 
d="M657 1346l152 -33q-97 -65 -176.5 -136.5t-140.5 -146.5t-104.5 -141.5t-86.5 -147.5q117 117 272 117q97 0 176.5 -38t128.5 -100.5t75 -139t26 -158.5q0 -85 -28 -162.5t-81 -139t-137.5 -98t-189.5 -36.5q-197 0 -317 125t-120 311q0 116 33.5 235t89 219t128 191.5
t148 160t152.5 118.5zM250 422q0 -145 87 -226t206 -81q118 0 205.5 81t87.5 226t-86 226t-205 81t-207 -81.5t-88 -225.5z" />
    <glyph glyph-name="seven" unicode="7" horiz-adv-x="1087" 
d="M424 0h-164l588 1202h-696v129h667q148 0 148 -133q0 -56 -31 -123z" />
    <glyph glyph-name="eight" unicode="8" horiz-adv-x="1087" 
d="M530 -14q-106 0 -190 35t-134.5 93t-77 128.5t-26.5 146.5q0 127 66.5 230.5t189.5 134.5q-86 46 -127 117t-41 147q0 105 50.5 181.5t126 111.5t163.5 35t163.5 -35t126 -111.5t50.5 -181.5q0 -76 -41 -147t-127 -117q123 -32 189.5 -134.5t66.5 -230.5
q0 -76 -26.5 -146.5t-77 -128.5t-134.5 -93t-190 -35zM530 672q-116 0 -194 -79.5t-78 -191.5q0 -113 80 -192.5t192 -79.5q113 0 193 80t80 192t-78.5 191.5t-194.5 79.5zM530 815q77 0 131 57t54 136q0 91 -55 142.5t-130 51.5t-129.5 -51.5t-54.5 -142.5q0 -79 53.5 -136
t130.5 -57z" />
    <glyph glyph-name="nine" unicode="9" horiz-adv-x="1087" 
d="M428 -14l-152 32q97 65 176.5 136.5t140.5 146.5t104.5 141.5t86.5 147.5q-117 -117 -272 -117q-97 0 -176.5 38t-128.5 100.5t-75 139t-26 158.5q0 85 28 162.5t81.5 139.5t138 98.5t189.5 36.5q196 0 316 -125.5t120 -311.5q0 -144 -50.5 -290t-133 -264.5t-176.5 -212
t-191 -156.5zM836 909q0 145 -87 226.5t-206 81.5q-118 0 -205.5 -81.5t-87.5 -226.5t86 -226t205 -81t207 81.5t88 225.5z" />
    <glyph glyph-name="colon" unicode=":" horiz-adv-x="409" 
d="M88 119q0 49 35 84t84 35t84 -35t35 -84t-35 -84t-84 -35t-84 35t-35 84zM88 815q0 49 35 84t84 35t84 -35t35 -84t-35 -84t-84 -35t-84 35t-35 84z" />
    <glyph glyph-name="semicolon" unicode=";" horiz-adv-x="409" 
d="M88 815q0 49 35 84t84 35t84 -35t35 -84t-35 -84t-84 -35t-84 35t-35 84zM162 223l143 15v-136q0 -106 -22.5 -178t-71.5 -129l-154 27q56 70 80.5 137t24.5 156v108z" />
    <glyph glyph-name="less" unicode="&#x3c;" horiz-adv-x="819" 
d="M733 979l-545 -416l545 -416v-161l-618 479q-45 36 -45 98q0 63 45 99l618 479v-162z" />
    <glyph glyph-name="equal" unicode="=" horiz-adv-x="1024" 
d="M905 453h-817v129h817v-129zM905 791h-817v129h817v-129z" />
    <glyph glyph-name="greater" unicode="&#x3e;" horiz-adv-x="819" 
d="M614 563l-544 416v162l618 -479q45 -36 45 -99q0 -62 -45 -98l-618 -479v161z" />
    <glyph glyph-name="question" unicode="?" horiz-adv-x="858" 
d="M330 102q0 47 34.5 82t81.5 35t82 -35t35 -82t-35 -81.5t-82 -34.5t-81.5 34.5t-34.5 81.5zM231 1184l-149 35q31 128 131.5 199t224.5 71q66 0 127.5 -21.5t111.5 -62t79.5 -105.5t29.5 -145q0 -74 -27.5 -152t-66.5 -142.5t-78 -125t-66.5 -120.5t-27.5 -107v-98h-143
v112q0 59 27.5 125t66.5 125.5t78 120.5t66.5 129.5t27.5 132.5q0 92 -59.5 141.5t-143.5 49.5q-70 0 -128 -44t-81 -118z" />
    <glyph glyph-name="at" unicode="@" horiz-adv-x="1796" 
d="M1083 459l19 84q4 12 4 45q0 85 -56.5 147t-144.5 62q-78 0 -147 -54.5t-88 -146.5l-41 -195q-4 -28 -4 -39q0 -65 38 -110t107 -45q64 0 129 29t116.5 88t67.5 135zM1024 -129l37 -129q-160 -66 -336 -66q-147 0 -270.5 52t-207.5 142.5t-130.5 214.5t-46.5 267
q0 120 39.5 240.5t108.5 224t165 193.5t205.5 153.5t234 100t246.5 36.5q191 0 343 -92.5t234.5 -247t82.5 -337.5q0 -92 -16.5 -183.5t-53.5 -180t-90.5 -156t-134 -109t-177.5 -41.5q-109 0 -171 62.5t-62 138.5q0 34 10 73q-64 -72 -140 -108.5t-151 -36.5
q-116 0 -183.5 73t-67.5 179q0 35 6 65l41 195q28 141 144 231t243 90q160 0 227 -129l39 117h119l-142 -672q-4 -28 -4 -41q0 -48 26 -80t87 -32q90 0 161 83.5t106.5 207.5t35.5 258q0 151 -67.5 272.5t-191.5 191.5t-282 70q-121 0 -243 -42.5t-225 -120t-184 -177
t-127 -222t-46 -247.5q0 -147 65.5 -267.5t190 -192.5t285.5 -72q132 0 268 51z" />
    <glyph glyph-name="A" unicode="A" horiz-adv-x="1310" 
d="M1167 991v-991h-143v563h-737v-563h-144v991q0 212 148.5 355t363.5 143t363.5 -143t148.5 -355zM1024 692v299q0 154 -107.5 261.5t-261.5 107.5t-261 -107.5t-107 -261.5v-299h737z" />
    <glyph glyph-name="B" unicode="B" horiz-adv-x="1189" 
d="M707 731h-420v-602h420q97 0 164.5 45.5t96.5 112.5t29 147q0 57 -16.5 108.5t-50 94.5t-91 68.5t-132.5 25.5zM287 860h444q73 0 127 40t78.5 95t24.5 111q0 92 -63 166t-167 74h-444v-486zM707 0h-420q-60 0 -102 41.5t-42 101.5v1188q0 60 42 102t102 42h444
q106 0 193 -54t133.5 -137.5t46.5 -175.5q0 -87 -47.5 -176.5t-134.5 -136.5q219 -108 219 -361q0 -85 -30 -163t-84.5 -138.5t-137.5 -96.5t-182 -36z" />
    <glyph glyph-name="C" unicode="C" horiz-adv-x="1136" 
d="M133 483v508q0 116 43 212t114.5 157.5t162 95t188.5 33.5q137 0 260 -64.5t193 -189.5l-103 -82q-65 104 -156.5 155.5t-193.5 51.5q-148 0 -256.5 -102t-108.5 -267v-508q0 -166 108 -267t255 -101q221 0 352 200l105 -71q-83 -128 -205 -193t-256 -65q-97 0 -187 34.5
t-160.5 96.5t-112.5 157t-42 209z" />
    <glyph glyph-name="D" unicode="D" horiz-adv-x="1236" 
d="M287 129h362q92 0 167.5 53t122.5 140t72 193.5t25 219.5q0 114 -26 221t-75 195t-128.5 141.5t-177.5 53.5h-342v-1217zM649 0h-362q-60 0 -102 41.5t-42 101.5v1188q0 60 42 102t102 42h342q90 0 169.5 -29t139.5 -80t107.5 -120.5t77.5 -152t45.5 -172t15.5 -182.5
q0 -112 -21.5 -218.5t-65.5 -201t-106.5 -165.5t-150.5 -112.5t-191 -41.5z" />
    <glyph glyph-name="E" unicode="E" horiz-adv-x="1167" 
d="M1106 129v-129h-819q-60 0 -102 41.5t-42 101.5v1188q0 60 42 102t102 42h790v-129h-790v-510h655v-129h-655v-578h819z" />
    <glyph glyph-name="F" unicode="F" horiz-adv-x="1064" 
d="M1016 1475v-129h-729v-541h594v-129h-594v-676h-144v1331q0 60 42 102t102 42h729z" />
    <glyph glyph-name="G" unicode="G" horiz-adv-x="1280" 
d="M133 483v508q0 119 44.5 215.5t119 157t168 93t194.5 32.5q139 0 260.5 -57t198.5 -170l-102 -88q-59 90 -157 138t-200 48q-100 0 -186 -42t-141.5 -128t-55.5 -199v-508q0 -154 107.5 -261t261.5 -107t261.5 107t107.5 261v146q0 45 -45 45h-275v127h287
q176 0 176 -176v-142q0 -212 -148.5 -354.5t-363.5 -142.5t-363.5 142.5t-148.5 354.5z" />
    <glyph glyph-name="H" unicode="H" horiz-adv-x="1310" 
d="M1167 1475v-1475h-143v702h-737v-702h-144v1475h144v-644h737v644h143z" />
    <glyph glyph-name="I" unicode="I" horiz-adv-x="471" 
d="M307 1475v-1475h-143v1475h143z" />
    <glyph glyph-name="J" unicode="J" horiz-adv-x="757" 
d="M625 1475v-1041q0 -105 -34.5 -191t-94 -141.5t-137.5 -85.5t-166 -30q-91 0 -183 30v144q96 -47 185 -47q124 0 205 83.5t81 237.5v1041h144z" />
    <glyph glyph-name="K" unicode="K" horiz-adv-x="1284" 
d="M991 1475h144q0 -206 -79.5 -369.5t-224.5 -271.5q157 -36 246.5 -150t89.5 -285v-399h-143v399q0 143 -93 231.5t-243 119.5q-179 -84 -401 -93v-657h-144v1475h144v-689q203 8 361 91t250.5 238t92.5 360z" />
    <glyph glyph-name="L" unicode="L" horiz-adv-x="1024" 
d="M1004 129v-129h-717q-60 0 -102 41.5t-42 101.5v1332h144v-1346h717z" />
    <glyph glyph-name="M" unicode="M" horiz-adv-x="1589" 
d="M795 -14q-33 0 -60.5 18.5t-38.5 54.5l-399 1246v-1305h-143v1356q0 64 39 98.5t94 34.5q43 0 79 -21.5t48 -58.5l381 -1245l381 1245q12 37 48 58.5t79 21.5q55 0 94 -34.5t39 -98.5v-1356h-144v1305l-399 -1246q-11 -36 -38 -54.5t-60 -18.5z" />
    <glyph glyph-name="N" unicode="N" horiz-adv-x="1310" 
d="M907 66l-620 1239v-1305h-144v1356q0 62 38 96.5t91 34.5q40 0 75.5 -20.5t55.5 -57.5l621 -1239v1305h143v-1356q0 -63 -38 -98t-91 -35q-41 0 -76.5 20.5t-54.5 59.5z" />
    <glyph glyph-name="O" unicode="O" horiz-adv-x="1331" 
d="M1065 514v447q0 164 -117.5 281.5t-281.5 117.5t-282 -117.5t-118 -281.5v-447q0 -164 118 -281.5t282 -117.5t281.5 117.5t117.5 281.5zM1208 961v-447q0 -147 -73 -268.5t-197 -190.5t-272 -69t-272.5 69t-197.5 190.5t-73 268.5v447q0 147 73 268.5t197.5 190.5
t272.5 69t272 -69t197 -190.5t73 -268.5z" />
    <glyph glyph-name="P" unicode="P" horiz-adv-x="1208" 
d="M287 774h493q78 0 138.5 45.5t90 111t29.5 136.5q0 69 -28 131.5t-88.5 105t-141.5 42.5h-493v-572zM780 645h-493v-645h-144v1331q0 60 42 102t102 42h493q96 0 174 -34.5t126.5 -92.5t75 -130.5t26.5 -150.5q0 -106 -46 -201t-140 -158t-216 -63z" />
    <glyph glyph-name="Q" unicode="Q" horiz-adv-x="1331" 
d="M666 -14q-148 0 -272.5 69t-197.5 190.5t-73 268.5v447q0 147 73 268.5t197.5 190.5t272.5 69t272 -69t197 -190.5t73 -268.5v-447q0 -135 -73.5 -254t-190.5 -178q196 -22 359 -96v-164l-9 -6q-123 77 -292.5 123.5t-335.5 46.5zM1065 514v447q0 164 -117.5 281.5
t-281.5 117.5t-282 -117.5t-118 -281.5v-447q0 -167 114 -283t288 -116q160 0 278.5 119t118.5 280z" />
    <glyph glyph-name="R" unicode="R" horiz-adv-x="1255" 
d="M719 676h-432v-676h-144v1331q0 60 42 102t102 42h473q89 0 163 -34t120.5 -90.5t72 -126.5t25.5 -145q0 -110 -55 -200.5t-164 -139.5q115 -47 180 -150.5t65 -238.5v-350h-143v334q0 144 -91.5 243t-213.5 99zM287 805h473q75 0 131 42t82 102.5t26 125.5
q0 106 -64 188.5t-175 82.5h-473v-541z" />
    <glyph glyph-name="S" unicode="S" horiz-adv-x="1146" 
d="M80 102l6 146q263 -133 498 -133q75 0 136.5 16t112 51t79 97.5t28.5 148.5q0 64 -30 109.5t-80.5 72t-116 45t-138 32.5t-145 30.5t-138 44.5t-116 67.5t-80.5 106.5t-30 156q0 82 28.5 152t85 126t151.5 87.5t218 31.5q218 0 438 -68l-26 -118q-211 57 -383 57
q-62 0 -115 -8t-100.5 -27.5t-81 -49.5t-53 -76.5t-19.5 -106.5q0 -66 30 -112t80.5 -71.5t116 -43t138 -30.5t145 -28t138 -42.5t116 -67.5t80.5 -109t30 -162q0 -113 -37.5 -198.5t-106 -137.5t-158 -78t-199.5 -26q-125 0 -259 30.5t-243 85.5z" />
    <glyph glyph-name="T" unicode="T" horiz-adv-x="1064" 
d="M1053 1346h-449v-1346h-143v1346h-451v129h1043v-129z" />
    <glyph glyph-name="U" unicode="U" horiz-adv-x="1331" 
d="M123 1475h143v-986q0 -162 116.5 -268t283.5 -106t283 106t116 268v986h143v-986q0 -146 -73 -262t-196.5 -178.5t-272.5 -62.5t-272.5 62.5t-197 178.5t-73.5 262v986z" />
    <glyph glyph-name="V" unicode="V" horiz-adv-x="1298" 
d="M6 1475h160l483 -1342l484 1342h159l-526 -1409q-33 -80 -117 -80t-117 80z" />
    <glyph glyph-name="W" unicode="W" horiz-adv-x="1740" 
d="M870 199q-98 -213 -338 -213q-171 0 -290 107.5t-119 273.5v1108h143v-1108q0 -109 77 -180.5t189 -71.5q110 0 188.5 69.5t78.5 182.5v1108h143v-1108q0 -113 78 -182.5t188 -69.5q112 0 189.5 71.5t77.5 180.5v1108h143v-1108q0 -110 -56 -198t-149.5 -135.5
t-204.5 -47.5q-240 0 -338 213z" />
    <glyph glyph-name="X" unicode="X" horiz-adv-x="1329" 
d="M672 674q-168 0 -278.5 -110.5t-110.5 -272.5v-291h-144v305q0 147 80 261t227 171q-147 57 -227 171t-80 261v306h144v-291q0 -161 110 -271t279 -110t279 110t110 271v291h143v-306q0 -147 -80 -261t-227 -171q147 -57 227 -171t80 -261v-305h-143v291
q0 162 -110.5 272.5t-278.5 110.5z" />
    <glyph glyph-name="Y" unicode="Y" horiz-adv-x="1228" 
d="M686 0h-143v641q-217 25 -354.5 159.5t-137.5 334.5v340h144v-326q0 -171 115.5 -276t303.5 -105t304 105t116 276v326h144v-340q0 -200 -137.5 -334.5t-354.5 -159.5v-641z" />
    <glyph glyph-name="Z" unicode="Z" horiz-adv-x="1232" 
d="M1059 1219l-848 -1090h950v-129h-948q-63 0 -97 39.5t-34 97.5q0 62 35 105l864 1104h-858v129h854q68 0 99.5 -33.5t31.5 -87.5q0 -73 -49 -135z" />
    <glyph glyph-name="bracketleft" unicode="[" horiz-adv-x="614" 
d="M154 -164v1516q0 68 48 116t115 48h177v-130h-197v-1585h197v-129h-177q-67 0 -115 48t-48 116z" />
    <glyph glyph-name="backslash" unicode="\" horiz-adv-x="819" 
d="M190 1516l592 -1844h-143l-590 1844h141z" />
    <glyph glyph-name="bracketright" unicode="]" horiz-adv-x="614" 
d="M494 1352v-1516q0 -68 -48 -116t-116 -48h-176v129h196v1585h-196v130h176q68 0 116 -48t48 -116z" />
    <glyph glyph-name="asciicircum" unicode="^" horiz-adv-x="1226" 
d="M614 1372l-415 -545h-162l479 619q36 45 98 45q63 0 99 -45l479 -619h-162z" />
    <glyph glyph-name="underscore" unicode="_" horiz-adv-x="1024" 
d="M938 -129h-850v129h850v-129z" />
    <glyph glyph-name="grave" unicode="`" horiz-adv-x="409" 
d="M393 1196l-131 -29l-209 308l178 22z" />
    <glyph glyph-name="a" unicode="a" 
d="M735 0l-12 143q-52 -79 -126.5 -118t-156.5 -39q-136 0 -237 95t-101 247v364q0 101 50.5 181.5t128.5 122.5t165 42q173 0 277 -139l14 125h129v-1024h-131zM723 379v272q0 115 -84 186.5t-188 71.5q-86 0 -145.5 -56.5t-59.5 -160.5v-364q0 -104 57 -158.5t143 -54.5
q67 0 129.5 31t105 93t42.5 140z" />
    <glyph glyph-name="b" unicode="b" 
d="M276 651v-272q0 -77 42 -139t104 -93.5t129 -31.5q86 0 144.5 56.5t58.5 166.5v348q0 110 -59 166.5t-146 56.5q-104 0 -188.5 -72t-84.5 -186zM276 143l-22 -143h-121v1577h143v-678q49 69 125 104t156 35q137 0 238.5 -98.5t101.5 -253.5v-348q0 -156 -103 -254
t-239 -98q-81 0 -154 39t-125 118z" />
    <glyph glyph-name="c" unicode="c" horiz-adv-x="901" 
d="M102 354v299q0 93 34 168.5t90 121.5t124.5 70.5t141.5 24.5q109 0 209 -53t167 -154l-114 -77q-43 76 -112.5 115.5t-147.5 39.5q-104 0 -176 -65.5t-72 -186.5v-295q0 -122 71.5 -184.5t176.5 -62.5q89 0 165.5 47t116.5 133l107 -72q-39 -79 -102.5 -133.5t-136 -79
t-152.5 -24.5q-76 0 -145 24t-124 69t-88 116t-33 159z" />
    <glyph glyph-name="d" unicode="d" 
d="M723 371v280q0 114 -84 186t-188 72q-87 0 -146 -56.5t-59 -166.5v-348q0 -110 60 -166.5t147 -56.5q104 0 187 71t83 185zM745 0l-22 131q-61 -72 -137 -108.5t-154 -36.5q-136 0 -233 97.5t-97 254.5v348q0 155 101.5 253.5t238.5 98.5q80 0 156 -35t125 -104v678h143
v-1577h-121z" />
    <glyph glyph-name="e" unicode="e" horiz-adv-x="923" 
d="M743 276l101 -86q-54 -93 -151.5 -148.5t-209.5 -55.5q-168 0 -284.5 107t-116.5 261v299q0 95 33 170t88.5 121t124.5 70t145 24t145 -25t124.5 -72t88.5 -123t33 -171q0 -87 -50 -140.5t-126 -53.5h-463v-91q0 -117 72.5 -182t177.5 -65q82 0 154.5 41t113.5 120z
M225 653v-71h447q24 0 36.5 20.5t12.5 54.5q0 117 -74.5 184.5t-173.5 67.5q-100 0 -174 -68t-74 -188z" />
    <glyph glyph-name="f" unicode="f" horiz-adv-x="675" 
d="M369 0h-144v895h-178v129h178v219q0 179 72.5 263.5t187.5 84.5q65 0 150 -30l-25 -123q-81 24 -116 24q-125 0 -125 -233v-205h254v-129h-254v-895z" />
    <glyph glyph-name="g" unicode="g" 
d="M723 395v256q0 114 -84 186t-188 72q-87 0 -146 -54.5t-59 -160.5v-364q0 -106 56 -160.5t140 -54.5q106 0 193.5 78.5t87.5 201.5zM723 -90v250q-50 -84 -124 -129t-157 -45q-86 0 -163 40.5t-127 120.5t-50 181v364q0 101 50.5 181.5t128.5 122.5t165 42
q173 0 277 -139l14 125h129v-1120q0 -155 -109.5 -262t-275.5 -107q-195 0 -329 119l55 119q59 -53 130 -81t140 -28q109 0 177.5 59.5t68.5 186.5z" />
    <glyph glyph-name="h" unicode="h" horiz-adv-x="1030" 
d="M276 0h-143v1577h143v-703q59 82 140.5 123t167.5 41q130 0 221.5 -92t91.5 -252v-694h-143v686q0 112 -54.5 167.5t-136.5 55.5q-107 0 -197 -80.5t-90 -201.5v-627z" />
    <glyph glyph-name="i" unicode="i" horiz-adv-x="430" 
d="M100 1358q0 47 35 82t82 35t82 -35t35 -82t-35 -82t-82 -35t-82 35t-35 82zM287 0h-144v1024h144v-1024z" />
    <glyph glyph-name="j" unicode="j" horiz-adv-x="450" 
d="M184 1024h144v-1085q0 -203 -78 -303.5t-223 -100.5q-71 0 -144 21l19 129q68 -21 123 -21q82 0 120.5 65t38.5 224v1071zM135 1358q0 47 35 82t82 35t82 -35t35 -82t-35 -82t-82 -35t-82 35t-35 82z" />
    <glyph glyph-name="k" unicode="k" horiz-adv-x="954" 
d="M698 1010l142 14q6 -46 6 -88q0 -243 -178 -379q178 -72 178 -238v-319h-144v299q0 71 -43 120.5t-116 63.5q-116 -49 -267 -55v-428h-143v1577h143v-1024q182 5 307.5 109t125.5 262q0 29 -11 86z" />
    <glyph glyph-name="l" unicode="l" horiz-adv-x="450" 
d="M297 0h-143v1577h143v-1577z" />
    <glyph glyph-name="m" unicode="m" horiz-adv-x="1519" 
d="M256 1024l20 -137q40 70 111 110.5t145 40.5q72 0 134.5 -42t105.5 -126q52 82 133 125t170 43q61 0 115.5 -22t99 -64.5t70.5 -112.5t26 -159v-680h-143v678q0 114 -53 172.5t-129 58.5q-88 0 -159 -69.5t-71 -180.5v-659h-143v686q0 110 -50.5 166.5t-125.5 56.5
q-91 0 -163.5 -73t-72.5 -185v-651h-143v1024h123z" />
    <glyph glyph-name="n" unicode="n" horiz-adv-x="1030" 
d="M276 0h-143v1024h131l12 -150q58 82 138 123t168 41q133 0 224 -94t91 -264v-680h-143v680q0 115 -52.5 172t-132.5 57q-109 0 -201 -89t-92 -218v-602z" />
    <glyph glyph-name="o" unicode="o" horiz-adv-x="966" 
d="M483 115q104 0 176 67t72 170v320q0 103 -72 170t-176 67t-175.5 -67t-71.5 -170v-320q0 -103 71.5 -170t175.5 -67zM483 -14q-164 0 -277.5 103.5t-113.5 262.5v320q0 159 113.5 262.5t277.5 103.5t277.5 -103.5t113.5 -262.5v-320q0 -159 -113.5 -262.5t-277.5 -103.5z
" />
    <glyph glyph-name="p" unicode="p" 
d="M276 651v-254q0 -83 46 -149.5t110.5 -99.5t130.5 -33q81 0 136 56.5t55 166.5v348q0 109 -59.5 166t-147.5 57q-104 0 -187.5 -72t-83.5 -186zM276 160v-611h-143v1475h125l18 -125q49 69 125 104t156 35q137 0 238.5 -98.5t101.5 -253.5v-348q0 -107 -49 -189
t-124.5 -122.5t-162.5 -40.5q-176 0 -285 174z" />
    <glyph glyph-name="q" unicode="q" 
d="M723 397v254q0 111 -84.5 184.5t-187.5 73.5q-87 0 -146 -56.5t-59 -166.5v-348q0 -112 54 -167.5t138 -55.5q107 0 196 80.5t89 201.5zM866 -451h-143v611q-47 -88 -122.5 -131t-160.5 -43q-137 0 -237.5 99t-100.5 253v348q0 155 101.5 253.5t238.5 98.5q80 0 156 -35
t125 -104l18 125h125v-1475z" />
    <glyph glyph-name="r" unicode="r" horiz-adv-x="759" 
d="M692 1016v-135q-76 28 -133 28q-115 0 -199 -77.5t-84 -206.5v-625h-143v1024h131l12 -127q54 70 128.5 105.5t156.5 35.5q57 0 131 -22z" />
    <glyph glyph-name="s" unicode="s" horiz-adv-x="837" 
d="M731 989l-14 -127q-147 47 -291 47q-219 0 -219 -164q0 -42 24.5 -72t64.5 -46t91.5 -31.5t105 -27t105 -34t91.5 -51.5t64.5 -80.5t24.5 -119.5q0 -144 -101.5 -220.5t-283.5 -76.5q-147 0 -301 34l17 134q166 -39 276 -39q52 0 95 8.5t79 27t56 53t20 81.5
q0 49 -31.5 82.5t-82 52t-111.5 34t-122 35.5t-111.5 48.5t-82 81.5t-31.5 126q0 137 101.5 215t261.5 78q123 0 305 -49z" />
    <glyph glyph-name="t" unicode="t" horiz-adv-x="655" 
d="M590 135v-127q-77 -22 -121 -22q-117 0 -180.5 65t-63.5 215v629h-205v129h205v266l144 41v-307h243v-129h-243v-629q0 -151 118 -151q56 0 103 20z" />
    <glyph glyph-name="u" unicode="u" horiz-adv-x="1030" 
d="M133 1024h143v-680q0 -113 57.5 -171t143.5 -58q106 0 191.5 78t85.5 200v631h143v-1024h-121l-22 131q-60 -72 -137 -108.5t-158 -36.5q-136 0 -231 95.5t-95 262.5v680z" />
    <glyph glyph-name="v" unicode="v" horiz-adv-x="954" 
d="M795 1024h159l-360 -958q-33 -80 -117 -80t-117 80l-360 958h160l317 -895z" />
    <glyph glyph-name="w" unicode="w" horiz-adv-x="1454" 
d="M727 156q-31 -79 -105.5 -124.5t-156.5 -45.5q-141 0 -236.5 89.5t-95.5 227.5v721h143v-721q0 -79 54.5 -133.5t134.5 -54.5q76 0 133 53.5t57 126.5v729h144v-729q0 -73 57 -126.5t133 -53.5q80 0 134.5 54.5t54.5 133.5v721h143v-721q0 -138 -95.5 -227.5
t-236.5 -89.5q-81 0 -157.5 46t-104.5 124z" />
    <glyph glyph-name="x" unicode="x" horiz-adv-x="966" 
d="M483 449q-108 0 -172.5 -84t-64.5 -187v-178h-144v193q0 104 51.5 188t143.5 131q-92 47 -143.5 131t-51.5 188v193h144v-178q0 -103 64.5 -185.5t172.5 -82.5t173 82.5t65 185.5v178h143v-193q0 -104 -51 -188t-143 -131q92 -47 143 -131t51 -188v-193h-143v178
q0 103 -65 187t-173 84z" />
    <glyph glyph-name="y" unicode="y" 
d="M102 1024h144v-694q0 -106 55.5 -160.5t138.5 -54.5q106 0 194.5 78.5t88.5 201.5v629h143v-1120q0 -111 -56 -197t-144.5 -129t-192.5 -43q-178 0 -321 119l57 121q53 -53 124 -82t144 -29q106 0 176 60t70 180v256q-50 -84 -124 -129t-157 -45q-86 0 -163 40.5
t-127 120.5t-50 181v696z" />
    <glyph glyph-name="z" unicode="z" horiz-adv-x="913" 
d="M770 768l-586 -639h660v-129h-643q-61 0 -99.5 43.5t-38.5 101.5q0 56 41 103l594 647h-594v129h584q65 0 100 -37t35 -92q0 -67 -53 -127z" />
    <glyph glyph-name="braceleft" unicode="{" horiz-adv-x="614" 
d="M199 594q87 -59 122 -157.5t35 -272.5v-8v-70t1.5 -61.5t4 -57.5t8 -47.5t13 -42.5t19 -31.5t27 -25.5t36 -13.5t45.5 -5.5v-129q-53 0 -94.5 8.5t-72 28t-52.5 41.5t-36.5 59.5t-23 70.5t-12.5 85.5t-5 93.5t-1 105q0 44 -0.5 70.5t-4 64t-9.5 61.5t-17.5 52.5t-28 47
t-41.5 35.5t-57 27v144q32 10 57 27t41.5 35.5t28 47t17.5 52.5t9.5 61.5t4 64t0.5 70.5q0 64 1 105t5 93.5t12.5 85.5t23 70.5t36.5 59.5t52.5 41.5t72 28t94.5 8.5v-130q-25 0 -45.5 -5.5t-36 -13.5t-27 -25.5t-19 -31t-13 -42.5t-8 -47.5t-4 -57t-1.5 -61.5v-70v-4v-4
q0 -174 -35 -272.5t-122 -157.5z" />
    <glyph glyph-name="bar" unicode="|" horiz-adv-x="512" 
d="M182 1516h144v-1844h-144v1844z" />
    <glyph glyph-name="braceright" unicode="}" horiz-adv-x="614" 
d="M399 594q-89 59 -123 156.5t-34 273.5v8v70t-1.5 61.5t-4 57t-8 47.5t-13 42.5t-19 31t-27 25.5t-36 13.5t-45.5 5.5v130q53 0 94.5 -8.5t72 -28t52.5 -41.5t36.5 -59.5t23 -70.5t12.5 -85.5t5 -93.5t1 -105q0 -44 0.5 -70.5t4 -64t9.5 -61.5t17.5 -52.5t28 -47
t41.5 -35.5t57 -27v-144q-32 -10 -57 -27t-41.5 -35.5t-28 -47t-17.5 -52.5t-9.5 -61.5t-4 -64t-0.5 -70.5q0 -64 -1 -105t-5 -93.5t-12.5 -85.5t-23 -70.5t-36.5 -59.5t-52.5 -41.5t-72 -28t-94.5 -8.5v129q25 0 45.5 5.5t36 13.5t27 25.5t19 31.5t13 42.5t8 47.5t4 57.5
t1.5 61.5v70v8q0 176 34 273.5t123 156.5z" />
    <glyph glyph-name="asciitilde" unicode="~" horiz-adv-x="1024" 
d="M338 733q-57 0 -97.5 -37t-60.5 -96l-112 94q35 76 109 131.5t161 55.5q47 0 92 -19t79 -46.5t65 -54.5t62 -46t58 -19q49 0 87.5 35.5t74.5 93.5l102 -92q-30 -79 -104.5 -132.5t-159.5 -53.5q-44 0 -84.5 19t-72 46.5t-62 55t-66 46.5t-71.5 19z" />
    <glyph glyph-name="uni00A0" unicode="&#xa0;" horiz-adv-x="2252" 
 />
    <glyph glyph-name="exclamdown" unicode="&#xa1;" horiz-adv-x="409" 
d="M88 1092q0 47 35 81.5t82 34.5t82 -34.5t35 -81.5t-35 -82t-82 -35t-82 35t-35 82zM133 784h143v-1065h-143v1065z" />
    <glyph glyph-name="cent" unicode="&#xa2;" horiz-adv-x="901" 
d="M102 354v299q0 158 90.5 256.5t223.5 120.5v178h143v-176q90 -14 170 -65t139 -136l-114 -77q-43 76 -112.5 115.5t-147.5 39.5q-104 0 -176 -65.5t-72 -186.5v-295q0 -122 71.5 -184.5t176.5 -62.5q89 0 165.5 47t116.5 133l107 -72q-49 -100 -135 -158.5t-189 -72.5
v-197h-143v197q-137 21 -225.5 116t-88.5 246z" />
    <glyph glyph-name="sterling" unicode="&#xa3;" horiz-adv-x="1120" 
d="M422 1112v-287h332v-129h-332v-567h639v-129h-979v129h197v567h-197v129h197v295q0 117 54 202.5t139.5 126t189.5 40.5q188 0 331 -119l-63 -131q-53 59 -123.5 90t-144.5 31q-103 0 -171.5 -63t-68.5 -185z" />
    <glyph glyph-name="yen" unicode="&#xa5;" horiz-adv-x="1228" 
d="M961 506h-695v129h277v106q-217 25 -354.5 159.5t-137.5 334.5v240h144v-226q0 -171 115 -273t304 -102t304.5 102t115.5 273v226h144v-240q0 -200 -137.5 -334.5t-354.5 -159.5v-106h275v-129zM266 401h695v-129h-275v-272h-143v272h-277v129z" />
    <glyph glyph-name="brokenbar" unicode="&#xa6;" horiz-adv-x="509" 
d="M182 1516h144v-805h-144v805zM182 477h144v-805h-144v805z" />
    <glyph glyph-name="section" unicode="&#xa7;" horiz-adv-x="942" 
d="M131 12l12 133q135 -30 258 -30q102 0 168 46t66 124q0 49 -29.5 82.5t-76.5 52t-104 34t-113.5 35.5t-103.5 48.5t-76.5 81.5t-29.5 126q0 183 195 242q-125 76 -125 209q0 137 101.5 215t261.5 78q116 0 280 -49l-8 -121q-174 41 -275 41q-92 0 -154.5 -44.5
t-62.5 -119.5q0 -48 29.5 -79.5t76.5 -49t104 -32t114.5 -35t104.5 -50t76.5 -85t29.5 -132.5q0 -186 -193 -254q121 -63 121 -196q0 -145 -98.5 -221t-280.5 -76q-135 0 -268 26zM246 745q0 -83 65.5 -130.5t171.5 -47.5q100 0 162 45.5t62 122.5q0 78 -69 125t-175 47
q-100 0 -158.5 -42.5t-58.5 -119.5z" />
    <glyph glyph-name="dieresis" unicode="&#xa8;" horiz-adv-x="708" 
d="M49 1358q0 47 35 82t82 35t82 -35t35 -82t-35 -82t-82 -35t-82 35t-35 82zM430 1358q0 47 35 82t82 35t82 -35t35 -82t-35 -82t-82 -35t-82 35t-35 82z" />
    <glyph glyph-name="copyright2" unicode="&#xa9;" horiz-adv-x="1804" 
d="M1642 729q0 -151 -58.5 -288.5t-157.5 -236.5t-236.5 -157.5t-288.5 -58.5t-288.5 58.5t-236.5 157.5t-157.5 236.5t-58.5 288.5t58.5 288.5t157.5 236.5t236.5 157.5t288.5 58.5t288.5 -58.5t236.5 -157.5t157.5 -236.5t58.5 -288.5zM901 121q122 0 233 48.5t191.5 130
t128 194t47.5 235.5t-47.5 235.5t-128 194t-191.5 130t-233 48.5q-162 0 -300 -82t-218 -222t-80 -304t80 -304t218 -222t300 -82zM670 848v-242q0 -99 66 -162t167 -63q74 0 138.5 43.5t95.5 110.5l110 -68q-45 -95 -139 -155t-205 -60q-153 0 -257.5 97.5t-104.5 236.5
v272q0 85 29.5 153t80 110t113 63.5t131.5 21.5q103 0 193.5 -50.5t146.5 -137.5l-117 -82q-31 62 -93 101.5t-128 39.5q-93 0 -160 -61t-67 -168z" />
    <glyph glyph-name="ordfeminine" unicode="&#xaa;" horiz-adv-x="540" 
d="M100 1335l-20 119q100 35 180 35q234 0 234 -238v-374h-127l-7 53q-59 -62 -141 -62q-71 0 -121.5 50.5t-50.5 142.5q0 90 51 144.5t123 54.5q45 0 76 -13.5t63 -44.5v49q0 109 -120 109q-67 0 -140 -25zM360 1073q0 35 -28 54.5t-66 19.5q-37 0 -61.5 -21.5t-24.5 -60.5
q0 -36 25.5 -55t60.5 -19q38 0 66 21.5t28 60.5z" />
    <glyph glyph-name="guillemotleft" unicode="&#xab;" horiz-adv-x="987" 
d="M70 516q0 62 45 98l368 289v-162l-295 -225l295 -225v-162l-368 289q-45 36 -45 98zM483 516q0 62 45 98l369 289v-162l-295 -225l295 -225v-162l-369 289q-45 36 -45 98z" />
    <glyph glyph-name="logicalnot" unicode="&#xac;" horiz-adv-x="983" 
d="M88 743h815v-464h-143v335h-672v129z" />
    <glyph glyph-name="uni00AD" unicode="&#xad;" horiz-adv-x="813" 
d="M709 504h-621v129h621v-129z" />
    <glyph glyph-name="registered2" unicode="&#xae;" horiz-adv-x="1804" 
d="M1642 729q0 -151 -58.5 -288.5t-157.5 -236.5t-236.5 -157.5t-288.5 -58.5t-288.5 58.5t-236.5 157.5t-157.5 236.5t-58.5 288.5t58.5 288.5t157.5 236.5t236.5 157.5t288.5 58.5t288.5 -58.5t236.5 -157.5t157.5 -236.5t58.5 -288.5zM901 121q122 0 233 48.5t191.5 130
t128 194t47.5 235.5t-47.5 235.5t-128 194t-191.5 130t-233 48.5q-162 0 -300 -82t-218 -222t-80 -304t80 -304t218 -222t300 -82zM895 672h-141v-361h-129v787q0 41 29.5 70.5t70.5 29.5h205q124 0 207.5 -79.5t83.5 -180.5q0 -69 -40.5 -126.5t-121.5 -80.5
q79 -29 115 -89t36 -159v-172h-129v181q0 180 -186 180zM754 801h180q70 0 114 41.5t44 95.5q0 53 -43.5 92t-118.5 39h-176v-268z" />
    <glyph glyph-name="macron" unicode="&#xaf;" horiz-adv-x="784" 
d="M684 1208h-586v129h586v-129z" />
    <glyph glyph-name="degree" unicode="&#xb0;" horiz-adv-x="493" 
d="M35 1276q0 90 61.5 151.5t149.5 61.5q91 0 152 -61t61 -152q0 -88 -61.5 -149.5t-151.5 -61.5q-88 0 -149.5 61.5t-61.5 149.5zM154 1276q0 -37 27.5 -64.5t64.5 -27.5q38 0 65 27.5t27 64.5q0 38 -27 65t-65 27q-37 0 -64.5 -27t-27.5 -65z" />
    <glyph glyph-name="plusminus" unicode="&#xb1;" horiz-adv-x="995" 
d="M88 168h815v-129h-815v129zM567 1094v-342h336v-129h-336v-344h-143v344h-336v129h336v342h143z" />
    <glyph glyph-name="twosuperior" unicode="&#xb2;" horiz-adv-x="540" 
d="M135 1319l-51 121q71 49 178 49q87 0 141 -54t54 -141q0 -93 -70 -165.5t-176 -124.5h266v-127h-317q-37 0 -62.5 35.5t-25.5 80.5q0 66 53 90q95 50 151 99t56 106q0 34 -24 53t-58 19q-61 0 -115 -41z" />
    <glyph glyph-name="threesuperior" unicode="&#xb3;" horiz-adv-x="540" 
d="M147 1327l-36 115q71 47 159 47q83 0 139 -44t56 -126q0 -89 -74 -125q42 -25 63 -64t21 -79q0 -82 -59.5 -134.5t-141.5 -52.5q-111 0 -196 70l41 113q80 -54 145 -54q31 0 53.5 21t22.5 51q0 65 -66 65h-69v111h69q31 0 48.5 18t17.5 44q0 57 -84 57q-53 0 -109 -33z
" />
    <glyph glyph-name="acute" unicode="&#xb4;" horiz-adv-x="436" 
d="M184 1167l-131 29l162 301l178 -22z" />
    <glyph glyph-name="mu" unicode="&#xb5;" horiz-adv-x="1030" 
d="M754 1024h143v-1024h-121l-22 131q-132 -145 -289 -145q-108 0 -189 75v-512h-143v1475h143v-686q0 -110 57 -166.5t142 -56.5q66 0 129 32.5t106.5 98t43.5 147.5v631z" />
    <glyph glyph-name="paragraph" unicode="&#xb6;" horiz-adv-x="1499" 
d="M1448 1346h-256v-1551h-143v1551h-195v-1551h-143v850h-254q-122 0 -216 63t-140 158t-46 201q0 78 26.5 150.5t75 130.5t126.5 92.5t174 34.5h991v-129z" />
    <glyph glyph-name="periodcentered" unicode="&#xb7;" horiz-adv-x="405" 
d="M88 512q0 50 35 84.5t84 34.5t84 -34.5t35 -84.5t-35 -84.5t-84 -34.5t-84 34.5t-35 84.5z" />
    <glyph glyph-name="cedilla" unicode="&#xb8;" horiz-adv-x="528" 
d="M164 0h133v-92q99 -10 150 -60t51 -116q0 -89 -71 -143t-202 -54q-85 0 -174 29l19 133q79 -29 159 -29q125 0 125 66q0 33 -47 45t-143 12v209z" />
    <glyph glyph-name="onesuperior" unicode="&#xb9;" horiz-adv-x="540" 
d="M193 1284l-91 82l82 82q41 41 97 41q52 0 89.5 -37t37.5 -100v-473h-127v493z" />
    <glyph glyph-name="ordmasculine" unicode="&#xba;" horiz-adv-x="540" 
d="M504 1255v-153q0 -110 -68.5 -172t-161.5 -62q-94 0 -164.5 62t-70.5 172v153q0 110 70.5 172t164.5 62q93 0 161.5 -61.5t68.5 -172.5zM170 1255v-153q0 -51 27 -85t73 -34t73.5 34t27.5 85v153q0 51 -27.5 85t-73.5 34t-73 -34t-27 -85z" />
    <glyph glyph-name="guillemotright" unicode="&#xbb;" horiz-adv-x="987" 
d="M918 516q0 -61 -46 -98l-368 -289v162l295 225l-295 225v162l368 -289q46 -37 46 -98zM504 516q0 -62 -45 -98l-369 -289v162l295 225l-295 225v162l369 -289q45 -36 45 -98z" />
    <glyph glyph-name="onequarter" unicode="&#xbc;" horiz-adv-x="1529" 
d="M1413 1475l-1122 -1475h-160l1118 1475h164zM193 1284l-91 82l82 82q41 41 97 41q52 0 89.5 -37t37.5 -100v-473h-127v493zM930 330l139 227q34 57 119 57q46 0 79 -23.5t33 -68.5v-262h113v-119h-113v-141h-129v141h-141q-55 0 -90 31.5t-35 79.5q0 36 25 78zM1171 498
l-137 -238h137v238z" />
    <glyph glyph-name="onehalf" unicode="&#xbd;" horiz-adv-x="1529" 
d="M1413 1475l-1122 -1475h-160l1118 1475h164zM193 1284l-91 82l82 82q41 41 97 41q52 0 89.5 -37t37.5 -100v-473h-127v493zM1071 442l-51 121q71 49 178 49q87 0 141 -53.5t54 -140.5q0 -93 -70 -166t-176 -125h266v-127h-317q-37 0 -62.5 36t-25.5 81q0 66 53 90
q95 50 151 99t56 106q0 34 -24 52.5t-58 18.5q-61 0 -115 -41z" />
    <glyph glyph-name="threequarters" unicode="&#xbe;" horiz-adv-x="1529" 
d="M1413 1475l-1122 -1475h-160l1118 1475h164zM930 330l139 227q34 57 119 57q46 0 79 -23.5t33 -68.5v-262h113v-119h-113v-141h-129v141h-141q-55 0 -90 31.5t-35 79.5q0 36 25 78zM1171 498l-137 -238h137v238zM205 1327l-37 115q71 47 160 47q83 0 138.5 -44t55.5 -126
q0 -89 -73 -125q42 -25 62.5 -64t20.5 -79q0 -82 -59 -134.5t-141 -52.5q-112 0 -197 70l41 113q80 -54 146 -54q31 0 53 21t22 51q0 65 -65 65h-70v111h70q31 0 48 18t17 44q0 57 -84 57q-52 0 -108 -33z" />
    <glyph glyph-name="questiondown" unicode="&#xbf;" horiz-adv-x="858" 
d="M539 1372q0 -47 -35 -82t-82 -35t-82 35t-35 82t35 82t82 35t82 -35t35 -82zM637 291l149 -35q-32 -130 -132 -200t-224 -70q-90 0 -167.5 36t-129 113.5t-51.5 183.5q0 74 27.5 151.5t66.5 142t78 125.5t66.5 121t27.5 108v98h144v-113q0 -59 -27.5 -125t-67 -125.5
t-78.5 -120.5t-66.5 -129.5t-27.5 -132.5q0 -92 59.5 -141t143.5 -49q70 0 128 44t81 118z" />
    <glyph glyph-name="Agrave" unicode="&#xc0;" horiz-adv-x="1310" 
d="M1167 991v-991h-143v563h-737v-563h-144v991q0 212 148.5 355t363.5 143t363.5 -143t148.5 -355zM1024 692v299q0 154 -107.5 261.5t-261.5 107.5t-261 -107.5t-107 -261.5v-299h737zM825 1647l-131 -29l-209 307l179 23z" />
    <glyph glyph-name="Aacute" unicode="&#xc1;" horiz-adv-x="1310" 
d="M1167 991v-991h-143v563h-737v-563h-144v991q0 212 148.5 355t363.5 143t363.5 -143t148.5 -355zM1024 692v299q0 154 -107.5 261.5t-261.5 107.5t-261 -107.5t-107 -261.5v-299h737zM690 1618l-131 29l162 301l178 -23z" />
    <glyph glyph-name="Acircumflex" unicode="&#xc2;" horiz-adv-x="1310" 
d="M1167 991v-991h-143v563h-737v-563h-144v991q0 212 148.5 355t363.5 143t363.5 -143t148.5 -355zM1024 692v299q0 154 -107.5 261.5t-261.5 107.5t-261 -107.5t-107 -261.5v-299h737zM655 1823l-125 -164h-161l188 237q37 46 98 46q62 0 99 -46l188 -237h-162z" />
    <glyph glyph-name="Atilde" unicode="&#xc3;" horiz-adv-x="1310" 
d="M1167 991v-991h-143v563h-737v-563h-144v991q0 212 148.5 355t363.5 143t363.5 -143t148.5 -355zM1024 692v299q0 154 -107.5 261.5t-261.5 107.5t-261 -107.5t-107 -261.5v-299h737zM801 1647q-39 0 -80 17t-68.5 38t-60 38t-57.5 17q-32 0 -56 -29t-35 -77l-108 84
q20 75 64.5 120.5t113.5 45.5q35 0 74.5 -17.5t68 -38t61 -38t56.5 -17.5q32 0 55.5 29t34.5 77l109 -84q-20 -74 -63.5 -119.5t-108.5 -45.5z" />
    <glyph glyph-name="Adieresis" unicode="&#xc4;" horiz-adv-x="1310" 
d="M1167 991v-991h-143v563h-737v-563h-144v991q0 212 148.5 355t363.5 143t363.5 -143t148.5 -355zM1024 692v299q0 154 -107.5 261.5t-261.5 107.5t-261 -107.5t-107 -261.5v-299h737zM348 1808q0 47 35 82t82 35t82 -35t35 -82t-35 -81.5t-82 -34.5t-82 34.5t-35 81.5z
M729 1808q0 47 35 82t82 35t82 -35t35 -82t-35 -81.5t-82 -34.5t-82 34.5t-35 81.5z" />
    <glyph glyph-name="Aring" unicode="&#xc5;" horiz-adv-x="1310" 
d="M1167 991v-991h-143v563h-737v-563h-144v991q0 212 148.5 355t363.5 143t363.5 -143t148.5 -355zM1024 692v299q0 154 -107.5 261.5t-261.5 107.5t-261 -107.5t-107 -261.5v-299h737zM473 1800q0 78 52.5 130t127.5 52q78 0 130.5 -52t52.5 -130q0 -75 -52.5 -127.5
t-130.5 -52.5q-75 0 -127.5 52.5t-52.5 127.5zM580 1800q0 -31 21 -52.5t52 -21.5t52.5 21.5t21.5 52.5t-21.5 52.5t-52.5 21.5t-52 -21.5t-21 -52.5z" />
    <glyph glyph-name="AE" unicode="&#xc6;" horiz-adv-x="2050" 
d="M1987 0h-820q-60 0 -101.5 41.5t-41.5 101.5v420h-737v-563h-144v991q0 113 44 209t116.5 158t163.5 96.5t188 34.5q202 0 369 -154q0 69 40 104.5t103 35.5h791v-129h-791v-510h656v-129h-656v-578h820v-129zM1024 692v299q0 88 -31.5 160t-84 116.5t-118 68.5
t-135.5 24t-135 -24t-117.5 -68.5t-84 -116.5t-31.5 -160v-299h737z" />
    <glyph glyph-name="Ccedilla" unicode="&#xc7;" horiz-adv-x="1136" 
d="M133 483v508q0 116 43 212t114.5 157.5t162 95t188.5 33.5q137 0 260 -64.5t193 -189.5l-103 -82q-65 104 -156.5 155.5t-193.5 51.5q-148 0 -256.5 -102t-108.5 -267v-508q0 -166 108 -267t255 -101q221 0 352 200l105 -71q-75 -117 -179.5 -180t-224.5 -74v-82
q99 -10 150 -60t51 -116q0 -89 -70.5 -143t-201.5 -54q-86 0 -175 29l19 133q79 -29 160 -29q125 0 125 66q0 33 -47.5 45t-143.5 12v201q-88 13 -164.5 51.5t-135 99t-92.5 148.5t-34 192z" />
    <glyph glyph-name="Egrave" unicode="&#xc8;" horiz-adv-x="1169" 
d="M1106 129v-129h-819q-60 0 -102 41.5t-42 101.5v1188q0 60 42 102t102 42h790v-129h-790v-510h655v-129h-655v-578h819zM754 1647l-131 -29l-209 307l178 23z" />
    <glyph glyph-name="Eacute" unicode="&#xc9;" horiz-adv-x="1167" 
d="M1106 129v-129h-819q-60 0 -102 41.5t-42 101.5v1188q0 60 42 102t102 42h790v-129h-790v-510h655v-129h-655v-578h819zM637 1618l-131 29l162 301l178 -23z" />
    <glyph glyph-name="Ecircumflex" unicode="&#xca;" horiz-adv-x="1167" 
d="M1106 129v-129h-819q-60 0 -102 41.5t-42 101.5v1188q0 60 42 102t102 42h790v-129h-790v-510h655v-129h-655v-578h819zM631 1823l-125 -164h-162l188 237q37 46 99 46q61 0 98 -46l189 -237h-162z" />
    <glyph glyph-name="Edieresis" unicode="&#xcb;" horiz-adv-x="1167" 
d="M1106 129v-129h-819q-60 0 -102 41.5t-42 101.5v1188q0 60 42 102t102 42h790v-129h-790v-510h655v-129h-655v-578h819zM322 1808q0 47 34.5 82t81.5 35t82 -35t35 -82t-35 -81.5t-82 -34.5t-81.5 34.5t-34.5 81.5zM702 1808q0 47 35 82t82 35t82 -35t35 -82t-35 -81.5
t-82 -34.5t-82 34.5t-35 81.5z" />
    <glyph glyph-name="Igrave" unicode="&#xcc;" horiz-adv-x="471" 
d="M307 1475v-1475h-143v1475h143zM365 1647l-132 -29l-208 307l178 23z" />
    <glyph glyph-name="Iacute" unicode="&#xcd;" horiz-adv-x="471" 
d="M307 1475v-1475h-143v1475h143zM233 1618l-131 29l162 301l178 -23z" />
    <glyph glyph-name="Icircumflex" unicode="&#xce;" horiz-adv-x="471" 
d="M307 1475v-1475h-143v1475h143zM236 1823l-125 -164h-162l188 237q37 46 99 46q61 0 98 -46l188 -237h-162z" />
    <glyph glyph-name="Idieresis" unicode="&#xcf;" horiz-adv-x="471" 
d="M307 1475v-1475h-143v1475h143zM-45 1808q0 47 35 82t82 35t81.5 -35t34.5 -82t-34.5 -81.5t-81.5 -34.5t-82 34.5t-35 81.5zM279 1808q0 47 34.5 82t81.5 35t82 -35t35 -82t-35 -81.5t-82 -34.5t-81.5 34.5t-34.5 81.5z" />
    <glyph glyph-name="Eth" unicode="&#xd0;" horiz-adv-x="1236" 
d="M143 670h-143v129h143v532q0 60 42 102t102 42h342q90 0 169.5 -29t139.5 -80t107.5 -120.5t77.5 -152t45.5 -172t15.5 -182.5q0 -112 -21.5 -218.5t-65.5 -201t-106.5 -165.5t-150.5 -112.5t-191 -41.5h-362q-60 0 -102 41.5t-42 101.5v527zM287 129h362q92 0 167.5 53
t122.5 140t72 193.5t25 219.5q0 114 -26 221t-75 195t-128.5 141.5t-177.5 53.5h-342v-547h342v-129h-342v-541z" />
    <glyph glyph-name="Ntilde" unicode="&#xd1;" horiz-adv-x="1310" 
d="M907 66l-620 1239v-1305h-144v1356q0 62 38 96.5t91 34.5q40 0 75.5 -20.5t55.5 -57.5l621 -1239v1305h143v-1356q0 -63 -38 -98t-91 -35q-41 0 -76.5 20.5t-54.5 59.5zM844 1647q-39 0 -80 17t-68.5 38t-60 38t-57.5 17q-32 0 -56 -29t-35 -77l-108 84q20 75 64.5 120.5
t113.5 45.5q35 0 74.5 -17.5t68 -38t61 -38t56.5 -17.5q32 0 55.5 29t34.5 77l109 -84q-20 -74 -63.5 -119.5t-108.5 -45.5z" />
    <glyph glyph-name="Ograve" unicode="&#xd2;" horiz-adv-x="1331" 
d="M1065 514v447q0 164 -117.5 281.5t-281.5 117.5t-282 -117.5t-118 -281.5v-447q0 -164 118 -281.5t282 -117.5t281.5 117.5t117.5 281.5zM1208 961v-447q0 -147 -73 -268.5t-197 -190.5t-272 -69t-272.5 69t-197.5 190.5t-73 268.5v447q0 147 73 268.5t197.5 190.5
t272.5 69t272 -69t197 -190.5t73 -268.5zM836 1647l-131 -29l-209 307l178 23z" />
    <glyph glyph-name="Oacute" unicode="&#xd3;" horiz-adv-x="1331" 
d="M1065 514v447q0 164 -117.5 281.5t-281.5 117.5t-282 -117.5t-118 -281.5v-447q0 -164 118 -281.5t282 -117.5t281.5 117.5t117.5 281.5zM1208 961v-447q0 -147 -73 -268.5t-197 -190.5t-272 -69t-272.5 69t-197.5 190.5t-73 268.5v447q0 147 73 268.5t197.5 190.5
t272.5 69t272 -69t197 -190.5t73 -268.5zM688 1618l-131 29l162 301l178 -23z" />
    <glyph glyph-name="Ocircumflex" unicode="&#xd4;" horiz-adv-x="1331" 
d="M1065 514v447q0 164 -117.5 281.5t-281.5 117.5t-282 -117.5t-118 -281.5v-447q0 -164 118 -281.5t282 -117.5t281.5 117.5t117.5 281.5zM1208 961v-447q0 -147 -73 -268.5t-197 -190.5t-272 -69t-272.5 69t-197.5 190.5t-73 268.5v447q0 147 73 268.5t197.5 190.5
t272.5 69t272 -69t197 -190.5t73 -268.5zM666 1823l-125 -164h-162l188 237q37 46 99 46q61 0 98 -46l188 -237h-161z" />
    <glyph glyph-name="Otilde" unicode="&#xd5;" horiz-adv-x="1331" 
d="M1065 514v447q0 164 -117.5 281.5t-281.5 117.5t-282 -117.5t-118 -281.5v-447q0 -164 118 -281.5t282 -117.5t281.5 117.5t117.5 281.5zM1208 961v-447q0 -147 -73 -268.5t-197 -190.5t-272 -69t-272.5 69t-197.5 190.5t-73 268.5v447q0 147 73 268.5t197.5 190.5
t272.5 69t272 -69t197 -190.5t73 -268.5zM811 1647q-39 0 -80 17t-68.5 38t-60 38t-57.5 17q-32 0 -55.5 -29t-34.5 -77l-109 84q20 75 64.5 120.5t113.5 45.5q35 0 74.5 -17.5t68 -38t61 -38t56.5 -17.5q32 0 55.5 29t34.5 77l109 -84q-20 -74 -63.5 -119.5t-108.5 -45.5z
" />
    <glyph glyph-name="Odieresis" unicode="&#xd6;" horiz-adv-x="1331" 
d="M1065 514v447q0 164 -117.5 281.5t-281.5 117.5t-282 -117.5t-118 -281.5v-447q0 -164 118 -281.5t282 -117.5t281.5 117.5t117.5 281.5zM1208 961v-447q0 -147 -73 -268.5t-197 -190.5t-272 -69t-272.5 69t-197.5 190.5t-73 268.5v447q0 147 73 268.5t197.5 190.5
t272.5 69t272 -69t197 -190.5t73 -268.5zM358 1808q0 47 35 82t82 35t82 -35t35 -82t-35 -81.5t-82 -34.5t-82 34.5t-35 81.5zM739 1808q0 47 35 82t82 35t82 -35t35 -82t-35 -81.5t-82 -34.5t-82 34.5t-35 81.5z" />
    <glyph glyph-name="multiply2" unicode="&#xd7;" horiz-adv-x="905" 
d="M358 692l-309 402h174l223 -289l222 289h174l-310 -402l310 -401h-174l-222 289l-223 -289h-174z" />
    <glyph glyph-name="Oslash" unicode="&#xd8;" horiz-adv-x="1331" 
d="M1016 1577h164l-127 -244q155 -155 155 -372v-447q0 -147 -73 -268.5t-197 -190.5t-272 -69q-153 0 -273 69l-80 -157h-166l127 245q-151 151 -151 371v447q0 147 73 268.5t197.5 190.5t272.5 69q146 0 268 -70zM1065 514v447q0 129 -80 237l-530 -1024q95 -59 211 -59
q164 0 281.5 117.5t117.5 281.5zM666 1360q-164 0 -282 -117.5t-118 -281.5v-447q0 -130 78 -238l528 1024q-91 60 -206 60z" />
    <glyph glyph-name="Ugrave" unicode="&#xd9;" horiz-adv-x="1331" 
d="M123 1475h143v-986q0 -162 116.5 -268t283.5 -106t283 106t116 268v986h143v-986q0 -146 -73 -262t-196.5 -178.5t-272.5 -62.5t-272.5 62.5t-197 178.5t-73.5 262v986zM836 1647l-131 -29l-209 307l178 23z" />
    <glyph glyph-name="Uacute" unicode="&#xda;" horiz-adv-x="1331" 
d="M123 1475h143v-986q0 -162 116.5 -268t283.5 -106t283 106t116 268v986h143v-986q0 -146 -73 -262t-196.5 -178.5t-272.5 -62.5t-272.5 62.5t-197 178.5t-73.5 262v986zM700 1618l-131 29l162 301l178 -23z" />
    <glyph glyph-name="Ucircumflex" unicode="&#xdb;" horiz-adv-x="1331" 
d="M123 1475h143v-986q0 -162 116.5 -268t283.5 -106t283 106t116 268v986h143v-986q0 -146 -73 -262t-196.5 -178.5t-272.5 -62.5t-272.5 62.5t-197 178.5t-73.5 262v986zM666 1823l-125 -164h-162l188 237q37 46 99 46q61 0 98 -46l188 -237h-161z" />
    <glyph glyph-name="Udieresis" unicode="&#xdc;" horiz-adv-x="1331" 
d="M123 1475h143v-986q0 -162 116.5 -268t283.5 -106t283 106t116 268v986h143v-986q0 -146 -73 -262t-196.5 -178.5t-272.5 -62.5t-272.5 62.5t-197 178.5t-73.5 262v986zM358 1808q0 47 35 82t82 35t82 -35t35 -82t-35 -81.5t-82 -34.5t-82 34.5t-35 81.5zM739 1808
q0 47 35 82t82 35t82 -35t35 -82t-35 -81.5t-82 -34.5t-82 34.5t-35 81.5z" />
    <glyph glyph-name="Yacute" unicode="&#xdd;" horiz-adv-x="1228" 
d="M686 0h-143v641q-217 25 -354.5 159.5t-137.5 334.5v340h144v-326q0 -171 115.5 -276t303.5 -105t304 105t116 276v326h144v-340q0 -200 -137.5 -334.5t-354.5 -159.5v-641zM645 1618l-131 29l162 301l178 -23z" />
    <glyph glyph-name="Thorn" unicode="&#xde;" horiz-adv-x="1110" 
d="M287 451h360q78 0 138.5 45t90 110.5t29.5 136.5q0 69 -28 131.5t-88.5 105t-141.5 42.5h-360v-571zM143 1475h144v-324h360q96 0 174 -34.5t126.5 -92.5t75 -130.5t26.5 -150.5q0 -79 -27.5 -153.5t-77 -134.5t-127 -96.5t-170.5 -36.5h-360v-322h-144v1475z" />
    <glyph glyph-name="germandbls" unicode="&#xdf;" horiz-adv-x="1058" 
d="M872 1106q0 -116 -76.5 -218t-195.5 -143q185 -61 291 -181.5t106 -264.5q0 -150 -98.5 -231.5t-251.5 -81.5q-107 0 -205 34l17 134q93 -39 186 -39q92 0 150.5 43.5t58.5 140.5q0 112 -105 214.5t-292 164.5v133q105 26 188.5 111t83.5 184q0 122 -67.5 188t-161.5 66
q-45 0 -85.5 -14.5t-74.5 -42.5t-54 -75t-20 -108v-1120h-143v1122q0 90 32.5 161.5t86.5 115.5t120 67t138 23t137.5 -24.5t118.5 -71t84.5 -121t31.5 -166.5z" />
    <glyph glyph-name="agrave" unicode="&#xe0;" 
d="M735 0l-12 143q-52 -79 -126.5 -118t-156.5 -39q-136 0 -237 95t-101 247v364q0 101 50.5 181.5t128.5 122.5t165 42q173 0 277 -139l14 125h129v-1024h-131zM723 379v272q0 115 -84 186.5t-188 71.5q-86 0 -145.5 -56.5t-59.5 -160.5v-364q0 -104 57 -158.5t143 -54.5
q67 0 129.5 31t105 93t42.5 140zM670 1196l-131 -29l-209 308l178 22z" />
    <glyph glyph-name="aacute" unicode="&#xe1;" 
d="M735 0l-12 143q-52 -79 -126.5 -118t-156.5 -39q-136 0 -237 95t-101 247v364q0 101 50.5 181.5t128.5 122.5t165 42q173 0 277 -139l14 125h129v-1024h-131zM723 379v272q0 115 -84 186.5t-188 71.5q-86 0 -145.5 -56.5t-59.5 -160.5v-364q0 -104 57 -158.5t143 -54.5
q67 0 129.5 31t105 93t42.5 140zM504 1167l-131 29l162 301l178 -22z" />
    <glyph glyph-name="acircumflex" unicode="&#xe2;" 
d="M735 0l-12 143q-52 -79 -126.5 -118t-156.5 -39q-136 0 -237 95t-101 247v364q0 101 50.5 181.5t128.5 122.5t165 42q173 0 277 -139l14 125h129v-1024h-131zM723 379v272q0 115 -84 186.5t-188 71.5q-86 0 -145.5 -56.5t-59.5 -160.5v-364q0 -104 57 -158.5t143 -54.5
q67 0 129.5 31t105 93t42.5 140zM500 1372l-125 -164h-162l188 238q36 45 99 45q62 0 98 -45l188 -238h-161z" />
    <glyph glyph-name="atilde" unicode="&#xe3;" 
d="M735 0l-12 143q-52 -79 -126.5 -118t-156.5 -39q-136 0 -237 95t-101 247v364q0 101 50.5 181.5t128.5 122.5t165 42q173 0 277 -139l14 125h129v-1024h-131zM723 379v272q0 115 -84 186.5t-188 71.5q-86 0 -145.5 -56.5t-59.5 -160.5v-364q0 -104 57 -158.5t143 -54.5
q67 0 129.5 31t105 93t42.5 140zM645 1196q-50 0 -100.5 28t-92.5 55.5t-73 27.5q-32 0 -55.5 -29.5t-34.5 -77.5l-109 84q20 75 64.5 120.5t113.5 45.5q44 0 94 -28t93.5 -55.5t72.5 -27.5q32 0 56 29.5t35 77.5l108 -84q-20 -75 -63.5 -120.5t-108.5 -45.5z" />
    <glyph glyph-name="adieresis" unicode="&#xe4;" 
d="M735 0l-12 143q-52 -79 -126.5 -118t-156.5 -39q-136 0 -237 95t-101 247v364q0 101 50.5 181.5t128.5 122.5t165 42q173 0 277 -139l14 125h129v-1024h-131zM723 379v272q0 115 -84 186.5t-188 71.5q-86 0 -145.5 -56.5t-59.5 -160.5v-364q0 -104 57 -158.5t143 -54.5
q67 0 129.5 31t105 93t42.5 140zM193 1358q0 47 34.5 82t81.5 35t82 -35t35 -82t-35 -82t-82 -35t-81.5 35t-34.5 82zM573 1358q0 47 35 82t82 35t82 -35t35 -82t-35 -82t-82 -35t-82 35t-35 82z" />
    <glyph glyph-name="aring" unicode="&#xe5;" 
d="M735 0l-12 143q-52 -79 -126.5 -118t-156.5 -39q-136 0 -237 95t-101 247v364q0 101 50.5 181.5t128.5 122.5t165 42q173 0 277 -139l14 125h129v-1024h-131zM723 379v272q0 115 -84 186.5t-188 71.5q-86 0 -145.5 -56.5t-59.5 -160.5v-364q0 -104 57 -158.5t143 -54.5
q67 0 129.5 31t105 93t42.5 140zM317 1350q0 77 52.5 129.5t128.5 52.5q78 0 130 -52t52 -130q0 -76 -52.5 -128.5t-129.5 -52.5q-75 0 -128 53t-53 128zM424 1350q0 -31 21.5 -52.5t52.5 -21.5t52 21.5t21 52.5t-21 52t-52 21t-52.5 -21t-21.5 -52z" />
    <glyph glyph-name="ae" unicode="&#xe6;" horiz-adv-x="1538" 
d="M176 809l-45 127q139 102 313 102q222 0 324 -170q100 170 319 170q76 0 145.5 -25t125 -72t88.5 -123t33 -171q0 -87 -50 -140.5t-126 -53.5h-465v-91q0 -117 74 -182t178 -65q82 0 154.5 41t113.5 120l100 -86q-66 -102 -161 -153t-207 -51q-108 0 -197 51.5
t-129 146.5q-52 -95 -151 -146.5t-212 -51.5q-79 0 -143 26t-103 69.5t-60 97.5t-21 112q0 76 33 140.5t106.5 107.5t175.5 43h305v88q0 120 -70.5 179.5t-177.5 59.5q-72 0 -144 -26.5t-126 -73.5zM694 362v91h-305q-81 0 -126.5 -48.5t-45.5 -115.5q0 -70 52 -122t145 -52
q68 0 130.5 27t106 85t43.5 135zM838 653v-71h448q24 0 36.5 20.5t12.5 54.5q0 117 -74.5 184.5t-173.5 67.5q-101 0 -175 -67.5t-74 -188.5z" />
    <glyph glyph-name="ccedilla" unicode="&#xe7;" horiz-adv-x="901" 
d="M102 354v299q0 93 34 168.5t90 121.5t124.5 70.5t141.5 24.5q109 0 209 -53t167 -154l-114 -77q-43 76 -112.5 115.5t-147.5 39.5q-104 0 -176 -65.5t-72 -186.5v-295q0 -122 71.5 -184.5t176.5 -62.5q89 0 165.5 47t116.5 133l107 -72q-49 -100 -137 -159.5t-191 -73.5
v-82q99 -10 150 -60t51 -116q0 -89 -71 -143t-202 -54q-85 0 -174 29l19 133q79 -29 159 -29q125 0 125 66q0 33 -47 45t-143 12v201q-136 18 -228 114t-92 248z" />
    <glyph glyph-name="egrave" unicode="&#xe8;" horiz-adv-x="923" 
d="M743 276l101 -86q-54 -93 -151.5 -148.5t-209.5 -55.5q-168 0 -284.5 107t-116.5 261v299q0 95 33 170t88.5 121t124.5 70t145 24t145 -25t124.5 -72t88.5 -123t33 -171q0 -87 -50 -140.5t-126 -53.5h-463v-91q0 -117 72.5 -182t177.5 -65q82 0 154.5 41t113.5 120z
M225 653v-71h447q24 0 36.5 20.5t12.5 54.5q0 117 -74.5 184.5t-173.5 67.5q-100 0 -174 -68t-74 -188zM606 1196l-131 -29l-209 308l178 22z" />
    <glyph glyph-name="eacute" unicode="&#xe9;" horiz-adv-x="923" 
d="M743 276l101 -86q-54 -93 -151.5 -148.5t-209.5 -55.5q-168 0 -284.5 107t-116.5 261v299q0 95 33 170t88.5 121t124.5 70t145 24t145 -25t124.5 -72t88.5 -123t33 -171q0 -87 -50 -140.5t-126 -53.5h-463v-91q0 -117 72.5 -182t177.5 -65q82 0 154.5 41t113.5 120z
M225 653v-71h447q24 0 36.5 20.5t12.5 54.5q0 117 -74.5 184.5t-173.5 67.5q-100 0 -174 -68t-74 -188zM473 1167l-131 29l162 301l178 -22z" />
    <glyph glyph-name="ecircumflex" unicode="&#xea;" horiz-adv-x="923" 
d="M743 276l101 -86q-54 -93 -151.5 -148.5t-209.5 -55.5q-168 0 -284.5 107t-116.5 261v299q0 95 33 170t88.5 121t124.5 70t145 24t145 -25t124.5 -72t88.5 -123t33 -171q0 -87 -50 -140.5t-126 -53.5h-463v-91q0 -117 72.5 -182t177.5 -65q82 0 154.5 41t113.5 120z
M225 653v-71h447q24 0 36.5 20.5t12.5 54.5q0 117 -74.5 184.5t-173.5 67.5q-100 0 -174 -68t-74 -188zM461 1372l-125 -164h-162l188 238q36 45 99 45q62 0 98 -45l189 -238h-162z" />
    <glyph glyph-name="edieresis" unicode="&#xeb;" horiz-adv-x="923" 
d="M743 276l101 -86q-54 -93 -151.5 -148.5t-209.5 -55.5q-168 0 -284.5 107t-116.5 261v299q0 95 33 170t88.5 121t124.5 70t145 24t145 -25t124.5 -72t88.5 -123t33 -171q0 -87 -50 -140.5t-126 -53.5h-463v-91q0 -117 72.5 -182t177.5 -65q82 0 154.5 41t113.5 120z
M225 653v-71h447q24 0 36.5 20.5t12.5 54.5q0 117 -74.5 184.5t-173.5 67.5q-100 0 -174 -68t-74 -188zM154 1358q0 47 34.5 82t81.5 35t82 -35t35 -82t-35 -82t-82 -35t-81.5 35t-34.5 82zM535 1358q0 47 34.5 82t81.5 35t82 -35t35 -82t-35 -82t-82 -35t-81.5 35t-34.5 82
z" />
    <glyph glyph-name="igrave" unicode="&#xec;" horiz-adv-x="430" 
d="M287 0h-144v1024h144v-1024zM328 1196l-131 -29l-209 308l178 22z" />
    <glyph glyph-name="iacute" unicode="&#xed;" horiz-adv-x="430" 
d="M287 0h-144v1024h144v-1024zM236 1167l-132 29l162 301l178 -22z" />
    <glyph glyph-name="icircumflex" unicode="&#xee;" horiz-adv-x="430" 
d="M287 0h-144v1024h144v-1024zM215 1372l-125 -164h-162l189 238q36 45 98 45t98 -45l189 -238h-162z" />
    <glyph glyph-name="idieresis" unicode="&#xef;" horiz-adv-x="430" 
d="M287 0h-144v1024h144v-1024zM-55 1358q0 47 34.5 82t81.5 35t82 -35t35 -82t-35 -82t-82 -35t-81.5 35t-34.5 82zM256 1358q0 47 35 82t82 35t81.5 -35t34.5 -82t-34.5 -82t-81.5 -35t-82 35t-35 82z" />
    <glyph glyph-name="eth" unicode="&#xf0;" horiz-adv-x="966" 
d="M874 1223v-871q0 -159 -113.5 -262.5t-277.5 -103.5t-277.5 103.5t-113.5 262.5v316q0 107 52.5 193.5t134 131.5t172.5 45q164 0 272 -139v324q0 121 -76 184l-80 -168h-143l104 219q-32 4 -51 4q-73 0 -144 -28.5t-124 -81.5l-57 121q142 118 321 118q45 0 113 -14
l49 102h141l-74 -153q172 -111 172 -303zM731 352v299q0 115 -83.5 186.5t-188.5 71.5q-94 0 -158.5 -61t-64.5 -180v-316q0 -103 71.5 -170t175.5 -67t176 67t72 170z" />
    <glyph glyph-name="ntilde" unicode="&#xf1;" horiz-adv-x="1030" 
d="M276 0h-143v1024h131l12 -150q58 82 138 123t168 41q133 0 224 -94t91 -264v-680h-143v680q0 115 -52.5 172t-132.5 57q-109 0 -201 -89t-92 -218v-602zM662 1196q-50 0 -100.5 28t-93 55.5t-73.5 27.5q-32 0 -55.5 -29.5t-34.5 -77.5l-108 84q20 75 64.5 120.5
t113.5 45.5q44 0 94 -28t93.5 -55.5t72.5 -27.5q32 0 55.5 29.5t34.5 77.5l109 -84q-20 -75 -63.5 -120.5t-108.5 -45.5z" />
    <glyph glyph-name="ograve" unicode="&#xf2;" horiz-adv-x="966" 
d="M483 115q104 0 176 67t72 170v320q0 103 -72 170t-176 67t-175.5 -67t-71.5 -170v-320q0 -103 71.5 -170t175.5 -67zM483 -14q-164 0 -277.5 103.5t-113.5 262.5v320q0 159 113.5 262.5t277.5 103.5t277.5 -103.5t113.5 -262.5v-320q0 -159 -113.5 -262.5t-277.5 -103.5z
M653 1196l-131 -29l-209 308l179 22z" />
    <glyph glyph-name="oacute" unicode="&#xf3;" horiz-adv-x="966" 
d="M483 115q104 0 176 67t72 170v320q0 103 -72 170t-176 67t-175.5 -67t-71.5 -170v-320q0 -103 71.5 -170t175.5 -67zM483 -14q-164 0 -277.5 103.5t-113.5 262.5v320q0 159 113.5 262.5t277.5 103.5t277.5 -103.5t113.5 -262.5v-320q0 -159 -113.5 -262.5t-277.5 -103.5z
M492 1167l-132 29l162 301l178 -22z" />
    <glyph glyph-name="ocircumflex" unicode="&#xf4;" horiz-adv-x="966" 
d="M483 115q104 0 176 67t72 170v320q0 103 -72 170t-176 67t-175.5 -67t-71.5 -170v-320q0 -103 71.5 -170t175.5 -67zM483 -14q-164 0 -277.5 103.5t-113.5 262.5v320q0 159 113.5 262.5t277.5 103.5t277.5 -103.5t113.5 -262.5v-320q0 -159 -113.5 -262.5t-277.5 -103.5z
M483 1372l-125 -164h-161l188 238q36 45 98 45q63 0 99 -45l188 -238h-162z" />
    <glyph glyph-name="otilde" unicode="&#xf5;" horiz-adv-x="966" 
d="M483 115q104 0 176 67t72 170v320q0 103 -72 170t-176 67t-175.5 -67t-71.5 -170v-320q0 -103 71.5 -170t175.5 -67zM483 -14q-164 0 -277.5 103.5t-113.5 262.5v320q0 159 113.5 262.5t277.5 103.5t277.5 -103.5t113.5 -262.5v-320q0 -159 -113.5 -262.5t-277.5 -103.5z
M629 1196q-50 0 -100.5 28t-93 55.5t-73.5 27.5q-32 0 -55.5 -29.5t-34.5 -77.5l-108 84q20 75 64.5 120.5t113.5 45.5q44 0 94 -28t93.5 -55.5t72.5 -27.5q32 0 55.5 29.5t34.5 77.5l109 -84q-20 -75 -63.5 -120.5t-108.5 -45.5z" />
    <glyph glyph-name="odieresis" unicode="&#xf6;" horiz-adv-x="966" 
d="M483 115q104 0 176 67t72 170v320q0 103 -72 170t-176 67t-175.5 -67t-71.5 -170v-320q0 -103 71.5 -170t175.5 -67zM483 -14q-164 0 -277.5 103.5t-113.5 262.5v320q0 159 113.5 262.5t277.5 103.5t277.5 -103.5t113.5 -262.5v-320q0 -159 -113.5 -262.5t-277.5 -103.5z
M176 1358q0 47 35 82t82 35t82 -35t35 -82t-35 -82t-82 -35t-82 35t-35 82zM557 1358q0 47 35 82t82 35t82 -35t35 -82t-35 -82t-82 -35t-82 35t-35 82z" />
    <glyph glyph-name="divide2" unicode="&#xf7;" horiz-adv-x="983" 
d="M905 623h-815v129h815v-129zM371 987q0 54 36.5 90.5t90.5 36.5t90.5 -36.5t36.5 -90.5t-36.5 -90.5t-90.5 -36.5t-90.5 36.5t-36.5 90.5zM371 383q0 54 36.5 90.5t90.5 36.5t90.5 -36.5t36.5 -90.5t-36.5 -90.5t-90.5 -36.5t-90.5 36.5t-36.5 90.5z" />
    <glyph glyph-name="oslash" unicode="&#xf8;" horiz-adv-x="966" 
d="M700 1126h142l-88 -186q120 -102 120 -268v-320q0 -159 -113.5 -262.5t-277.5 -103.5q-82 0 -164 30l-55 -118h-143l88 188q-117 102 -117 266v320q0 159 113.5 262.5t277.5 103.5q78 0 160 -30zM483 115q104 0 176 67t72 170v320q0 69 -41 133l-313 -668q55 -22 106 -22
zM236 672v-320q0 -76 38 -131l314 666q-55 22 -105 22q-104 0 -175.5 -67t-71.5 -170z" />
    <glyph glyph-name="ugrave" unicode="&#xf9;" horiz-adv-x="1030" 
d="M133 1024h143v-680q0 -113 57.5 -171t143.5 -58q106 0 191.5 78t85.5 200v631h143v-1024h-121l-22 131q-60 -72 -137 -108.5t-158 -36.5q-136 0 -231 95.5t-95 262.5v680zM684 1196l-131 -29l-209 308l178 22z" />
    <glyph glyph-name="uacute" unicode="&#xfa;" horiz-adv-x="1030" 
d="M133 1024h143v-680q0 -113 57.5 -171t143.5 -58q106 0 191.5 78t85.5 200v631h143v-1024h-121l-22 131q-60 -72 -137 -108.5t-158 -36.5q-136 0 -231 95.5t-95 262.5v680zM567 1167l-131 29l162 301l178 -22z" />
    <glyph glyph-name="ucircumflex" unicode="&#xfb;" horiz-adv-x="1030" 
d="M133 1024h143v-680q0 -113 57.5 -171t143.5 -58q106 0 191.5 78t85.5 200v631h143v-1024h-121l-22 131q-60 -72 -137 -108.5t-158 -36.5q-136 0 -231 95.5t-95 262.5v680zM514 1372l-125 -164h-162l189 238q36 45 98 45t98 -45l189 -238h-162z" />
    <glyph glyph-name="udieresis" unicode="&#xfc;" horiz-adv-x="1030" 
d="M133 1024h143v-680q0 -113 57.5 -171t143.5 -58q106 0 191.5 78t85.5 200v631h143v-1024h-121l-22 131q-60 -72 -137 -108.5t-158 -36.5q-136 0 -231 95.5t-95 262.5v680zM207 1358q0 47 35 82t82 35t81.5 -35t34.5 -82t-34.5 -82t-81.5 -35t-82 35t-35 82zM588 1358
q0 47 35 82t82 35t81.5 -35t34.5 -82t-34.5 -82t-81.5 -35t-82 35t-35 82z" />
    <glyph glyph-name="yacute" unicode="&#xfd;" 
d="M102 1024h144v-694q0 -106 55.5 -160.5t138.5 -54.5q106 0 194.5 78.5t88.5 201.5v629h143v-1120q0 -111 -56 -197t-144.5 -129t-192.5 -43q-178 0 -321 119l57 121q53 -53 124 -82t144 -29q106 0 176 60t70 180v256q-50 -84 -124 -129t-157 -45q-86 0 -163 40.5
t-127 120.5t-50 181v696zM520 1167l-131 29l162 301l178 -22z" />
    <glyph glyph-name="thorn" unicode="&#xfe;" 
d="M276 651v-272q0 -77 42 -139t104 -93.5t129 -31.5q86 0 144.5 56.5t58.5 166.5v348q0 110 -59 166.5t-146 56.5q-104 0 -188.5 -72t-84.5 -186zM276 143v-594h-143v2028h143v-678q49 69 125 104t156 35q137 0 238.5 -98.5t101.5 -253.5v-348q0 -156 -103 -254t-239 -98
q-81 0 -154 39t-125 118z" />
    <glyph glyph-name="ydieresis" unicode="&#xff;" 
d="M102 1024h144v-694q0 -106 55.5 -160.5t138.5 -54.5q106 0 194.5 78.5t88.5 201.5v629h143v-1120q0 -111 -56 -197t-144.5 -129t-192.5 -43q-178 0 -321 119l57 121q53 -53 124 -82t144 -29q106 0 176 60t70 180v256q-50 -84 -124 -129t-157 -45q-86 0 -163 40.5
t-127 120.5t-50 181v696zM193 1358q0 47 34.5 82t81.5 35t82 -35t35 -82t-35 -82t-82 -35t-81.5 35t-34.5 82zM573 1358q0 47 35 82t82 35t82 -35t35 -82t-35 -82t-82 -35t-82 35t-35 82z" />
    <glyph glyph-name="Amacron" unicode="&#x100;" horiz-adv-x="1310" 
d="M1167 991v-991h-143v563h-737v-563h-144v991q0 212 148.5 355t363.5 143t363.5 -143t148.5 -355zM1024 692v299q0 154 -107.5 261.5t-261.5 107.5t-261 -107.5t-107 -261.5v-299h737zM948 1659h-586v129h586v-129z" />
    <glyph glyph-name="amacron" unicode="&#x101;" 
d="M735 0l-12 143q-52 -79 -126.5 -118t-156.5 -39q-136 0 -237 95t-101 247v364q0 101 50.5 181.5t128.5 122.5t165 42q173 0 277 -139l14 125h129v-1024h-131zM723 379v272q0 115 -84 186.5t-188 71.5q-86 0 -145.5 -56.5t-59.5 -160.5v-364q0 -104 57 -158.5t143 -54.5
q67 0 129.5 31t105 93t42.5 140zM793 1208h-586v129h586v-129z" />
    <glyph glyph-name="Abreve" unicode="&#x102;" horiz-adv-x="1310" 
d="M1167 991v-991h-143v563h-737v-563h-144v991q0 212 148.5 355t363.5 143t363.5 -143t148.5 -355zM1024 692v299q0 154 -107.5 261.5t-261.5 107.5t-261 -107.5t-107 -261.5v-299h737zM791 1942h143q0 -134 -82 -208.5t-195 -74.5q-114 0 -198 74.5t-84 208.5h143
q0 -73 41.5 -113.5t97.5 -40.5q55 0 94.5 40t39.5 114z" />
    <glyph glyph-name="abreve" unicode="&#x103;" 
d="M735 0l-12 143q-52 -79 -126.5 -118t-156.5 -39q-136 0 -237 95t-101 247v364q0 101 50.5 181.5t128.5 122.5t165 42q173 0 277 -139l14 125h129v-1024h-131zM723 379v272q0 115 -84 186.5t-188 71.5q-86 0 -145.5 -56.5t-59.5 -160.5v-364q0 -104 57 -158.5t143 -54.5
q67 0 129.5 31t105 93t42.5 140zM635 1491h143q0 -91 -40.5 -157t-102 -96t-133.5 -30q-114 0 -198.5 74.5t-84.5 208.5h143q0 -73 42 -113.5t98 -40.5q55 0 94 40t39 114z" />
    <glyph glyph-name="Aogonek" unicode="&#x104;" horiz-adv-x="1310" 
d="M1167 991v-991q-129 -91 -129 -233q0 -58 32 -101.5t97 -79.5l-133 -57q-65 36 -102 99t-37 136q0 61 34.5 123.5t94.5 112.5v563h-737v-563h-144v991q0 212 148.5 355t363.5 143t363.5 -143t148.5 -355zM1024 692v299q0 154 -107.5 261.5t-261.5 107.5t-261 -107.5
t-107 -261.5v-299h737z" />
    <glyph glyph-name="aogonek" unicode="&#x105;" 
d="M866 1024v-1024q-71 -51 -100 -115t-29 -118q0 -58 32 -101.5t97 -79.5l-133 -57q-65 36 -102 99t-37 136q0 61 39 126.5t102 109.5l-12 143q-52 -79 -126.5 -118t-156.5 -39q-136 0 -237 95t-101 247v364q0 101 50.5 181.5t128.5 122.5t165 42q173 0 277 -139l14 125
h129zM723 379v272q0 115 -84 186.5t-188 71.5q-86 0 -145.5 -56.5t-59.5 -160.5v-364q0 -104 57 -158.5t143 -54.5q67 0 129.5 31t105 93t42.5 140z" />
    <glyph glyph-name="Cacute" unicode="&#x106;" horiz-adv-x="1136" 
d="M133 483v508q0 116 43 212t114.5 157.5t162 95t188.5 33.5q137 0 260 -64.5t193 -189.5l-103 -82q-65 104 -156.5 155.5t-193.5 51.5q-148 0 -256.5 -102t-108.5 -267v-508q0 -166 108 -267t255 -101q221 0 352 200l105 -71q-83 -128 -205 -193t-256 -65q-97 0 -187 34.5
t-160.5 96.5t-112.5 157t-42 209zM614 1618l-131 29l162 301l178 -23z" />
    <glyph glyph-name="cacute" unicode="&#x107;" horiz-adv-x="901" 
d="M102 354v299q0 93 34 168.5t90 121.5t124.5 70.5t141.5 24.5q109 0 209 -53t167 -154l-114 -77q-43 76 -112.5 115.5t-147.5 39.5q-104 0 -176 -65.5t-72 -186.5v-295q0 -122 71.5 -184.5t176.5 -62.5q89 0 165.5 47t116.5 133l107 -72q-39 -79 -102.5 -133.5t-136 -79
t-152.5 -24.5q-76 0 -145 24t-124 69t-88 116t-33 159zM481 1167l-131 29l162 301l178 -22z" />
    <glyph glyph-name="Ccircumflex" unicode="&#x108;" horiz-adv-x="1136" 
d="M133 483v508q0 116 43 212t114.5 157.5t162 95t188.5 33.5q137 0 260 -64.5t193 -189.5l-103 -82q-65 104 -156.5 155.5t-193.5 51.5q-148 0 -256.5 -102t-108.5 -267v-508q0 -166 108 -267t255 -101q221 0 352 200l105 -71q-83 -128 -205 -193t-256 -65q-97 0 -187 34.5
t-160.5 96.5t-112.5 157t-42 209zM621 1823l-125 -164h-162l188 237q37 46 99 46q61 0 98 -46l188 -237h-162z" />
    <glyph glyph-name="ccircumflex" unicode="&#x109;" horiz-adv-x="901" 
d="M102 354v299q0 93 34 168.5t90 121.5t124.5 70.5t141.5 24.5q109 0 209 -53t167 -154l-114 -77q-43 76 -112.5 115.5t-147.5 39.5q-104 0 -176 -65.5t-72 -186.5v-295q0 -122 71.5 -184.5t176.5 -62.5q89 0 165.5 47t116.5 133l107 -72q-39 -79 -102.5 -133.5t-136 -79
t-152.5 -24.5q-76 0 -145 24t-124 69t-88 116t-33 159zM473 1372l-125 -164h-162l189 238q36 45 98 45t98 -45l189 -238h-162z" />
    <glyph glyph-name="Cdotaccent" unicode="&#x10a;" horiz-adv-x="1136" 
d="M133 483v508q0 116 43 212t114.5 157.5t162 95t188.5 33.5q137 0 260 -64.5t193 -189.5l-103 -82q-65 104 -156.5 155.5t-193.5 51.5q-148 0 -256.5 -102t-108.5 -267v-508q0 -166 108 -267t255 -101q221 0 352 200l105 -71q-83 -128 -205 -193t-256 -65q-97 0 -187 34.5
t-160.5 96.5t-112.5 157t-42 209zM498 1808q0 47 34.5 82t81.5 35t82 -35t35 -82t-35 -81.5t-82 -34.5t-81.5 34.5t-34.5 81.5z" />
    <glyph glyph-name="cdotaccent" unicode="&#x10b;" horiz-adv-x="901" 
d="M102 354v299q0 93 34 168.5t90 121.5t124.5 70.5t141.5 24.5q109 0 209 -53t167 -154l-114 -77q-43 76 -112.5 115.5t-147.5 39.5q-104 0 -176 -65.5t-72 -186.5v-295q0 -122 71.5 -184.5t176.5 -62.5q89 0 165.5 47t116.5 133l107 -72q-39 -79 -102.5 -133.5t-136 -79
t-152.5 -24.5q-76 0 -145 24t-124 69t-88 116t-33 159zM377 1358q0 47 35 82t82 35t81.5 -35t34.5 -82t-34.5 -82t-81.5 -35t-82 35t-35 82z" />
    <glyph glyph-name="Ccaron" unicode="&#x10c;" horiz-adv-x="1136" 
d="M133 483v508q0 116 43 212t114.5 157.5t162 95t188.5 33.5q137 0 260 -64.5t193 -189.5l-103 -82q-65 104 -156.5 155.5t-193.5 51.5q-148 0 -256.5 -102t-108.5 -267v-508q0 -166 108 -267t255 -101q221 0 352 200l105 -71q-83 -128 -205 -193t-256 -65q-97 0 -187 34.5
t-160.5 96.5t-112.5 157t-42 209zM508 1942l125 -164l125 164h162l-189 -238q-36 -45 -98 -45t-98 45l-189 238h162z" />
    <glyph glyph-name="ccaron" unicode="&#x10d;" horiz-adv-x="901" 
d="M102 354v299q0 93 34 168.5t90 121.5t124.5 70.5t141.5 24.5q109 0 209 -53t167 -154l-114 -77q-43 76 -112.5 115.5t-147.5 39.5q-104 0 -176 -65.5t-72 -186.5v-295q0 -122 71.5 -184.5t176.5 -62.5q89 0 165.5 47t116.5 133l107 -72q-39 -79 -102.5 -133.5t-136 -79
t-152.5 -24.5q-76 0 -145 24t-124 69t-88 116t-33 159zM365 1491l124 -164l125 164h162l-188 -238q-36 -45 -99 -45q-62 0 -98 45l-188 238h162z" />
    <glyph glyph-name="Dcaron" unicode="&#x10e;" horiz-adv-x="1236" 
d="M287 129h362q92 0 167.5 53t122.5 140t72 193.5t25 219.5q0 114 -26 221t-75 195t-128.5 141.5t-177.5 53.5h-342v-1217zM649 0h-362q-60 0 -102 41.5t-42 101.5v1188q0 60 42 102t102 42h342q90 0 169.5 -29t139.5 -80t107.5 -120.5t77.5 -152t45.5 -172t15.5 -182.5
q0 -112 -21.5 -218.5t-65.5 -201t-106.5 -165.5t-150.5 -112.5t-191 -41.5zM416 1942l125 -164l125 164h161l-188 -238q-36 -45 -98 -45q-63 0 -99 45l-188 238h162z" />
    <glyph glyph-name="dcaron" unicode="&#x10f;" horiz-adv-x="1241" 
d="M723 371v280q0 114 -84 186t-188 72q-87 0 -146 -56.5t-59 -166.5v-348q0 -110 60 -166.5t147 -56.5q104 0 187 71t83 185zM745 0l-22 131q-61 -72 -137 -108.5t-154 -36.5q-136 0 -233 97.5t-97 254.5v348q0 155 101.5 253.5t238.5 98.5q80 0 156 -35t125 -104v678h143
v-1577h-121zM1051 1501l143 -14q0 -195 -19 -326.5t-75 -232.5l-154 26q63 108 84 240.5t21 306.5z" />
    <glyph glyph-name="dcroat" unicode="&#x111;" 
d="M723 1231h-219v129h219v217h143v-217h133v-129h-133v-1231h-121l-22 131q-61 -72 -137 -108.5t-154 -36.5q-136 0 -233 97.5t-97 254.5v348q0 155 101.5 253.5t238.5 98.5q80 0 156 -35t125 -104v332zM723 371v280q0 114 -84 186t-188 72q-87 0 -146 -56.5t-59 -166.5
v-348q0 -110 60 -166.5t147 -56.5q104 0 187 71t83 185z" />
    <glyph glyph-name="Emacron" unicode="&#x112;" horiz-adv-x="1167" 
d="M1106 129v-129h-819q-60 0 -102 41.5t-42 101.5v1188q0 60 42 102t102 42h790v-129h-790v-510h655v-129h-655v-578h819zM877 1659h-586v129h586v-129z" />
    <glyph glyph-name="emacron" unicode="&#x113;" horiz-adv-x="923" 
d="M743 276l101 -86q-54 -93 -151.5 -148.5t-209.5 -55.5q-168 0 -284.5 107t-116.5 261v299q0 95 33 170t88.5 121t124.5 70t145 24t145 -25t124.5 -72t88.5 -123t33 -171q0 -87 -50 -140.5t-126 -53.5h-463v-91q0 -117 72.5 -182t177.5 -65q82 0 154.5 41t113.5 120z
M225 653v-71h447q24 0 36.5 20.5t12.5 54.5q0 117 -74.5 184.5t-173.5 67.5q-100 0 -174 -68t-74 -188zM754 1208h-586v129h586v-129z" />
    <glyph glyph-name="Ebreve" unicode="&#x114;" horiz-adv-x="1167" 
d="M1106 129v-129h-819q-60 0 -102 41.5t-42 101.5v1188q0 60 42 102t102 42h790v-129h-790v-510h655v-129h-655v-578h819zM700 1942h162q0 -91 -40.5 -157t-102 -96t-133.5 -30q-114 0 -198.5 74.5t-84.5 208.5h162q0 -67 36 -103.5t85 -36.5q48 0 81 36t33 104z" />
    <glyph glyph-name="ebreve" unicode="&#x115;" horiz-adv-x="923" 
d="M743 276l101 -86q-54 -93 -151.5 -148.5t-209.5 -55.5q-168 0 -284.5 107t-116.5 261v299q0 95 33 170t88.5 121t124.5 70t145 24t145 -25t124.5 -72t88.5 -123t33 -171q0 -87 -50 -140.5t-126 -53.5h-463v-91q0 -117 72.5 -182t177.5 -65q82 0 154.5 41t113.5 120z
M225 653v-71h447q24 0 36.5 20.5t12.5 54.5q0 117 -74.5 184.5t-173.5 67.5q-100 0 -174 -68t-74 -188zM580 1491h161q0 -91 -40.5 -157t-102 -96t-133.5 -30q-114 0 -198.5 74.5t-84.5 208.5h162q0 -67 36 -103t85 -36q48 0 81.5 35.5t33.5 103.5z" />
    <glyph glyph-name="Edotaccent" unicode="&#x116;" horiz-adv-x="1167" 
d="M1106 129v-129h-819q-60 0 -102 41.5t-42 101.5v1188q0 60 42 102t102 42h790v-129h-790v-510h655v-129h-655v-578h819zM467 1808q0 47 35 82t82 35t81.5 -35t34.5 -82t-34.5 -81.5t-81.5 -34.5t-82 34.5t-35 81.5z" />
    <glyph glyph-name="edotaccent" unicode="&#x117;" horiz-adv-x="923" 
d="M743 276l101 -86q-54 -93 -151.5 -148.5t-209.5 -55.5q-168 0 -284.5 107t-116.5 261v299q0 95 33 170t88.5 121t124.5 70t145 24t145 -25t124.5 -72t88.5 -123t33 -171q0 -87 -50 -140.5t-126 -53.5h-463v-91q0 -117 72.5 -182t177.5 -65q82 0 154.5 41t113.5 120z
M225 653v-71h447q24 0 36.5 20.5t12.5 54.5q0 117 -74.5 184.5t-173.5 67.5q-100 0 -174 -68t-74 -188zM344 1358q0 47 35 82t82 35t82 -35t35 -82t-35 -82t-82 -35t-82 35t-35 82z" />
    <glyph glyph-name="Eogonek" unicode="&#x118;" horiz-adv-x="1167" 
d="M985 0h-698q-60 0 -102 41.5t-42 101.5v1188q0 60 42 102t102 42h790v-129h-790v-510h655v-129h-655v-578h819v-129q-129 -107 -129 -233q0 -58 32 -101.5t97 -79.5l-133 -57q-65 36 -102 99t-37 136q0 60 40.5 122t110.5 114z" />
    <glyph glyph-name="eogonek" unicode="&#x119;" horiz-adv-x="923" 
d="M743 276l101 -86q-4 -12 -24 -71t-26.5 -78.5t-21.5 -68t-20.5 -74t-11 -59t-5.5 -58.5q0 -66 27 -109t102 -86l-133 -57q-139 84 -139 240q0 119 127 290q-115 -73 -246 -73q-160 0 -275.5 102t-115.5 266v299q0 95 33 170t88.5 121t124.5 70t145 24t145 -25t124.5 -72
t88.5 -123t33 -171q0 -87 -50 -140.5t-126 -53.5h-463v-91q0 -117 72.5 -182t177.5 -65q82 0 154.5 41t113.5 120zM225 653v-71h447q24 0 36.5 20.5t12.5 54.5q0 117 -74.5 184.5t-173.5 67.5q-100 0 -174 -68t-74 -188z" />
    <glyph glyph-name="Ecaron" unicode="&#x11a;" horiz-adv-x="1167" 
d="M1106 129v-129h-819q-60 0 -102 41.5t-42 101.5v1188q0 60 42 102t102 42h790v-129h-790v-510h655v-129h-655v-578h819zM459 1942l125 -164l125 164h161l-188 -238q-36 -45 -98 -45q-63 0 -99 45l-188 238h162z" />
    <glyph glyph-name="ecaron" unicode="&#x11b;" horiz-adv-x="923" 
d="M743 276l101 -86q-54 -93 -151.5 -148.5t-209.5 -55.5q-168 0 -284.5 107t-116.5 261v299q0 95 33 170t88.5 121t124.5 70t145 24t145 -25t124.5 -72t88.5 -123t33 -171q0 -87 -50 -140.5t-126 -53.5h-463v-91q0 -117 72.5 -182t177.5 -65q82 0 154.5 41t113.5 120z
M225 653v-71h447q24 0 36.5 20.5t12.5 54.5q0 117 -74.5 184.5t-173.5 67.5q-100 0 -174 -68t-74 -188zM336 1491l125 -164l125 164h162l-189 -238q-36 -45 -98 -45q-63 0 -99 45l-188 238h162z" />
    <glyph glyph-name="Gcircumflex" unicode="&#x11c;" horiz-adv-x="1280" 
d="M133 483v508q0 119 44.5 215.5t119 157t168 93t194.5 32.5q139 0 260.5 -57t198.5 -170l-102 -88q-59 90 -157 138t-200 48q-100 0 -186 -42t-141.5 -128t-55.5 -199v-508q0 -154 107.5 -261t261.5 -107t261.5 107t107.5 261v146q0 45 -45 45h-275v127h287
q176 0 176 -176v-142q0 -212 -148.5 -354.5t-363.5 -142.5t-363.5 142.5t-148.5 354.5zM639 1823l-125 -164h-162l189 237q37 46 98 46t98 -46l189 -237h-162z" />
    <glyph glyph-name="gcircumflex" unicode="&#x11d;" 
d="M723 395v256q0 114 -84 186t-188 72q-87 0 -146 -54.5t-59 -160.5v-364q0 -106 56 -160.5t140 -54.5q106 0 193.5 78.5t87.5 201.5zM723 -90v250q-50 -84 -124 -129t-157 -45q-86 0 -163 40.5t-127 120.5t-50 181v364q0 101 50.5 181.5t128.5 122.5t165 42
q173 0 277 -139l14 125h129v-1120q0 -155 -109.5 -262t-275.5 -107q-195 0 -329 119l55 119q59 -53 130 -81t140 -28q109 0 177.5 59.5t68.5 186.5zM500 1372l-125 -164h-162l188 238q36 45 99 45q62 0 98 -45l188 -238h-161z" />
    <glyph glyph-name="Gbreve" unicode="&#x11e;" horiz-adv-x="1280" 
d="M133 483v508q0 119 44.5 215.5t119 157t168 93t194.5 32.5q139 0 260.5 -57t198.5 -170l-102 -88q-59 90 -157 138t-200 48q-100 0 -186 -42t-141.5 -128t-55.5 -199v-508q0 -154 107.5 -261t261.5 -107t261.5 107t107.5 261v146q0 45 -45 45h-275v127h287
q176 0 176 -176v-142q0 -212 -148.5 -354.5t-363.5 -142.5t-363.5 142.5t-148.5 354.5zM776 1942h144q0 -134 -82 -208.5t-195 -74.5q-114 0 -198.5 74.5t-84.5 208.5h144q0 -73 41.5 -113.5t97.5 -40.5q55 0 94 40t39 114z" />
    <glyph glyph-name="gbreve" unicode="&#x11f;" 
d="M723 395v256q0 114 -84 186t-188 72q-87 0 -146 -54.5t-59 -160.5v-364q0 -106 56 -160.5t140 -54.5q106 0 193.5 78.5t87.5 201.5zM723 -90v250q-50 -84 -124 -129t-157 -45q-86 0 -163 40.5t-127 120.5t-50 181v364q0 101 50.5 181.5t128.5 122.5t165 42
q173 0 277 -139l14 125h129v-1120q0 -155 -109.5 -262t-275.5 -107q-195 0 -329 119l55 119q59 -53 130 -81t140 -28q109 0 177.5 59.5t68.5 186.5zM635 1491h143q0 -91 -40.5 -157t-102 -96t-133.5 -30q-114 0 -198.5 74.5t-84.5 208.5h143q0 -73 42 -113.5t98 -40.5
q55 0 94 40t39 114z" />
    <glyph glyph-name="Gdotaccent" unicode="&#x120;" horiz-adv-x="1280" 
d="M133 483v508q0 119 44.5 215.5t119 157t168 93t194.5 32.5q139 0 260.5 -57t198.5 -170l-102 -88q-59 90 -157 138t-200 48q-100 0 -186 -42t-141.5 -128t-55.5 -199v-508q0 -154 107.5 -261t261.5 -107t261.5 107t107.5 261v146q0 45 -45 45h-275v127h287
q176 0 176 -176v-142q0 -212 -148.5 -354.5t-363.5 -142.5t-363.5 142.5t-148.5 354.5zM522 1808q0 47 35 82t82 35t82 -35t35 -82t-35 -81.5t-82 -34.5t-82 34.5t-35 81.5z" />
    <glyph glyph-name="gdotaccent" unicode="&#x121;" 
d="M723 395v256q0 114 -84 186t-188 72q-87 0 -146 -54.5t-59 -160.5v-364q0 -106 56 -160.5t140 -54.5q106 0 193.5 78.5t87.5 201.5zM723 -90v250q-50 -84 -124 -129t-157 -45q-86 0 -163 40.5t-127 120.5t-50 181v364q0 101 50.5 181.5t128.5 122.5t165 42
q173 0 277 -139l14 125h129v-1120q0 -155 -109.5 -262t-275.5 -107q-195 0 -329 119l55 119q59 -53 130 -81t140 -28q109 0 177.5 59.5t68.5 186.5zM383 1358q0 47 35 82t82 35t81.5 -35t34.5 -82t-34.5 -82t-81.5 -35t-82 35t-35 82z" />
    <glyph glyph-name="Gcommaaccent" unicode="&#x122;" horiz-adv-x="1280" 
d="M133 483v508q0 119 44.5 215.5t119 157t168 93t194.5 32.5q139 0 260.5 -57t198.5 -170l-102 -88q-59 90 -157 138t-200 48q-100 0 -186 -42t-141.5 -128t-55.5 -199v-508q0 -154 107.5 -261t261.5 -107t261.5 107t107.5 261v146q0 45 -45 45h-275v127h287
q176 0 176 -176v-142q0 -212 -148.5 -354.5t-363.5 -142.5t-363.5 142.5t-148.5 354.5zM608 -117l144 15v-56q0 -106 -23 -178t-72 -129l-153 27q56 70 80 136.5t24 156.5v28z" />
    <glyph glyph-name="gcommaaccent" unicode="&#x123;" 
d="M723 395v256q0 114 -84 186t-188 72q-87 0 -146 -54.5t-59 -160.5v-364q0 -106 56 -160.5t140 -54.5q106 0 193.5 78.5t87.5 201.5zM723 -90v250q-50 -84 -124 -129t-157 -45q-86 0 -163 40.5t-127 120.5t-50 181v364q0 101 50.5 181.5t128.5 122.5t165 42
q173 0 277 -139l14 125h129v-1120q0 -155 -109.5 -262t-275.5 -107q-195 0 -329 119l55 119q59 -53 130 -81t140 -28q109 0 177.5 59.5t68.5 186.5zM541 1208l-144 -14v55q0 106 23 178t72 129l153 -26q-56 -70 -80 -136.5t-24 -156.5v-29z" />
    <glyph glyph-name="Hcircumflex" unicode="&#x124;" horiz-adv-x="1310" 
d="M1167 1475v-1475h-143v702h-737v-702h-144v1475h144v-644h737v644h143zM655 1823l-125 -164h-161l188 237q37 46 98 46q62 0 99 -46l188 -237h-162z" />
    <glyph glyph-name="hcircumflex" unicode="&#x125;" horiz-adv-x="1030" 
d="M276 0h-143v1577h143v-703q59 82 140.5 123t167.5 41q130 0 221.5 -92t91.5 -252v-694h-143v686q0 112 -54.5 167.5t-136.5 55.5q-107 0 -197 -80.5t-90 -201.5v-627zM203 1823l-125 -164h-162l188 237q37 46 99 46q61 0 98 -46l188 -237h-161z" />
    <glyph glyph-name="Hbar" unicode="&#x126;" horiz-adv-x="1310" 
d="M143 1114h-123v129h123v232h144v-232h737v232h143v-232h123v-129h-123v-1114h-143v702h-737v-702h-144v1114zM287 831h737v283h-737v-283z" />
    <glyph glyph-name="hbar" unicode="&#x127;" horiz-adv-x="1030" 
d="M276 1360h220v-129h-220v-357q59 82 140.5 123t167.5 41q130 0 221.5 -92t91.5 -252v-694h-143v686q0 112 -54.5 167.5t-136.5 55.5q-107 0 -197 -80.5t-90 -201.5v-627h-143v1231h-133v129h133v217h143v-217z" />
    <glyph glyph-name="Itilde" unicode="&#x128;" horiz-adv-x="471" 
d="M307 1475v-1475h-143v1475h143zM373 1647q-39 0 -77 17t-63.5 38t-55.5 38t-54 17q-32 0 -55.5 -29t-34.5 -77l-109 84q20 75 64.5 120.5t113.5 45.5q34 0 71 -17.5t63 -38t56.5 -38t53.5 -17.5q32 0 55.5 29t34.5 77l109 -84q-20 -74 -63.5 -119.5t-108.5 -45.5z" />
    <glyph glyph-name="itilde" unicode="&#x129;" horiz-adv-x="430" 
d="M287 0h-144v1024h144v-1024zM354 1196q-49 0 -96 28t-85.5 55.5t-68.5 27.5q-32 0 -55.5 -29.5t-34.5 -77.5l-108 84q20 75 64.5 120.5t113.5 45.5q43 0 89.5 -28t86.5 -55.5t68 -27.5q32 0 55.5 29.5t34.5 77.5l108 -84q-20 -75 -63.5 -120.5t-108.5 -45.5z" />
    <glyph glyph-name="uni012A" unicode="&#x12a;" horiz-adv-x="471" 
d="M307 1475v-1475h-143v1475h143zM471 1659h-471v129h471v-129z" />
    <glyph glyph-name="imacron" unicode="&#x12b;" horiz-adv-x="430" 
d="M287 0h-144v1024h144v-1024zM430 1208h-430v129h430v-129z" />
    <glyph glyph-name="Iogonek" unicode="&#x12e;" horiz-adv-x="471" 
d="M307 1475v-1475q-102 -102 -102 -233q0 -58 32 -101.5t97 -79.5l-133 -57q-66 37 -103 100t-37 135q0 133 103 236v1475h143z" />
    <glyph glyph-name="iogonek" unicode="&#x12f;" horiz-adv-x="430" 
d="M100 1358q0 47 35 82t82 35t82 -35t35 -82t-35 -82t-82 -35t-82 35t-35 82zM287 1024v-1024q-101 -121 -101 -233q0 -58 32 -101.5t97 -79.5l-133 -57q-65 36 -102 99t-37 136q0 136 100 236v1024h144z" />
    <glyph glyph-name="Idotaccent" unicode="&#x130;" horiz-adv-x="471" 
d="M307 1475v-1475h-143v1475h143zM119 1808q0 47 35 82t82 35t81.5 -35t34.5 -82t-34.5 -81.5t-81.5 -34.5t-82 34.5t-35 81.5z" />
    <glyph glyph-name="dotlessi" unicode="&#x131;" horiz-adv-x="430" 
d="M287 0h-144v1024h144v-1024z" />
    <glyph glyph-name="Jcircumflex" unicode="&#x134;" horiz-adv-x="757" 
d="M625 1475v-1041q0 -105 -34.5 -191t-94 -141.5t-137.5 -85.5t-166 -30q-91 0 -183 30v144q96 -47 185 -47q124 0 205 83.5t81 237.5v1041h144zM549 1823l-125 -164h-162l189 237q37 46 98 46t98 -46l189 -237h-162z" />
    <glyph glyph-name="jcircumflex" unicode="&#x135;" horiz-adv-x="450" 
d="M184 1024h144v-1085q0 -203 -78 -303.5t-223 -100.5q-71 0 -144 21l19 129q68 -21 123 -21q82 0 120.5 65t38.5 224v1071zM254 1372l-125 -164h-162l189 238q36 45 98 45t98 -45l189 -238h-162z" />
    <glyph glyph-name="Kcommaaccent" unicode="&#x136;" horiz-adv-x="1284" 
d="M991 1475h144q0 -206 -79.5 -369.5t-224.5 -271.5q157 -36 246.5 -150t89.5 -285v-399h-143v399q0 143 -93 231.5t-243 119.5q-179 -84 -401 -93v-657h-144v1475h144v-689q203 8 361 91t250.5 238t92.5 360zM608 -117l144 15v-56q0 -106 -23 -178t-72 -129l-153 27
q56 70 80 136.5t24 156.5v28z" />
    <glyph glyph-name="kcommaaccent" unicode="&#x137;" horiz-adv-x="954" 
d="M459 -117l143 15v-56q0 -106 -22.5 -178t-71.5 -129l-154 27q56 70 80.5 137t24.5 156v28zM698 1010l142 14q6 -46 6 -88q0 -243 -178 -379q178 -72 178 -238v-319h-144v299q0 71 -43 120.5t-116 63.5q-116 -49 -267 -55v-428h-143v1577h143v-1024q182 5 307.5 109
t125.5 262q0 29 -11 86z" />
    <glyph glyph-name="Lacute" unicode="&#x139;" horiz-adv-x="1024" 
d="M1004 129v-129h-717q-60 0 -102 41.5t-42 101.5v1332h144v-1346h717zM291 1618l-131 29l162 301l178 -23z" />
    <glyph glyph-name="lacute" unicode="&#x13a;" horiz-adv-x="450" 
d="M297 0h-143v1577h143v-1577zM250 1659l-131 29l162 301l178 -23z" />
    <glyph glyph-name="Lcommaaccent" unicode="&#x13b;" horiz-adv-x="1024" 
d="M1004 129v-129h-717q-60 0 -102 41.5t-42 101.5v1332h144v-1346h717zM518 -117l144 15v-56q0 -106 -23 -178t-72 -129l-153 27q56 70 80 136.5t24 156.5v28z" />
    <glyph glyph-name="lcommaaccent" unicode="&#x13c;" horiz-adv-x="450" 
d="M297 0h-143v1577h143v-1577zM154 -117l143 15v-56q0 -106 -22.5 -178t-71.5 -129l-154 27q56 70 80.5 137t24.5 156v28z" />
    <glyph glyph-name="Lcaron" unicode="&#x13d;" horiz-adv-x="1024" 
d="M1004 129v-129h-717q-60 0 -102 41.5t-42 101.5v1332h144v-1346h717zM518 1501l144 -14q0 -194 -19.5 -326t-75.5 -233l-153 26q63 108 83.5 239.5t20.5 307.5z" />
    <glyph glyph-name="lcaron" unicode="&#x13e;" horiz-adv-x="679" 
d="M297 0h-143v1577h143v-1577zM492 1501l143 -14q0 -195 -19 -326.5t-75 -232.5l-154 26q63 108 84 240.5t21 306.5z" />
    <glyph glyph-name="Ldot" unicode="&#x13f;" horiz-adv-x="1024" 
d="M1004 129v-129h-717q-60 0 -102 41.5t-42 101.5v1332h144v-1346h717zM461 631q0 49 34.5 84t84.5 35q49 0 83.5 -34.5t34.5 -84.5t-34.5 -84.5t-83.5 -34.5q-50 0 -84.5 35t-34.5 84z" />
    <glyph glyph-name="ldot" unicode="&#x140;" horiz-adv-x="671" 
d="M412 631q0 50 34.5 84.5t83.5 34.5q50 0 84.5 -35t34.5 -84t-34.5 -84t-84.5 -35q-49 0 -83.5 34.5t-34.5 84.5zM297 0h-143v1577h143v-1577z" />
    <glyph glyph-name="Lslash" unicode="&#x141;" horiz-adv-x="1024" 
d="M143 539l-143 -50v144l143 49v793h144v-742l334 119v-143l-334 -119v-461h717v-129h-717q-60 0 -102 41.5t-42 101.5v396z" />
    <glyph glyph-name="lslash" unicode="&#x142;" horiz-adv-x="450" 
d="M297 0h-143v543l-154 -54v144l154 53v891h143v-840l154 56v-144l-154 -55v-594z" />
    <glyph glyph-name="Nacute" unicode="&#x143;" horiz-adv-x="1310" 
d="M907 66l-620 1239v-1305h-144v1356q0 62 38 96.5t91 34.5q40 0 75.5 -20.5t55.5 -57.5l621 -1239v1305h143v-1356q0 -63 -38 -98t-91 -35q-41 0 -76.5 20.5t-54.5 59.5zM682 1618l-131 29l162 301l178 -23z" />
    <glyph glyph-name="nacute" unicode="&#x144;" horiz-adv-x="1030" 
d="M276 0h-143v1024h131l12 -150q58 82 138 123t168 41q133 0 224 -94t91 -264v-680h-143v680q0 115 -52.5 172t-132.5 57q-109 0 -201 -89t-92 -218v-602zM553 1167l-131 29l162 301l178 -22z" />
    <glyph glyph-name="Ncommaaccent" unicode="&#x145;" horiz-adv-x="1310" 
d="M907 66l-620 1239v-1305h-144v1356q0 62 38 96.5t91 34.5q40 0 75.5 -20.5t55.5 -57.5l621 -1239v1305h143v-1356q0 -63 -38 -98t-91 -35q-41 0 -76.5 20.5t-54.5 59.5zM608 -117l144 15v-56q0 -106 -23 -178t-72 -129l-153 27q56 70 80 136.5t24 156.5v28z" />
    <glyph glyph-name="ncommaaccent" unicode="&#x146;" horiz-adv-x="1030" 
d="M473 -117l143 15v-56q0 -106 -22.5 -178t-71.5 -129l-153 27q56 70 80 136.5t24 156.5v28zM276 0h-143v1024h131l12 -150q58 82 138 123t168 41q133 0 224 -94t91 -264v-680h-143v680q0 115 -52.5 172t-132.5 57q-109 0 -201 -89t-92 -218v-602z" />
    <glyph glyph-name="Ncaron" unicode="&#x147;" horiz-adv-x="1310" 
d="M907 66l-620 1239v-1305h-144v1356q0 62 38 96.5t91 34.5q40 0 75.5 -20.5t55.5 -57.5l621 -1239v1305h143v-1356q0 -63 -38 -98t-91 -35q-41 0 -76.5 20.5t-54.5 59.5zM530 1942l125 -164l125 164h162l-188 -238q-36 -45 -99 -45q-62 0 -98 45l-188 238h161z" />
    <glyph glyph-name="ncaron" unicode="&#x148;" horiz-adv-x="1030" 
d="M276 0h-143v1024h131l12 -150q58 82 138 123t168 41q133 0 224 -94t91 -264v-680h-143v680q0 115 -52.5 172t-132.5 57q-109 0 -201 -89t-92 -218v-602zM389 1491l125 -164l125 164h162l-189 -238q-36 -45 -98 -45t-98 45l-189 238h162z" />
    <glyph glyph-name="napostrophe" unicode="&#x149;" horiz-adv-x="1183" 
d="M430 0h-143v1024h131l12 -150q58 82 137.5 123t167.5 41q133 0 224.5 -94t91.5 -264v-680h-144v680q0 115 -52 172t-132 57q-109 0 -201 -89t-92 -218v-602zM104 1501l144 -14q0 -195 -19 -326.5t-75 -232.5l-154 26q63 108 83.5 239.5t20.5 307.5z" />
    <glyph glyph-name="Omacron" unicode="&#x14c;" horiz-adv-x="1331" 
d="M1065 514v447q0 164 -117.5 281.5t-281.5 117.5t-282 -117.5t-118 -281.5v-447q0 -164 118 -281.5t282 -117.5t281.5 117.5t117.5 281.5zM1208 961v-447q0 -147 -73 -268.5t-197 -190.5t-272 -69t-272.5 69t-197.5 190.5t-73 268.5v447q0 147 73 268.5t197.5 190.5
t272.5 69t272 -69t197 -190.5t73 -268.5zM958 1659h-585v129h585v-129z" />
    <glyph glyph-name="omacron" unicode="&#x14d;" horiz-adv-x="966" 
d="M483 115q104 0 176 67t72 170v320q0 103 -72 170t-176 67t-175.5 -67t-71.5 -170v-320q0 -103 71.5 -170t175.5 -67zM483 -14q-164 0 -277.5 103.5t-113.5 262.5v320q0 159 113.5 262.5t277.5 103.5t277.5 -103.5t113.5 -262.5v-320q0 -159 -113.5 -262.5t-277.5 -103.5z
M776 1208h-586v129h586v-129z" />
    <glyph glyph-name="Obreve" unicode="&#x14e;" horiz-adv-x="1331" 
d="M1065 514v447q0 164 -117.5 281.5t-281.5 117.5t-282 -117.5t-118 -281.5v-447q0 -164 118 -281.5t282 -117.5t281.5 117.5t117.5 281.5zM1208 961v-447q0 -147 -73 -268.5t-197 -190.5t-272 -69t-272.5 69t-197.5 190.5t-73 268.5v447q0 147 73 268.5t197.5 190.5
t272.5 69t272 -69t197 -190.5t73 -268.5zM801 1942h143q0 -91 -40.5 -157t-102 -96t-133.5 -30q-114 0 -198.5 74.5t-84.5 208.5h143q0 -73 42 -113.5t98 -40.5q55 0 94 40t39 114z" />
    <glyph glyph-name="obreve" unicode="&#x14f;" horiz-adv-x="966" 
d="M483 115q104 0 176 67t72 170v320q0 103 -72 170t-176 67t-175.5 -67t-71.5 -170v-320q0 -103 71.5 -170t175.5 -67zM483 -14q-164 0 -277.5 103.5t-113.5 262.5v320q0 159 113.5 262.5t277.5 103.5t277.5 -103.5t113.5 -262.5v-320q0 -159 -113.5 -262.5t-277.5 -103.5z
M618 1491h144q0 -134 -82 -208.5t-195 -74.5q-114 0 -198 74.5t-84 208.5h143q0 -73 41.5 -113.5t97.5 -40.5q55 0 94 40t39 114z" />
    <glyph glyph-name="Ohungarumlaut" unicode="&#x150;" horiz-adv-x="1331" 
d="M1065 514v447q0 164 -117.5 281.5t-281.5 117.5t-282 -117.5t-118 -281.5v-447q0 -164 118 -281.5t282 -117.5t281.5 117.5t117.5 281.5zM1208 961v-447q0 -147 -73 -268.5t-197 -190.5t-272 -69t-272.5 69t-197.5 190.5t-73 268.5v447q0 147 73 268.5t197.5 190.5
t272.5 69t272 -69t197 -190.5t73 -268.5zM563 1618l-131 29l162 301l178 -23zM889 1618l-131 29l162 301l178 -23z" />
    <glyph glyph-name="ohungarumlaut" unicode="&#x151;" horiz-adv-x="966" 
d="M483 115q104 0 176 67t72 170v320q0 103 -72 170t-176 67t-175.5 -67t-71.5 -170v-320q0 -103 71.5 -170t175.5 -67zM483 -14q-164 0 -277.5 103.5t-113.5 262.5v320q0 159 113.5 262.5t277.5 103.5t277.5 -103.5t113.5 -262.5v-320q0 -159 -113.5 -262.5t-277.5 -103.5z
M381 1167l-131 29l162 301l178 -22zM707 1167l-132 29l162 301l178 -22z" />
    <glyph glyph-name="OE" unicode="&#x152;" horiz-adv-x="2015" 
d="M1952 129v-129h-819q-43 0 -78.5 23t-53.5 61q-153 -98 -335 -98q-148 0 -272.5 69t-197.5 190.5t-73 268.5v447q0 119 45.5 219.5t121.5 167.5t175 104t207 37q178 0 329 -96q17 37 52.5 59.5t79.5 22.5h790v-129h-790v-510h655v-129h-655v-578h819zM666 115
q184 0 323 116v1016q-136 113 -313 113q-65 0 -125.5 -17t-112 -50.5t-90 -81t-60.5 -112t-22 -138.5v-447q0 -164 118 -281.5t282 -117.5z" />
    <glyph glyph-name="oe" unicode="&#x153;" horiz-adv-x="1574" 
d="M1393 276l100 -86q-54 -93 -151 -148.5t-209 -55.5q-102 0 -187.5 46t-140.5 126q-55 -80 -139.5 -126t-182.5 -46q-164 0 -277.5 103.5t-113.5 262.5v320q0 159 113.5 262.5t277.5 103.5q98 0 183 -48t135 -130q54 82 140.5 130t180.5 48q76 0 145 -25t124.5 -72
t88.5 -123t33 -171q0 -87 -50 -140.5t-126 -53.5h-463v-101q0 -111 74.5 -174t175.5 -63q82 0 155 41t114 120zM483 115q101 0 174.5 64.5t73.5 162.5v330q0 103 -72 170t-176 67t-175.5 -67t-71.5 -170v-320q0 -103 71.5 -170t175.5 -67zM874 666v-84h447q24 0 36.5 20.5
t12.5 54.5q0 117 -74.5 184.5t-173.5 67.5q-100 0 -174 -64t-74 -179z" />
    <glyph glyph-name="Racute" unicode="&#x154;" horiz-adv-x="1255" 
d="M719 676h-432v-676h-144v1331q0 60 42 102t102 42h473q89 0 163 -34t120.5 -90.5t72 -126.5t25.5 -145q0 -110 -55 -200.5t-164 -139.5q115 -47 180 -150.5t65 -238.5v-350h-143v334q0 144 -91.5 243t-213.5 99zM287 805h473q75 0 131 42t82 102.5t26 125.5
q0 106 -64 188.5t-175 82.5h-473v-541zM588 1618l-131 29l161 301l179 -23z" />
    <glyph glyph-name="racute" unicode="&#x155;" horiz-adv-x="759" 
d="M274 1167l-131 29l162 301l178 -22zM692 1016v-135q-76 28 -133 28q-115 0 -199 -77.5t-84 -206.5v-625h-143v1024h131l12 -127q54 70 128.5 105.5t156.5 35.5q57 0 131 -22z" />
    <glyph glyph-name="Rcommaaccent" unicode="&#x156;" horiz-adv-x="1255" 
d="M719 676h-432v-676h-144v1331q0 60 42 102t102 42h473q89 0 163 -34t120.5 -90.5t72 -126.5t25.5 -145q0 -110 -55 -200.5t-164 -139.5q115 -47 180 -150.5t65 -238.5v-350h-143v334q0 144 -91.5 243t-213.5 99zM287 805h473q75 0 131 42t82 102.5t26 125.5
q0 106 -64 188.5t-175 82.5h-473v-541zM608 -117l144 15v-56q0 -106 -23 -178t-72 -129l-153 27q56 70 80 136.5t24 156.5v28z" />
    <glyph glyph-name="rcommaaccent" unicode="&#x157;" horiz-adv-x="759" 
d="M133 -117l143 15v-56q0 -106 -22.5 -178t-71.5 -129l-153 27q56 70 80 136.5t24 156.5v28zM692 1016v-135q-76 28 -133 28q-115 0 -199 -77.5t-84 -206.5v-625h-143v1024h131l12 -127q54 70 128.5 105.5t156.5 35.5q57 0 131 -22z" />
    <glyph glyph-name="Rcaron" unicode="&#x158;" horiz-adv-x="1255" 
d="M719 676h-432v-676h-144v1331q0 60 42 102t102 42h473q89 0 163 -34t120.5 -90.5t72 -126.5t25.5 -145q0 -110 -55 -200.5t-164 -139.5q115 -47 180 -150.5t65 -238.5v-350h-143v334q0 144 -91.5 243t-213.5 99zM287 805h473q75 0 131 42t82 102.5t26 125.5
q0 106 -64 188.5t-175 82.5h-473v-541zM502 1942l125 -164l125 164h161l-188 -238q-36 -45 -98 -45q-63 0 -99 45l-188 238h162z" />
    <glyph glyph-name="rcaron" unicode="&#x159;" horiz-adv-x="759" 
d="M254 1491l125 -164l125 164h162l-189 -238q-36 -45 -98 -45t-98 45l-189 238h162zM692 1016v-135q-76 28 -133 28q-115 0 -199 -77.5t-84 -206.5v-625h-143v1024h131l12 -127q54 70 128.5 105.5t156.5 35.5q57 0 131 -22z" />
    <glyph glyph-name="Sacute" unicode="&#x15a;" horiz-adv-x="1146" 
d="M80 102l6 146q263 -133 498 -133q75 0 136.5 16t112 51t79 97.5t28.5 148.5q0 64 -30 109.5t-80.5 72t-116 45t-138 32.5t-145 30.5t-138 44.5t-116 67.5t-80.5 106.5t-30 156q0 82 28.5 152t85 126t151.5 87.5t218 31.5q218 0 438 -68l-26 -118q-211 57 -383 57
q-62 0 -115 -8t-100.5 -27.5t-81 -49.5t-53 -76.5t-19.5 -106.5q0 -66 30 -112t80.5 -71.5t116 -43t138 -30.5t145 -28t138 -42.5t116 -67.5t80.5 -109t30 -162q0 -113 -37.5 -198.5t-106 -137.5t-158 -78t-199.5 -26q-125 0 -259 30.5t-243 85.5zM565 1618l-131 29l162 301
l178 -23z" />
    <glyph glyph-name="sacute" unicode="&#x15b;" horiz-adv-x="837" 
d="M731 989l-14 -127q-147 47 -291 47q-219 0 -219 -164q0 -42 24.5 -72t64.5 -46t91.5 -31.5t105 -27t105 -34t91.5 -51.5t64.5 -80.5t24.5 -119.5q0 -144 -101.5 -220.5t-283.5 -76.5q-147 0 -301 34l17 134q166 -39 276 -39q52 0 95 8.5t79 27t56 53t20 81.5
q0 49 -31.5 82.5t-82 52t-111.5 34t-122 35.5t-111.5 48.5t-82 81.5t-31.5 126q0 137 101.5 215t261.5 78q123 0 305 -49zM408 1167l-132 29l162 301l178 -22z" />
    <glyph glyph-name="Scircumflex" unicode="&#x15c;" horiz-adv-x="1146" 
d="M80 102l6 146q263 -133 498 -133q75 0 136.5 16t112 51t79 97.5t28.5 148.5q0 64 -30 109.5t-80.5 72t-116 45t-138 32.5t-145 30.5t-138 44.5t-116 67.5t-80.5 106.5t-30 156q0 82 28.5 152t85 126t151.5 87.5t218 31.5q218 0 438 -68l-26 -118q-211 57 -383 57
q-62 0 -115 -8t-100.5 -27.5t-81 -49.5t-53 -76.5t-19.5 -106.5q0 -66 30 -112t80.5 -71.5t116 -43t138 -30.5t145 -28t138 -42.5t116 -67.5t80.5 -109t30 -162q0 -113 -37.5 -198.5t-106 -137.5t-158 -78t-199.5 -26q-125 0 -259 30.5t-243 85.5zM573 1823l-124 -164h-162
l188 237q37 46 98 46q62 0 99 -46l188 -237h-162z" />
    <glyph glyph-name="scircumflex" unicode="&#x15d;" horiz-adv-x="837" 
d="M731 989l-14 -127q-147 47 -291 47q-219 0 -219 -164q0 -42 24.5 -72t64.5 -46t91.5 -31.5t105 -27t105 -34t91.5 -51.5t64.5 -80.5t24.5 -119.5q0 -144 -101.5 -220.5t-283.5 -76.5q-147 0 -301 34l17 134q166 -39 276 -39q52 0 95 8.5t79 27t56 53t20 81.5
q0 49 -31.5 82.5t-82 52t-111.5 34t-122 35.5t-111.5 48.5t-82 81.5t-31.5 126q0 137 101.5 215t261.5 78q123 0 305 -49zM418 1372l-125 -164h-162l188 238q36 45 99 45q62 0 98 -45l189 -238h-162z" />
    <glyph glyph-name="Scedilla" unicode="&#x15e;" horiz-adv-x="1146" 
d="M80 102l6 146q263 -133 498 -133q75 0 136.5 16t112 51t79 97.5t28.5 148.5q0 64 -30 109.5t-80.5 72t-116 45t-138 32.5t-145 30.5t-138 44.5t-116 67.5t-80.5 106.5t-30 156q0 82 28.5 152t85 126t151.5 87.5t218 31.5q218 0 438 -68l-26 -118q-211 57 -383 57
q-62 0 -115 -8t-100.5 -27.5t-81 -49.5t-53 -76.5t-19.5 -106.5q0 -66 30 -112t80.5 -71.5t116 -43t138 -30.5t145 -28t138 -42.5t116 -67.5t80.5 -109t30 -162q0 -218 -132.5 -326.5t-354.5 -113.5v-78q99 -10 150 -60t51 -116q0 -89 -71 -143t-202 -54q-85 0 -174 29
l19 133q79 -29 159 -29q125 0 125 66q0 33 -47 45t-143 12v203q-210 22 -383 108z" />
    <glyph glyph-name="scedilla" unicode="&#x15f;" horiz-adv-x="837" 
d="M731 989l-14 -127q-147 47 -291 47q-219 0 -219 -164q0 -42 24.5 -72t64.5 -46t91.5 -31.5t105 -27t105 -34t91.5 -51.5t64.5 -80.5t24.5 -119.5q0 -134 -88 -209t-250 -86v-80q99 -10 150 -60t51 -116q0 -89 -70.5 -143t-201.5 -54q-85 0 -174 29l18 133q79 -29 160 -29
q125 0 125 66q0 33 -47.5 45t-143.5 12v199q-128 11 -215 30l17 134q166 -39 276 -39q52 0 95 8.5t79 27t56 53t20 81.5q0 49 -31.5 82.5t-82 52t-111.5 34t-122 35.5t-111.5 48.5t-82 81.5t-31.5 126q0 137 101.5 215t261.5 78q123 0 305 -49z" />
    <glyph glyph-name="Scaron" unicode="&#x160;" horiz-adv-x="1146" 
d="M80 102l6 146q263 -133 498 -133q75 0 136.5 16t112 51t79 97.5t28.5 148.5q0 64 -30 109.5t-80.5 72t-116 45t-138 32.5t-145 30.5t-138 44.5t-116 67.5t-80.5 106.5t-30 156q0 82 28.5 152t85 126t151.5 87.5t218 31.5q218 0 438 -68l-26 -118q-211 57 -383 57
q-62 0 -115 -8t-100.5 -27.5t-81 -49.5t-53 -76.5t-19.5 -106.5q0 -66 30 -112t80.5 -71.5t116 -43t138 -30.5t145 -28t138 -42.5t116 -67.5t80.5 -109t30 -162q0 -113 -37.5 -198.5t-106 -137.5t-158 -78t-199.5 -26q-125 0 -259 30.5t-243 85.5zM449 1942l124 -164
l125 164h162l-188 -238q-36 -45 -99 -45q-62 0 -98 45l-188 238h162z" />
    <glyph glyph-name="scaron" unicode="&#x161;" horiz-adv-x="837" 
d="M731 989l-14 -127q-147 47 -291 47q-219 0 -219 -164q0 -42 24.5 -72t64.5 -46t91.5 -31.5t105 -27t105 -34t91.5 -51.5t64.5 -80.5t24.5 -119.5q0 -144 -101.5 -220.5t-283.5 -76.5q-147 0 -301 34l17 134q166 -39 276 -39q52 0 95 8.5t79 27t56 53t20 81.5
q0 49 -31.5 82.5t-82 52t-111.5 34t-122 35.5t-111.5 48.5t-82 81.5t-31.5 126q0 137 101.5 215t261.5 78q123 0 305 -49zM293 1491l125 -164l125 164h162l-189 -238q-36 -45 -98 -45q-63 0 -99 45l-188 238h162z" />
    <glyph glyph-name="Tcommaaccent" unicode="&#x162;" horiz-adv-x="1064" 
d="M1053 1346h-449v-1346h-143v1346h-451v129h1043v-129zM461 -117l143 15v-56q0 -106 -22.5 -178t-71.5 -129l-154 27q56 70 80.5 137t24.5 156v28z" />
    <glyph glyph-name="tcommaaccent" unicode="&#x163;" horiz-adv-x="655" 
d="M285 -117l143 15v-56q0 -106 -22.5 -178t-71.5 -129l-154 27q56 70 80.5 137t24.5 156v28zM590 135v-127q-77 -22 -121 -22q-117 0 -180.5 65t-63.5 215v629h-205v129h205v266l144 41v-307h243v-129h-243v-629q0 -151 118 -151q56 0 103 20z" />
    <glyph glyph-name="Tcaron" unicode="&#x164;" horiz-adv-x="1064" 
d="M1053 1346h-449v-1346h-143v1346h-451v129h1043v-129zM408 1942l124 -164l125 164h162l-188 -238q-36 -45 -99 -45q-62 0 -98 45l-188 238h162z" />
    <glyph glyph-name="tcaron" unicode="&#x165;" horiz-adv-x="733" 
d="M590 135v-127q-77 -22 -121 -22q-117 0 -180.5 65t-63.5 215v629h-205v129h205v266l144 41v-307h243v-129h-243v-629q0 -151 118 -151q56 0 103 20zM547 1659l143 -14q0 -184 -16.5 -290.5t-67.5 -209.5l-153 26q60 104 77 210t17 278z" />
    <glyph glyph-name="Tbar" unicode="&#x166;" horiz-adv-x="1064" 
d="M461 780h-303v129h303v437h-451v129h1043v-129h-449v-437h303v-129h-303v-780h-143v780z" />
    <glyph glyph-name="tbar" unicode="&#x167;" horiz-adv-x="655" 
d="M369 674h243v-129h-243v-279q0 -151 118 -151q56 0 103 20v-127q-77 -22 -121 -22q-117 0 -180.5 65t-63.5 215v279h-205v129h205v221h-205v129h205v266l144 41v-307h243v-129h-243v-221z" />
    <glyph glyph-name="Utilde" unicode="&#x168;" horiz-adv-x="1331" 
d="M123 1475h143v-986q0 -162 116.5 -268t283.5 -106t283 106t116 268v986h143v-986q0 -146 -73 -262t-196.5 -178.5t-272.5 -62.5t-272.5 62.5t-197 178.5t-73.5 262v986zM811 1647q-39 0 -80 17t-68.5 38t-60 38t-57.5 17q-32 0 -55.5 -29t-34.5 -77l-109 84
q20 75 64.5 120.5t113.5 45.5q35 0 74.5 -17.5t68 -38t61 -38t56.5 -17.5q32 0 55.5 29t34.5 77l109 -84q-20 -74 -63.5 -119.5t-108.5 -45.5z" />
    <glyph glyph-name="utilde" unicode="&#x169;" horiz-adv-x="1030" 
d="M133 1024h143v-680q0 -113 57.5 -171t143.5 -58q106 0 191.5 78t85.5 200v631h143v-1024h-121l-22 131q-60 -72 -137 -108.5t-158 -36.5q-136 0 -231 95.5t-95 262.5v680zM662 1196q-50 0 -100.5 28t-93 55.5t-73.5 27.5q-32 0 -55.5 -29.5t-34.5 -77.5l-108 84
q20 75 64.5 120.5t113.5 45.5q44 0 94 -28t93.5 -55.5t72.5 -27.5q32 0 55.5 29.5t34.5 77.5l109 -84q-20 -75 -63.5 -120.5t-108.5 -45.5z" />
    <glyph glyph-name="Umacron" unicode="&#x16a;" horiz-adv-x="1331" 
d="M123 1475h143v-986q0 -162 116.5 -268t283.5 -106t283 106t116 268v986h143v-986q0 -146 -73 -262t-196.5 -178.5t-272.5 -62.5t-272.5 62.5t-197 178.5t-73.5 262v986zM958 1659h-585v129h585v-129z" />
    <glyph glyph-name="umacron" unicode="&#x16b;" horiz-adv-x="1030" 
d="M133 1024h143v-680q0 -113 57.5 -171t143.5 -58q106 0 191.5 78t85.5 200v631h143v-1024h-121l-22 131q-60 -72 -137 -108.5t-158 -36.5q-136 0 -231 95.5t-95 262.5v680zM807 1208h-586v129h586v-129z" />
    <glyph glyph-name="Ubreve" unicode="&#x16c;" horiz-adv-x="1331" 
d="M123 1475h143v-986q0 -162 116.5 -268t283.5 -106t283 106t116 268v986h143v-986q0 -146 -73 -262t-196.5 -178.5t-272.5 -62.5t-272.5 62.5t-197 178.5t-73.5 262v986zM801 1942h143q0 -91 -40.5 -157t-102 -96t-133.5 -30q-114 0 -198.5 74.5t-84.5 208.5h143
q0 -73 42 -113.5t98 -40.5q55 0 94 40t39 114z" />
    <glyph glyph-name="ubreve" unicode="&#x16d;" horiz-adv-x="1030" 
d="M133 1024h143v-680q0 -113 57.5 -171t143.5 -58q106 0 191.5 78t85.5 200v631h143v-1024h-121l-22 131q-60 -72 -137 -108.5t-158 -36.5q-136 0 -231 95.5t-95 262.5v680zM651 1491h144q0 -134 -82 -208.5t-195 -74.5q-114 0 -198 74.5t-84 208.5h143q0 -73 41.5 -113.5
t97.5 -40.5q55 0 94 40t39 114z" />
    <glyph glyph-name="Uring" unicode="&#x16e;" horiz-adv-x="1331" 
d="M123 1475h143v-986q0 -162 116.5 -268t283.5 -106t283 106t116 268v986h143v-986q0 -146 -73 -262t-196.5 -178.5t-272.5 -62.5t-272.5 62.5t-197 178.5t-73.5 262v986zM483 1800q0 77 52.5 129.5t128.5 52.5q78 0 130 -52t52 -130q0 -76 -52 -128t-130 -52
q-75 0 -128 52.5t-53 127.5zM590 1800q0 -31 21.5 -52.5t52.5 -21.5t52 21.5t21 52.5t-21 52.5t-52 21.5t-52.5 -21.5t-21.5 -52.5z" />
    <glyph glyph-name="uring" unicode="&#x16f;" horiz-adv-x="1030" 
d="M133 1024h143v-680q0 -113 57.5 -171t143.5 -58q106 0 191.5 78t85.5 200v631h143v-1024h-121l-22 131q-60 -72 -137 -108.5t-158 -36.5q-136 0 -231 95.5t-95 262.5v680zM334 1350q0 78 52 130t128 52q78 0 130 -52t52 -130q0 -76 -52.5 -128.5t-129.5 -52.5
q-75 0 -127.5 53t-52.5 128zM440 1350q0 -31 21.5 -52.5t52.5 -21.5t52.5 21.5t21.5 52.5t-21.5 52t-52.5 21t-52.5 -21t-21.5 -52z" />
    <glyph glyph-name="Uhungarumlaut" unicode="&#x170;" horiz-adv-x="1331" 
d="M123 1475h143v-986q0 -162 116.5 -268t283.5 -106t283 106t116 268v986h143v-986q0 -146 -73 -262t-196.5 -178.5t-272.5 -62.5t-272.5 62.5t-197 178.5t-73.5 262v986zM557 1618l-131 29l162 301l178 -23zM883 1618l-131 29l161 301l179 -23z" />
    <glyph glyph-name="uhungarumlaut" unicode="&#x171;" horiz-adv-x="1030" 
d="M133 1024h143v-680q0 -113 57.5 -171t143.5 -58q106 0 191.5 78t85.5 200v631h143v-1024h-121l-22 131q-60 -72 -137 -108.5t-158 -36.5q-136 0 -231 95.5t-95 262.5v680zM401 1167l-131 29l162 301l178 -22zM727 1167l-131 29l162 301l178 -22z" />
    <glyph glyph-name="Uogonek" unicode="&#x172;" horiz-adv-x="1331" 
d="M1208 1475v-1047q0 -113 -20 -216t-44.5 -165.5t-44.5 -138.5t-20 -141q0 -58 32 -101.5t97 -79.5l-133 -57q-139 76 -139 252q0 161 143 375q-179 -170 -428 -170q-82 0 -159.5 21t-144 63t-117 101.5t-79 141t-28.5 176.5v986h143v-986q0 -162 116.5 -268t283.5 -106
t283 106t116 268v986h143z" />
    <glyph glyph-name="uogonek" unicode="&#x173;" horiz-adv-x="1030" 
d="M897 1024v-1024q-104 -119 -104 -233q0 -58 32 -101.5t97 -79.5l-134 -57q-65 36 -102 99t-37 136q0 119 127 236l-22 131q-60 -72 -137 -108.5t-158 -36.5q-136 0 -231 95.5t-95 262.5v680h143v-680q0 -113 57.5 -171t143.5 -58q106 0 191.5 78t85.5 200v631h143z" />
    <glyph glyph-name="Wcircumflex" unicode="&#x174;" horiz-adv-x="1740" 
d="M870 213q-98 -213 -338 -213q-171 0 -290 107.5t-119 273.5v1094h143v-1094q0 -110 78 -188t188 -78q108 0 187.5 76.5t79.5 189.5v1094h143v-1094q0 -113 79 -189.5t187 -76.5q110 0 188.5 78t78.5 188v1094h143v-1094q0 -110 -56 -198t-149.5 -135.5t-204.5 -47.5
q-240 0 -338 213zM870 1823l-125 -164h-161l188 237q37 46 98 46q62 0 99 -46l188 -237h-162z" />
    <glyph glyph-name="wcircumflex" unicode="&#x175;" horiz-adv-x="1454" 
d="M727 156q-31 -79 -105.5 -124.5t-156.5 -45.5q-141 0 -236.5 89.5t-95.5 227.5v721h143v-721q0 -79 54.5 -133.5t134.5 -54.5q76 0 133 53.5t57 126.5v729h144v-729q0 -73 57 -126.5t133 -53.5q80 0 134.5 54.5t54.5 133.5v721h143v-721q0 -138 -95.5 -227.5
t-236.5 -89.5q-81 0 -157.5 46t-104.5 124zM727 1372l-125 -164h-162l189 238q36 45 98 45t98 -45l189 -238h-162z" />
    <glyph glyph-name="Ycircumflex" unicode="&#x176;" horiz-adv-x="1228" 
d="M686 0h-143v641q-217 25 -354.5 159.5t-137.5 334.5v340h144v-326q0 -171 115.5 -276t303.5 -105t304 105t116 276v326h144v-340q0 -200 -137.5 -334.5t-354.5 -159.5v-641zM614 1823l-125 -164h-161l188 237q37 46 98 46q62 0 99 -46l188 -237h-162z" />
    <glyph glyph-name="ycircumflex" unicode="&#x177;" 
d="M102 1024h144v-694q0 -106 55.5 -160.5t138.5 -54.5q106 0 194.5 78.5t88.5 201.5v629h143v-1120q0 -111 -56 -197t-144.5 -129t-192.5 -43q-178 0 -321 119l57 121q53 -53 124 -82t144 -29q106 0 176 60t70 180v256q-50 -84 -124 -129t-157 -45q-86 0 -163 40.5
t-127 120.5t-50 181v696zM500 1372l-125 -164h-162l188 238q36 45 99 45q62 0 98 -45l188 -238h-161z" />
    <glyph glyph-name="Ydieresis" unicode="&#x178;" horiz-adv-x="1228" 
d="M686 0h-143v641q-217 25 -354.5 159.5t-137.5 334.5v340h144v-326q0 -171 115.5 -276t303.5 -105t304 105t116 276v326h144v-340q0 -200 -137.5 -334.5t-354.5 -159.5v-641zM307 1808q0 47 35 82t82 35t82 -35t35 -82t-35 -81.5t-82 -34.5t-82 34.5t-35 81.5zM688 1808
q0 47 35 82t82 35t82 -35t35 -82t-35 -81.5t-82 -34.5t-82 34.5t-35 81.5z" />
    <glyph glyph-name="Zacute" unicode="&#x179;" horiz-adv-x="1232" 
d="M655 1618l-131 29l162 301l178 -23zM1059 1219l-848 -1090h950v-129h-948q-63 0 -97 39.5t-34 97.5q0 62 35 105l864 1104h-858v129h854q68 0 99.5 -33.5t31.5 -87.5q0 -73 -49 -135z" />
    <glyph glyph-name="zacute" unicode="&#x17a;" horiz-adv-x="913" 
d="M498 1167l-131 29l161 301l179 -22zM770 768l-586 -639h660v-129h-643q-61 0 -99.5 43.5t-38.5 101.5q0 56 41 103l594 647h-594v129h584q65 0 100 -37t35 -92q0 -67 -53 -127z" />
    <glyph glyph-name="Zdotaccent" unicode="&#x17b;" horiz-adv-x="1232" 
d="M500 1808q0 47 34.5 82t81.5 35t82 -35t35 -82t-35 -81.5t-82 -34.5t-81.5 34.5t-34.5 81.5zM1059 1219l-848 -1090h950v-129h-948q-63 0 -97 39.5t-34 97.5q0 62 35 105l864 1104h-858v129h854q68 0 99.5 -33.5t31.5 -87.5q0 -73 -49 -135z" />
    <glyph glyph-name="zdotaccent" unicode="&#x17c;" horiz-adv-x="913" 
d="M373 1358q0 47 34.5 82t81.5 35t82 -35t35 -82t-35 -82t-82 -35t-81.5 35t-34.5 82zM770 768l-586 -639h660v-129h-643q-61 0 -99.5 43.5t-38.5 101.5q0 56 41 103l594 647h-594v129h584q65 0 100 -37t35 -92q0 -67 -53 -127z" />
    <glyph glyph-name="Zcaron" unicode="&#x17d;" horiz-adv-x="1232" 
d="M1059 1219l-838 -1090h940v-129h-948q-63 0 -97 39.5t-34 97.5q0 62 35 105l854 1104h-848v129h854q68 0 99.5 -33.5t31.5 -87.5q0 -73 -49 -135zM547 1942l125 -164l125 164h161l-188 -238q-36 -45 -98 -45q-63 0 -99 45l-188 238h162z" />
    <glyph glyph-name="zcaron" unicode="&#x17e;" horiz-adv-x="913" 
d="M770 768l-571 -639h645v-129h-643q-61 0 -99.5 43.5t-38.5 101.5q0 56 41 103l580 647h-580v129h584q65 0 100 -37t35 -92q0 -67 -53 -127zM375 1491l125 -164l125 164h161l-188 -238q-36 -45 -98 -45q-63 0 -99 45l-188 238h162z" />
    <glyph glyph-name="uni018f" unicode="&#x18f;" horiz-adv-x="1280" 
d="M1157 991v-508q0 -212 -148.5 -354.5t-363.5 -142.5t-363.5 142.5t-148.5 354.5v142q0 176 176 176h705v190q0 113 -55.5 199t-141.5 128t-186 42q-102 0 -200 -48t-157 -138l-102 88q77 113 198.5 170t260.5 57q101 0 194.5 -32.5t168 -93t119 -157t44.5 -215.5z
M645 115q154 0 261.5 107t107.5 261v191h-692q-46 0 -46 -45v-146q0 -154 107.5 -261t261.5 -107z" />
    <glyph glyph-name="florin" unicode="&#x192;" horiz-adv-x="675" 
d="M373 657v-774q0 -179 -72.5 -263.5t-187.5 -84.5q-62 0 -150 31l25 137q84 -25 116 -25q63 0 94 50.5t31 169.5v759h-178v129h178v457q0 179 72.5 263.5t187.5 84.5q65 0 150 -30l-25 -123q-81 24 -116 24q-63 0 -94 -50t-31 -169v-457h254v-129h-254z" />
    <glyph glyph-name="uni01EA" unicode="&#x1ea;" horiz-adv-x="1331" 
d="M1208 961v-447q0 -200 -130 -345t-326 -175q-68 -107 -68 -227q0 -58 32 -101.5t97 -79.5l-133 -57q-65 36 -102 99t-37 136q0 126 88 224q-215 12 -360.5 162t-145.5 364v447q0 147 73 268.5t197.5 190.5t272.5 69t272 -69t197 -190.5t73 -268.5zM1065 514v447
q0 164 -117.5 281.5t-281.5 117.5t-282 -117.5t-118 -281.5v-447q0 -164 118 -281.5t282 -117.5t281.5 117.5t117.5 281.5z" />
    <glyph glyph-name="uni01EB" unicode="&#x1eb;" horiz-adv-x="966" 
d="M356 -236q0 126 88 224q-152 12 -252 113t-100 251v320q0 159 113.5 262.5t277.5 103.5t277.5 -103.5t113.5 -262.5v-320q0 -137 -86 -234t-219 -122q-69 -100 -69 -229q0 -58 32 -101.5t97 -79.5l-133 -57q-66 37 -103 100t-37 135zM483 115q104 0 176 67t72 170v320
q0 103 -72 170t-176 67t-175.5 -67t-71.5 -170v-320q0 -103 71.5 -170t175.5 -67z" />
    <glyph glyph-name="Scommaaccent" unicode="&#x218;" horiz-adv-x="1146" 
d="M541 -117l143 15v-56q0 -106 -22.5 -178t-71.5 -129l-154 27q56 70 80.5 137t24.5 156v28zM80 102l6 146q263 -133 498 -133q75 0 136.5 16t112 51t79 97.5t28.5 148.5q0 64 -30 109.5t-80.5 72t-116 45t-138 32.5t-145 30.5t-138 44.5t-116 67.5t-80.5 106.5t-30 156
q0 82 28.5 152t85 126t151.5 87.5t218 31.5q218 0 438 -68l-26 -118q-211 57 -383 57q-62 0 -115 -8t-100.5 -27.5t-81 -49.5t-53 -76.5t-19.5 -106.5q0 -66 30 -112t80.5 -71.5t116 -43t138 -30.5t145 -28t138 -42.5t116 -67.5t80.5 -109t30 -162q0 -113 -37.5 -198.5
t-106 -137.5t-158 -78t-199.5 -26q-125 0 -259 30.5t-243 85.5z" />
    <glyph glyph-name="scommaaccent" unicode="&#x219;" horiz-adv-x="837" 
d="M731 989l-14 -127q-147 47 -291 47q-219 0 -219 -164q0 -42 24.5 -72t64.5 -46t91.5 -31.5t105 -27t105 -34t91.5 -51.5t64.5 -80.5t24.5 -119.5q0 -144 -101.5 -220.5t-283.5 -76.5q-147 0 -301 34l17 134q166 -39 276 -39q52 0 95 8.5t79 27t56 53t20 81.5
q0 49 -31.5 82.5t-82 52t-111.5 34t-122 35.5t-111.5 48.5t-82 81.5t-31.5 126q0 137 101.5 215t261.5 78q123 0 305 -49zM401 -117l144 15v-56q0 -106 -22.5 -178t-71.5 -129l-154 27q56 70 80 136.5t24 156.5v28z" />
    <glyph glyph-name="uni0259" unicode="&#x259;" horiz-adv-x="923" 
d="M203 748l-101 86q54 93 151.5 148.5t209.5 55.5q168 0 284.5 -107t116.5 -261v-299q0 -95 -33 -170t-88.5 -121t-124.5 -70t-145 -24t-145 25t-124.5 72t-88.5 123t-33 171q0 87 50 140.5t126 53.5h463v91q0 117 -72.5 182t-177.5 65q-82 0 -154.5 -41t-113.5 -120z
M721 371v71h-447q-24 0 -36.5 -20.5t-12.5 -54.5q0 -117 74.5 -184.5t173.5 -67.5q100 0 174 68t74 188z" />
    <glyph glyph-name="circumflex" unicode="&#x2c6;" horiz-adv-x="573" 
d="M287 1372l-125 -164h-162l188 238q36 45 99 45q62 0 98 -45l188 -238h-161z" />
    <glyph glyph-name="caron" unicode="&#x2c7;" horiz-adv-x="573" 
d="M162 1491l125 -164l125 164h161l-188 -238q-36 -45 -98 -45q-63 0 -99 45l-188 238h162z" />
    <glyph glyph-name="breve" unicode="&#x2d8;" horiz-adv-x="589" 
d="M430 1491h143q0 -91 -40.5 -157t-102 -96t-133.5 -30q-114 0 -198.5 74.5t-84.5 208.5h144q0 -73 41.5 -113.5t97.5 -40.5q55 0 94 40t39 114z" />
    <glyph glyph-name="dotaccent" unicode="&#x2d9;" horiz-adv-x="337" 
d="M57 1358q0 47 35 82t82 35t82 -35t35 -82t-35 -82t-82 -35t-82 35t-35 82z" />
    <glyph glyph-name="ring" unicode="&#x2da;" horiz-adv-x="444" 
d="M41 1350q0 78 52.5 130t127.5 52q78 0 130 -52t52 -130q0 -76 -52.5 -128.5t-129.5 -52.5q-75 0 -127.5 53t-52.5 128zM147 1350q0 -31 21.5 -52.5t52.5 -21.5t52.5 21.5t21.5 52.5t-21.5 52t-52.5 21t-52.5 -21t-21.5 -52z" />
    <glyph glyph-name="ogonek" unicode="&#x2db;" horiz-adv-x="342" 
d="M143 0l117 -41q-74 -95 -74 -192q0 -58 32 -101.5t97 -79.5l-133 -57q-65 36 -102 99t-37 136q0 136 100 236z" />
    <glyph glyph-name="tilde" unicode="&#x2dc;" horiz-adv-x="636" 
d="M465 1196q-50 0 -100.5 28t-92.5 55.5t-73 27.5q-32 0 -55.5 -29.5t-34.5 -77.5l-109 84q20 75 64.5 120.5t113.5 45.5q44 0 94 -28t93.5 -55.5t72.5 -27.5q32 0 55.5 29.5t34.5 77.5l109 -84q-20 -75 -63.5 -120.5t-108.5 -45.5z" />
    <glyph glyph-name="hungarumlaut" unicode="&#x2dd;" horiz-adv-x="753" 
d="M184 1167l-131 29l162 301l178 -22zM510 1167l-131 29l162 301l178 -22z" />
    <glyph glyph-name="pi" unicode="&#x3c0;" horiz-adv-x="1146" 
d="M754 207v688h-373v-895h-143v895h-185v129h1028v-129h-184v-674q0 -92 76 -92q40 0 96 18l8 -139q-68 -22 -129 -22q-88 0 -141 51.5t-53 169.5z" />
    <glyph glyph-name="baht" unicode="&#xe3f;" horiz-adv-x="1157" 
d="M616 0h-24v-328h-143v328h-152q-60 0 -101.5 41.5t-41.5 101.5v1004q0 60 41.5 101.5t101.5 41.5h152v226h143v-226h63q149 0 239.5 -93t90.5 -218q0 -84 -43 -158t-131 -123q118 -52 178 -138t60 -185q0 -71 -30.5 -138t-85 -120t-137.5 -85t-180 -32zM588 633h-291
v-504h319q71 0 128 23.5t91 61t52 82t18 89.5q0 100 -83.5 174t-233.5 74zM297 758h315q102 0 166 67.5t64 149.5q0 75 -54 130.5t-157 55.5h-334v-403z" />
    <glyph glyph-name="endash" unicode="&#x2013;" horiz-adv-x="819" 
d="M709 504h-621v129h621v-129z" />
    <glyph glyph-name="emdash" unicode="&#x2014;" horiz-adv-x="1024" 
d="M942 504h-860v129h860v-129z" />
    <glyph glyph-name="quoteleft" unicode="&#x2018;" horiz-adv-x="409" 
d="M248 928l-144 14q0 194 19.5 326t75.5 233l153 -26q-64 -109 -84 -238.5t-20 -308.5z" />
    <glyph glyph-name="quoteright" unicode="&#x2019;" horiz-adv-x="409" 
d="M182 1501l144 -14q0 -194 -19.5 -326t-75.5 -233l-153 26q63 108 83.5 239.5t20.5 307.5z" />
    <glyph glyph-name="quotesinglbase" unicode="&#x201a;" horiz-adv-x="395" 
d="M137 111l144 -15q0 -194 -19.5 -326t-75.5 -233l-153 27q63 108 83.5 239.5t20.5 307.5z" />
    <glyph glyph-name="quotedblleft" unicode="&#x201c;" horiz-adv-x="655" 
d="M203 928l-144 14q0 194 19.5 326t75.5 233l153 -26q-64 -109 -84 -238.5t-20 -308.5zM504 928l-144 14q0 194 19.5 326t75.5 233l153 -26q-64 -109 -84 -238.5t-20 -308.5z" />
    <glyph glyph-name="quotedblright" unicode="&#x201d;" horiz-adv-x="655" 
d="M453 1501l143 -14q0 -195 -19 -326.5t-75 -232.5l-154 26q63 108 84 240.5t21 306.5zM152 1501l143 -14q0 -195 -19 -326.5t-75 -232.5l-154 26q63 108 84 240.5t21 306.5z" />
    <glyph glyph-name="quotedblbase" unicode="&#x201e;" horiz-adv-x="665" 
d="M453 111l143 -15q0 -195 -19 -326.5t-75 -232.5l-154 27q63 108 84 240.5t21 306.5zM152 111l143 -15q0 -195 -19 -326.5t-75 -232.5l-154 27q63 108 84 240.5t21 306.5z" />
    <glyph glyph-name="dagger" unicode="&#x2020;" horiz-adv-x="835" 
d="M487 702v-1030h-143v1030h-293v129h293v644h143v-644h295v-129h-295z" />
    <glyph glyph-name="daggerdbl" unicode="&#x2021;" horiz-adv-x="839" 
d="M487 430h295v-129h-295v-629h-143v629h-293v129h293v272h-293v129h293v644h143v-644h295v-129h-295v-272z" />
    <glyph glyph-name="bullet" unicode="&#x2022;" horiz-adv-x="499" 
d="M86 541q0 72 49 121t121 49t121 -49t49 -121t-49 -121t-121 -49t-121 49t-49 121z" />
    <glyph glyph-name="ellipsis" unicode="&#x2026;" horiz-adv-x="1228" 
d="M88 119q0 49 35 84t84 35t84 -35t35 -84t-35 -84t-84 -35t-84 35t-35 84zM498 119q0 50 34.5 84.5t83.5 34.5q50 0 84.5 -35t34.5 -84t-34.5 -84t-84.5 -35q-49 0 -83.5 34.5t-34.5 84.5zM907 119q0 49 34.5 84t84.5 35t84.5 -35t34.5 -84t-34.5 -84t-84.5 -35t-84.5 35
t-34.5 84z" />
    <glyph glyph-name="perthousand" unicode="&#x2030;" horiz-adv-x="1996" 
d="M1083 1475h168l-985 -1475h-170zM68 1217q0 114 78 193t190 79q114 0 193 -79t79 -193q0 -113 -79 -191t-193 -78q-112 0 -190 78t-78 191zM201 1217q0 -57 39 -96.5t96 -39.5q60 0 99.5 39.5t39.5 96.5q0 60 -39.5 99.5t-99.5 39.5q-57 0 -96 -39.5t-39 -99.5zM739 254
q0 114 78 193t191 79q114 0 193 -79t79 -193q0 -112 -79 -190t-193 -78q-113 0 -191 78t-78 190zM872 254q0 -57 39.5 -96t96.5 -39q60 0 99.5 39t39.5 96q0 60 -39.5 99.5t-99.5 39.5q-57 0 -96.5 -39.5t-39.5 -99.5zM1368 254q0 114 78 193t190 79q114 0 193.5 -79
t79.5 -193q0 -112 -79.5 -190t-193.5 -78q-112 0 -190 78t-78 190zM1501 254q0 -57 39 -96t96 -39q60 0 100 39t40 96q0 60 -40 99.5t-100 39.5q-57 0 -96 -39.5t-39 -99.5z" />
    <glyph glyph-name="guilsinglleft" unicode="&#x2039;" horiz-adv-x="569" 
d="M70 516q0 62 45 98l368 289v-162l-295 -225l295 -225v-162l-368 289q-45 36 -45 98z" />
    <glyph glyph-name="guilsinglright" unicode="&#x203a;" horiz-adv-x="569" 
d="M500 516q0 -62 -45 -98l-369 -289v162l295 225l-295 225v162l369 -289q45 -36 45 -98z" />
    <glyph glyph-name="Euro" unicode="&#x20ac;" horiz-adv-x="1224" 
d="M57 674h766v-129h-495v-62q0 -166 107.5 -267t254.5 -101q221 0 352 200l105 -71q-83 -128 -205 -193t-256 -65q-97 0 -187 34.5t-160.5 96.5t-112.5 157t-42 209v62h-127v129zM823 801h-766v129h127v61q0 116 43 212t114.5 157.5t162 95t188.5 33.5q137 0 260 -64.5
t193 -189.5l-103 -82q-65 104 -156.5 155.5t-193.5 51.5q-148 0 -256 -102t-108 -267v-61h495v-129z" />
    <glyph glyph-name="trademark2" unicode="&#x2122;" horiz-adv-x="1452" 
d="M553 1346h-182v-439h-144v439h-182v129h508v-129zM1008 897q-38 0 -69.5 19t-41.5 55l-102 362v-426h-144v447q0 64 39 98.5t94 34.5q43 0 80 -21.5t47 -58.5l97 -354l96 354q10 37 47 58.5t80 21.5q55 0 94 -34.5t39 -98.5v-447h-143v424l-103 -360q-10 -36 -41 -55
t-69 -19z" />
    <glyph glyph-name="Omega" unicode="&#x2126;" horiz-adv-x="1359" 
d="M680 1360q-107 0 -199.5 -57.5t-146 -153t-53.5 -203.5v-151q0 -147 90 -258t229 -136v-401h-453v129h310v168q-144 63 -232 192.5t-88 290.5v181q0 147 73 268.5t197.5 190.5t272.5 69t272.5 -69t197.5 -190.5t73 -268.5v-181q0 -162 -88 -291t-232 -192v-168h309v-129
h-452v401q139 25 229 136t90 258v151q0 108 -53.5 203.5t-146 153t-199.5 57.5z" />
    <glyph glyph-name="Delta" unicode="&#x2206;" horiz-adv-x="1359" 
d="M248 143h864l-432 1176zM1161 0h-962q-54 0 -83.5 29t-29.5 75q0 32 12 62l465 1243q33 80 117 80t117 -80l465 -1243q12 -30 12 -62q0 -46 -29.5 -75t-83.5 -29z" />
    <glyph glyph-name="product" unicode="&#x220f;" horiz-adv-x="1409" 
d="M53 1475h1303v-129h-213v-1346h-144v1346h-589v-1346h-144v1346h-213v129z" />
    <glyph glyph-name="summation" unicode="&#x2211;" horiz-adv-x="1044" 
d="M621 737l-451 516q-41 44 -41 107q0 49 29.5 82t81.5 33h708v-129h-669l440 -506q24 -27 34.5 -49t10.5 -54t-10.5 -53.5t-34.5 -48.5l-440 -506h669v-129h-708q-52 0 -81.5 33t-29.5 82q0 62 41 106z" />
    <glyph glyph-name="minus" unicode="&#x2212;" horiz-adv-x="993" 
d="M903 614h-815v129h815v-129z" />
    <glyph glyph-name="radical" unicode="&#x221a;" horiz-adv-x="1175" 
d="M283 629h-203v129h315l217 -602l336 1421h156l-371 -1511q-10 -40 -44.5 -60t-76.5 -20q-83 0 -116 80z" />
    <glyph glyph-name="infinity" unicode="&#x221e;" horiz-adv-x="1251" 
d="M403 614q66 0 110 44t44 110t-44 111t-110 45t-109.5 -45t-43.5 -111t43.5 -110t109.5 -44zM850 614q66 0 110 44t44 110t-44 111t-110 45t-110 -45t-44 -111t44 -110t110 -44zM627 930q34 64 94 98.5t129 34.5q122 0 207.5 -86.5t85.5 -208.5q0 -123 -85 -208t-208 -85
q-69 0 -129 34.5t-94 98.5q-34 -64 -94 -98.5t-130 -34.5q-123 0 -207.5 85t-84.5 208q0 122 85 208.5t207 86.5q70 0 130 -34.5t94 -98.5z" />
    <glyph glyph-name="integral" unicode="&#x222b;" horiz-adv-x="675" 
d="M373 1243v-1360q0 -179 -72.5 -263.5t-187.5 -84.5q-62 0 -150 31l25 123q84 -25 116 -25q63 0 94 50t31 169v1360q0 179 72.5 263.5t187.5 84.5q65 0 150 -30l-25 -123q-81 24 -116 24q-63 0 -94 -50t-31 -169z" />
    <glyph glyph-name="approxequal" unicode="&#x2248;" 
d="M328 893q-53 0 -92.5 -35t-59.5 -92l-108 90q38 74 107 127t153 53q55 0 109.5 -22t89 -48.5t74.5 -48.5t71 -22q86 0 155 125l99 -88q-30 -77 -100.5 -128.5t-153.5 -51.5q-49 0 -98 22t-82.5 48.5t-78 48.5t-85.5 22zM328 559q-53 0 -92.5 -35t-59.5 -92l-108 90
q38 74 107 127t153 53q55 0 109.5 -22t89 -48.5t74.5 -48.5t71 -22q86 0 155 125l99 -88q-30 -77 -100.5 -128.5t-153.5 -51.5q-49 0 -98 22t-82.5 48.5t-78 48.5t-85.5 22z" />
    <glyph glyph-name="notequal" unicode="&#x2260;" horiz-adv-x="1024" 
d="M348 453h-260v129h301l64 194h-365v129h408l90 281h141l-90 -281h268v-129h-311l-62 -194h373v-129h-416l-92 -291h-143z" />
    <glyph glyph-name="lessequal" unicode="&#x2264;" horiz-adv-x="1001" 
d="M106 692q0 78 72 113l725 348v-162l-627 -299l627 -299v-162l-725 349q-72 35 -72 112zM88 168h815v-129h-815v129z" />
    <glyph glyph-name="greaterequal" unicode="&#x2265;" horiz-adv-x="1001" 
d="M885 692q0 -77 -72 -112l-725 -349v162l627 299l-627 299v162l725 -348q72 -35 72 -113zM88 168h815v-129h-815v129z" />
    <glyph glyph-name="lozenge" unicode="&#x25ca;" horiz-adv-x="991" 
d="M496 -14q-79 0 -117 80l-227 507q-46 93 -46 164q0 67 46 164l227 508q38 80 117 80q78 0 116 -80l228 -508q45 -95 45 -164q0 -73 -45 -164l-228 -507q-38 -80 -116 -80zM758 737l-262 602l-263 -602l263 -602z" />
    <glyph glyph-name="Typomancer" horiz-adv-x="1243" 
d="M203 778l389 96l-303 64q-41 12 -76 9t-70 -25l-26 -19zM1079 713l-155 -62q48 -19 76 -58.5t28 -90.5q0 -66 -46 -112t-112 -46q-41 0 -75 18.5t-47 43.5v-349q161 42 264.5 173t103.5 298q0 103 -37 185zM487 211v608l-290 -74q-50 -100 -50 -217q0 -116 51 -217
t140 -168zM713 -113v125q-41 -6 -82 -6q-106 0 -203 41.5t-166.5 111.5t-111 166.5t-41.5 202.5q0 137 63 236l-96 145l164 113q33 28 102 18l143 -12v62q0 85 78 120l185 82v-35l-101 -47v-159l-80 -33l146 -14v159l35 17v-181l440 -45v-12l-184 -82q-67 -30 -116 -35.5
t-116 11.5l-24 6v-172l-35 -31v209l-66 14v-536q0 -78 -80 -117l-196 -88q121 -78 260 -78q46 0 82 8v420l35 31q0 -51 35.5 -87t86.5 -36t87 36t36 87q0 53 -35.5 88t-87.5 35v34l228 97q27 -41 41 -104.5t14 -123.5q0 -184 -115.5 -327.5t-289.5 -180.5v-100l-33 -35z
M252 528q0 -196 162 -311l-37 -18q-76 58 -120 144.5t-44 184.5q0 108 49 201l60 21q-70 -98 -70 -222zM303 965l475 -95q46 -13 98 -9.5t113 30.5l101 45l-754 78q-43 6 -80 -15l-41 -28q24 6 88 -6zM518 827v-604l43 21q53 24 53 82v526zM614 1071v123l-43 -18
q-53 -24 -53 -82v-60zM870 434q-29 0 -48 19.5t-19 48.5t19 48t48 19t47.5 -19t18.5 -48t-18.5 -48.5t-47.5 -19.5z" />
    </font>
</defs>
</svg>
