<svg width="0" height="0" class="hidden">
  <symbol fill="none" xmlns="http://www.w3.org/2000/svg" viewBox="0 0 27 27" id="login">
    <path d="M17.6666 1H23.2222C23.9589 1 24.6654 1.29266 25.1864 1.81359C25.7073 2.33453 26 3.04107 26 3.77778V23.2222C26 23.9589 25.7073 24.6655 25.1864 25.1864C24.6654 25.7073 23.9589 26 23.2222 26H17.6666" stroke="#212121" stroke-width="2" stroke-linecap="round" stroke-linejoin="round"></path>
    <path d="M17.6667 13.5H1" stroke="#212121" stroke-width="2" stroke-linecap="round" stroke-linejoin="round"></path>
  </symbol>
  <symbol fill="none" xmlns="http://www.w3.org/2000/svg" viewBox="0 0 27 24" id="heart">
    <path d="M24.0723 2.94496C23.4614 2.32835 22.7361 1.83921 21.9378 1.50549C21.1396 1.17177 20.2839 1 19.4199 1C18.5558 1 17.7001 1.17177 16.9019 1.50549C16.1036 1.83921 15.3783 2.32835 14.7674 2.94496L13.4997 4.22404L12.2319 2.94496C10.998 1.70004 9.3245 1.00065 7.57951 1.00065C5.83452 1.00065 4.16099 1.70004 2.92709 2.94496C1.6932 4.18988 1 5.87836 1 7.63895C1 9.39954 1.6932 11.088 2.92709 12.3329L4.19485 13.612L13.4997 23L22.8045 13.612L24.0723 12.3329C24.6834 11.7166 25.1682 10.9849 25.499 10.1794C25.8298 9.37403 26 8.51076 26 7.63895C26 6.76714 25.8298 5.90387 25.499 5.09846C25.1682 4.29305 24.6834 3.56128 24.0723 2.94496V2.94496Z" stroke="#212121" stroke-width="2" stroke-linecap="round" stroke-linejoin="round"></path>
  </symbol>
</svg>